<svg xmlns="http://www.w3.org/2000/svg" xmlns:xlink="http://www.w3.org/1999/xlink" id="Layer_1" width="319" height="651.743" data-name="Layer 1" version="1.1" viewBox="0 0 319 651.743"><defs id="defs1"><style id="style1">.cls-1{fill:#dcddde}.cls-1,.cls-2,.cls-3{stroke:#333132;stroke-miterlimit:10;stroke-width:.82px}.cls-2{fill:#9d9fa2}.cls-3{fill:#fff}.cls-5{fill:#403e3e}.cls-6{fill:#333132}</style></defs><g id="TrailerAxle12" style="display:inline"><path id="path1" d="M116.3 152.921a4.1 4.1 0 0 1-3.41-1.82l-20.78-31a4.1 4.1 0 0 1-.69-2.28v-75.3a4.09 4.09 0 0 1 .61-2.15l1.44-2.35v-20.33a4.1 4.1 0 1 1 8.19 0v21.51a4.17 4.17 0 0 1-.6 2.15l-1.45 2.34v72.89l20.09 30a4.09 4.09 0 0 1-3.4 6.38z" class="cls-1"/><path id="path2" d="M129.46 7.751v-.25a3.46 3.46 0 0 0-3.46-3.48h-15.48a3.46 3.46 0 0 0-3.46 3.46v.25h-1.84v5.29h-15a1.61 1.61 0 0 0-1.61 1.61v4.64a1.61 1.61 0 0 0 1.61 1.61h15v5.29h1.84v.25a3.46 3.46 0 0 0 3.46 3.46H126a3.46 3.46 0 0 0 3.47-3.46v-.25h4.29V7.751Z" class="cls-2"/><path id="path4" d="M203.23 152.921a4.11 4.11 0 0 0 3.41-1.82l20.78-31a4.1 4.1 0 0 0 .69-2.28v-75.3a4.09 4.09 0 0 0-.61-2.15l-1.44-2.35v-20.33a4.1 4.1 0 0 0-8.2 0v21.51a4.09 4.09 0 0 0 .61 2.15l1.44 2.34v72.89l-20.08 30a4.1 4.1 0 0 0 1.12 5.69 4.06 4.06 0 0 0 2.28.65z" class="cls-1"/><path id="path5" d="M190.07 7.751v-.25a3.46 3.46 0 0 1 3.46-3.48H209a3.46 3.46 0 0 1 3.46 3.46v.25h1.84v5.29h14.95a1.62 1.62 0 0 1 1.62 1.61v4.64a1.62 1.62 0 0 1-1.62 1.61h-14.94v5.29h-1.84v.25a3.46 3.46 0 0 1-3.47 3.48h-15.47a3.46 3.46 0 0 1-3.46-3.46v-.25h-4.3V7.751Z" class="cls-2"/><path id="polygon6" d="M295.52 305.3H265.5v-2.41h-56.29v8.71h86.31z" class="cls-3" transform="translate(0 -139.979)"/><path id="polygon7" d="M24.27 305.3H54.3v-2.41h56.29v8.71H24.27Z" class="cls-3" transform="translate(0 -139.979)"/><path id="rect7" d="M133.75 10.731h52.02v12.48h-52.02z" class="cls-2"/><path id="rect8" d="M17.818 26.466h288.237v616.283H17.818Z" style="fill:none;stroke:#333132;stroke-width:.82px;stroke-miterlimit:10"/><path id="rect13" d="M18.3 167.241h287.97v10.4H18.3Z" class="cls-1"/><path id="rect16" d="M18.3 126.201h287.97v10.4H18.3Z" class="cls-1"/><path id="rect17" d="M18.3 65.861h287.97v10.4H18.3Z" class="cls-1"/><path id="rect18" d="M18.3 320.181h287.97v10.4H18.3Z" class="cls-1"/><path id="rect23" d="M96.708 36.975h17.733v600.611H96.708Z" class="cls-1"/><path id="rect24" d="M204.797 36.984h17.715V640.88h-17.715z" class="cls-1"/><path id="rect25" d="M131.99.431h55.25v16.43h-55.25z" class="cls-1"/><path id="rect26" d="M114.31 41.021h90.62v8.22h-90.62z" class="cls-1"/><path id="rect27" d="M114.31 101.951h90.62v8.22h-90.62z" class="cls-1"/><path id="rect28" d="M-101.951 120.35h52.71v8.22h-52.71z" class="cls-1" transform="rotate(-90)"/><path id="rect29" d="M-101.951 190.67h52.71v8.22h-52.71z" class="cls-1" transform="rotate(-90)"/><path id="rect30" d="M40.47 16.861h241.65v24.17H40.47Z" class="cls-1"/><path id="path30" d="M25.36 16.861a9.06 9.06 0 0 0-9.06 9.05v15.11h24.17v-24.16z" class="cls-1"/><path id="path31" d="M306.28 25.911a9 9 0 0 0-9-9h-15.16v24.11h24.16z" class="cls-1"/><path id="rect34" d="M16.3 441.141h24.22v28.19H16.3Z" class="cls-1"/><path id="rect35" d="M40.52 441.141h239.53v28.19H40.52Z" class="cls-1"/><path id="rect36" d="M280.05 441.141h24.22v28.19h-24.22z" class="cls-1"/><path id="rect37" d="M16.3 582.891h24.22v28.19H16.3Z" class="cls-1"/><path id="rect38" d="M40.52 582.891h239.53v28.19H40.52Z" class="cls-1"/><path id="rect39" d="M280.05 582.891h24.22v28.19h-24.22z" class="cls-1"/><path id="rect43" d="M96.85 611.082h125.52v40.23H96.85Z" class="cls-1"/><path id="path43" d="M4.92 627.351v7.67a16.26 16.26 0 0 0 16.26 16.27h276.87a16.27 16.27 0 0 0 16.27-16.27v-7.69z" class="cls-1"/><path id="rect44" d="M4.92 619.491h309.4v7.87H4.92Z" class="cls-1"/><path id="rect238" d="M14.77 388.661h286.52v10.65H14.77Z" class="cls-2"/><path id="path239" d="m192 384.531-8.88-4.27a4.38 4.38 0 0 0-1.88-.43h-46.46a4.31 4.31 0 0 0-1.87.43l-8.91 4.27a4.38 4.38 0 0 1-1.88.43H122a4.32 4.32 0 0 0-4.32 4.32v9.42a4.33 4.33 0 0 0 4.32 4.32h.15a4.37 4.37 0 0 1 1.88.42l8.88 4.28a4.3 4.3 0 0 0 1.87.42h46.49a4.37 4.37 0 0 0 1.88-.42l8.88-4.28a4.3 4.3 0 0 1 1.87-.42h.15a4.32 4.32 0 0 0 4.32-4.32v-9.42a4.31 4.31 0 0 0-4.32-4.32h-.15a4.31 4.31 0 0 1-1.9-.43z" class="cls-2"/><g id="Axle2Tire1" transform="matrix(1.65111 0 0 1 0 -631.979)"><rect id="rect239" width="37.55" height="117.81" x="0" y="961.91" class="cls-5" rx="7.86"/><rect id="rect240" width="37.55" height="117.81" x="0" y="961.91" class="cls-5" rx="7.86"/><path id="path240" d="M17.94 1003.67a4.13 4.13 0 0 0-1.29-3l-6-5.74a.53.53 0 0 0-.9.35v4.17a4.11 4.11 0 0 0 1.3 3l6 5.75a.53.53 0 0 0 .89-.36z" class="cls-6"/><path id="path241" d="M17.94 1013.92a4.13 4.13 0 0 0-1.29-3l-6-5.74a.53.53 0 0 0-.9.35v4.17a4.11 4.11 0 0 0 1.3 3l6 5.74a.52.52 0 0 0 .89-.35z" class="cls-6"/><path id="path242" d="m.9 971.46 6-5.74a4.14 4.14 0 0 0 1.29-3v-.82H8a7.86 7.86 0 0 0-8 7.67v1.52a.53.53 0 0 0 .9.37z" class="cls-6"/><path id="path243" d="M17.94 1045.52a4.1 4.1 0 0 0-1.29-3l-6-5.75a.53.53 0 0 0-.9.36v4.16a4.15 4.15 0 0 0 1.3 3l6 5.74a.53.53 0 0 0 .89-.36z" class="cls-6"/><path id="path244" d="M17.94 1034.84a4.1 4.1 0 0 0-1.29-3l-6-5.74a.53.53 0 0 0-.9.35v4.16a4.14 4.14 0 0 0 1.3 3l6 5.74a.52.52 0 0 0 .89-.35z" class="cls-6"/><path id="path245" d="M17.94 982.74a4.1 4.1 0 0 0-1.29-3l-6-5.75a.53.53 0 0 0-.9.36v4.16a4.14 4.14 0 0 0 1.3 3l6 5.74a.52.52 0 0 0 .89-.35z" class="cls-6"/><path id="path246" d="m.9 981.71 6-5.75a4.1 4.1 0 0 0 1.29-3v-4.16a.53.53 0 0 0-.89-.36l-6 5.74a4.18 4.18 0 0 0-1.29 3v4.16a.53.53 0 0 0 .89.37z" class="cls-6"/><path id="path247" d="M17.94 993a4.1 4.1 0 0 0-1.29-3l-6-5.75a.53.53 0 0 0-.9.36v4.16a4.15 4.15 0 0 0 1.3 3l6 5.74a.53.53 0 0 0 .89-.36z" class="cls-6"/><path id="path248" d="M17.94 961.91h-5.53l4.64 4.42a.52.52 0 0 0 .89-.35z" class="cls-6"/><path id="path249" d="M10.64 1057.72a.53.53 0 0 0-.9.35v4.17a4.11 4.11 0 0 0 1.3 3l6 5.74a.52.52 0 0 0 .89-.35v-4.16a4.13 4.13 0 0 0-1.29-3z" class="cls-6"/><path id="path250" d="M17.94 972.06a4.1 4.1 0 0 0-1.29-3l-6-5.74a.53.53 0 0 0-.9.35v4.16a4.14 4.14 0 0 0 1.3 3l6 5.74a.52.52 0 0 0 .89-.35z" class="cls-6"/><path id="path251" d="M17.94 1024.59a4.1 4.1 0 0 0-1.29-3l-6-5.74a.53.53 0 0 0-.9.35v4.16a4.14 4.14 0 0 0 1.3 3l6 5.74a.52.52 0 0 0 .89-.35z" class="cls-6"/><path id="path252" d="M27.8 1026.47a.52.52 0 0 0-.89-.35l-6 5.74a4.11 4.11 0 0 0-1.3 3v4.14a.53.53 0 0 0 .9.35l6-5.74a4.13 4.13 0 0 0 1.29-3z" class="cls-6"/><path id="path253" d="M27.8 1037.15a.53.53 0 0 0-.89-.36l-6 5.75a4.11 4.11 0 0 0-1.3 3v4.16a.53.53 0 0 0 .9.36l6-5.74a4.14 4.14 0 0 0 1.29-3z" class="cls-6"/><path id="path254" d="M27.8 1016.22a.52.52 0 0 0-.89-.35l-6 5.74a4.11 4.11 0 0 0-1.3 3v4.17a.53.53 0 0 0 .9.35l6-5.74a4.13 4.13 0 0 0 1.29-3z" class="cls-6"/><path id="path255" d="M17.94 1055.77a4.14 4.14 0 0 0-1.29-3l-6-5.74a.53.53 0 0 0-.9.36v4.16a4.11 4.11 0 0 0 1.3 3l6 5.75a.53.53 0 0 0 .89-.36z" class="cls-6"/><path id="path256" d="m26.91 1057.72-6 5.74a4.14 4.14 0 0 0-1.3 3v4.16a.53.53 0 0 0 .9.35l6-5.74a4.1 4.1 0 0 0 1.29-3v-4.17a.52.52 0 0 0-.89-.34z" class="cls-6"/><path id="path257" d="M6.91 1070.35a4.14 4.14 0 0 0 1.29-3v-4.16a.53.53 0 0 0-.89-.36l-6 5.75a4.14 4.14 0 0 0-1.29 3v.47a7.38 7.38 0 0 0 1.09 3.86z" class="cls-6"/><path id="path258" d="M27.8 974.37a.53.53 0 0 0-.89-.36l-6 5.75a4.11 4.11 0 0 0-1.3 3v4.17a.53.53 0 0 0 .9.35l6-5.74a4.13 4.13 0 0 0 1.29-3z" class="cls-6"/><path id="path259" d="M27.8 963.69a.52.52 0 0 0-.89-.35l-6 5.74a4.11 4.11 0 0 0-1.3 3v4.17a.53.53 0 0 0 .9.35l6-5.74a4.13 4.13 0 0 0 1.29-3z" class="cls-6"/><path id="path260" d="M27.8 984.62a.53.53 0 0 0-.89-.36l-6 5.75a4.11 4.11 0 0 0-1.3 3v4.16a.53.53 0 0 0 .9.36l6-5.74a4.14 4.14 0 0 0 1.29-3z" class="cls-6"/><path id="path261" d="M27.8 1005.54a.52.52 0 0 0-.89-.35l-6 5.74a4.14 4.14 0 0 0-1.3 3v4.16a.53.53 0 0 0 .9.35l6-5.74a4.1 4.1 0 0 0 1.29-3z" class="cls-6"/><path id="path262" d="M27.8 995.29a.52.52 0 0 0-.89-.35l-6 5.74a4.14 4.14 0 0 0-1.3 3v4.16a.53.53 0 0 0 .9.36l6-5.75a4.1 4.1 0 0 0 1.29-3z" class="cls-6"/><path id="path263" d="M27.8 1047.4a.53.53 0 0 0-.89-.36l-6 5.74a4.15 4.15 0 0 0-1.3 3v4.16a.53.53 0 0 0 .9.36l6-5.75a4.1 4.1 0 0 0 1.29-3z" class="cls-6"/><path id="path264" d="M30.24 1031.24a.53.53 0 0 0-.9.35v4.17a4.11 4.11 0 0 0 1.3 3l6 5.75a.53.53 0 0 0 .9-.36V1040a4.14 4.14 0 0 0-1.3-3z" class="cls-6"/><path id="path265" d="M19.6 966a.53.53 0 0 0 .9.35l4.63-4.42H19.6Z" class="cls-6"/><path id="path266" d="m.9 992.38 6-5.74a4.1 4.1 0 0 0 1.29-3v-4.17a.52.52 0 0 0-.89-.35l-6 5.74a4.17 4.17 0 0 0-1.29 3V992a.53.53 0 0 0 .89.38z" class="cls-6"/><path id="path267" d="M30.24 1062.84a.53.53 0 0 0-.9.36v4.16a4.15 4.15 0 0 0 1.3 3l5.81 5.55a7.3 7.3 0 0 0 1.1-3.86v-.47a4.11 4.11 0 0 0-1.3-3z" class="cls-6"/><path id="path268" d="M30.24 1010.31a.53.53 0 0 0-.9.36v4.16a4.14 4.14 0 0 0 1.3 3l6 5.74a.53.53 0 0 0 .9-.36V1019a4.11 4.11 0 0 0-1.3-3z" class="cls-6"/><path id="path269" d="M30.24 1052.17a.53.53 0 0 0-.9.35v4.16a4.14 4.14 0 0 0 1.3 3l6 5.74a.53.53 0 0 0 .9-.35v-4.17a4.11 4.11 0 0 0-1.3-3z" class="cls-6"/><path id="path270" d="M30.24 1041.92a.53.53 0 0 0-.9.35v4.16a4.14 4.14 0 0 0 1.3 3l6 5.74a.53.53 0 0 0 .9-.35v-4.16a4.14 4.14 0 0 0-1.3-3z" class="cls-6"/><path id="path271" d="M30.24 968.46a.53.53 0 0 0-.9.36V973a4.11 4.11 0 0 0 1.3 3l6 5.75a.53.53 0 0 0 .9-.36v-4.16a4.15 4.15 0 0 0-1.3-3z" class="cls-6"/><path id="path272" d="M29.51 961.91h-.17v.82a4.15 4.15 0 0 0 1.3 3l6 5.74a.53.53 0 0 0 .9-.36v-1.52a7.86 7.86 0 0 0-8.03-7.68z" class="cls-6"/><path id="path273" d="M30.24 1000.06a.53.53 0 0 0-.9.36v4.16a4.14 4.14 0 0 0 1.3 3l6 5.74a.53.53 0 0 0 .9-.35v-4.17a4.11 4.11 0 0 0-1.3-3z" class="cls-6"/><path id="path274" d="M30.24 979.14a.53.53 0 0 0-.9.35v4.17a4.11 4.11 0 0 0 1.3 3l6 5.74a.53.53 0 0 0 .9-.35v-4.16a4.14 4.14 0 0 0-1.3-3z" class="cls-6"/><path id="path275" d="M30.24 989.39a.53.53 0 0 0-.9.35v4.17a4.13 4.13 0 0 0 1.3 3l6 5.74a.53.53 0 0 0 .9-.35v-4.16a4.14 4.14 0 0 0-1.3-3z" class="cls-6"/><path id="path276" d="M30.24 1021a.53.53 0 0 0-.9.36v4.16a4.11 4.11 0 0 0 1.3 3l6 5.75a.53.53 0 0 0 .9-.36v-4.16a4.15 4.15 0 0 0-1.3-3z" class="cls-6"/><path id="path277" d="m.9 1044.49 6-5.75a4.1 4.1 0 0 0 1.29-3v-4.17a.52.52 0 0 0-.89-.35l-6 5.74A4.17 4.17 0 0 0 0 1040v4.16a.53.53 0 0 0 .9.33z" class="cls-6"/><path id="path278" d="m.9 1034.24 6-5.75a4.1 4.1 0 0 0 1.29-3v-4.16a.52.52 0 0 0-.89-.36l-6 5.74a4.17 4.17 0 0 0-1.29 3v4.16a.53.53 0 0 0 .89.37z" class="cls-6"/><path id="path279" d="m.9 1023.56 6-5.74a4.13 4.13 0 0 0 1.29-3v-4.16a.53.53 0 0 0-.89-.36l-6 5.75A4.14 4.14 0 0 0 0 1019v4.16a.53.53 0 0 0 .9.4z" class="cls-6"/><path id="path280" d="m35 1077.64-4.76-4.55a.53.53 0 0 0-.9.36v4.16a4.14 4.14 0 0 0 .58 2.09 8.17 8.17 0 0 0 5.08-2.06z" class="cls-6"/><path id="path281" d="m.9 1013.31 6-5.74a4.13 4.13 0 0 0 1.29-3v-4.16a.53.53 0 0 0-.89-.36l-6 5.75a4.14 4.14 0 0 0-1.29 3v4.2a.53.53 0 0 0 .89.31z" class="cls-6"/><path id="path282" d="m.9 1002.63 6-5.74a4.12 4.12 0 0 0 1.29-3v-4.17a.52.52 0 0 0-.89-.35l-6 5.74a4.16 4.16 0 0 0-1.29 3v4.17a.53.53 0 0 0 .89.35z" class="cls-6"/><path id="path283" d="M17.94 1076.7a4.13 4.13 0 0 0-1.29-3l-6-5.74a.53.53 0 0 0-.9.35v4.17a4.11 4.11 0 0 0 1.3 3l4.44 4.24h2.46z" class="cls-6"/><path id="path284" d="M26.51 1075.47a4.1 4.1 0 0 0 1.29-3v-4.17a.52.52 0 0 0-.89-.35l-6 5.74a4.14 4.14 0 0 0-1.3 3v3h2.47z" class="cls-6"/><path id="path285" d="m.9 1055.16 6-5.74a4.13 4.13 0 0 0 1.29-3v-4.16a.52.52 0 0 0-.89-.35l-6 5.74a4.16 4.16 0 0 0-1.29 3v4.17a.53.53 0 0 0 .89.34z" class="cls-6"/><path id="path286" d="m.9 1065.41 6-5.74a4.13 4.13 0 0 0 1.29-3v-4.16a.52.52 0 0 0-.89-.35l-6 5.74a4.14 4.14 0 0 0-1.29 3v4.17a.53.53 0 0 0 .89.34z" class="cls-6"/><path id="path287" d="M8.2 1077.61v-4.16a.53.53 0 0 0-.89-.36l-4.76 4.55a8.15 8.15 0 0 0 5.07 2.06 4 4 0 0 0 .58-2.09z" class="cls-6"/></g><g id="Axle2Tire2" transform="matrix(1.65066 0 0 1 -207.958 -631.979)"><rect id="rect383" width="37.55" height="117.81" x="281.69" y="961.91" class="cls-5" rx="7.86"/><rect id="rect384" width="37.55" height="117.81" x="281.69" y="961.91" class="cls-5" rx="7.86"/><path id="path384" d="M299.63 1003.67a4.13 4.13 0 0 0-1.29-3l-6-5.74a.52.52 0 0 0-.89.35v4.17a4.1 4.1 0 0 0 1.29 3l6 5.75a.53.53 0 0 0 .9-.36z" class="cls-6"/><path id="path385" d="M299.63 1013.92a4.13 4.13 0 0 0-1.29-3l-6-5.74a.52.52 0 0 0-.89.35v4.17a4.1 4.1 0 0 0 1.29 3l6 5.74a.53.53 0 0 0 .9-.35z" class="cls-6"/><path id="path386" d="m282.58 971.46 6-5.74a4.18 4.18 0 0 0 1.29-3v-.82h-.16a7.86 7.86 0 0 0-8 7.67v1.52a.53.53 0 0 0 .87.37z" class="cls-6"/><path id="path387" d="M299.63 1045.52a4.1 4.1 0 0 0-1.29-3l-6-5.75a.53.53 0 0 0-.89.36v4.16a4.14 4.14 0 0 0 1.29 3l6 5.74a.53.53 0 0 0 .9-.36z" class="cls-6"/><path id="path388" d="M299.63 1034.84a4.1 4.1 0 0 0-1.29-3l-6-5.74a.52.52 0 0 0-.89.35v4.16a4.13 4.13 0 0 0 1.29 3l6 5.74a.53.53 0 0 0 .9-.35z" class="cls-6"/><path id="path389" d="M299.63 982.74a4.1 4.1 0 0 0-1.29-3l-6-5.75a.53.53 0 0 0-.89.36v4.16a4.13 4.13 0 0 0 1.29 3l6 5.74a.53.53 0 0 0 .9-.35z" class="cls-6"/><path id="path390" d="m282.58 981.71 6-5.75a4.14 4.14 0 0 0 1.29-3v-4.16a.53.53 0 0 0-.9-.36l-6 5.74a4.14 4.14 0 0 0-1.29 3v4.16a.53.53 0 0 0 .9.37z" class="cls-6"/><path id="path391" d="M299.63 993a4.1 4.1 0 0 0-1.29-3l-6-5.75a.53.53 0 0 0-.89.36v4.16a4.14 4.14 0 0 0 1.29 3l6 5.74a.53.53 0 0 0 .9-.36z" class="cls-6"/><path id="path392" d="M299.63 961.91h-5.53l4.63 4.42a.53.53 0 0 0 .9-.35z" class="cls-6"/><path id="path393" d="M292.32 1057.72a.52.52 0 0 0-.89.35v4.17a4.1 4.1 0 0 0 1.29 3l6 5.74a.53.53 0 0 0 .9-.35v-4.16a4.13 4.13 0 0 0-1.29-3z" class="cls-6"/><path id="path394" d="M299.63 972.06a4.1 4.1 0 0 0-1.29-3l-6-5.74a.52.52 0 0 0-.89.35v4.16a4.13 4.13 0 0 0 1.29 3l6 5.74a.53.53 0 0 0 .9-.35z" class="cls-6"/><path id="path395" d="M299.63 1024.59a4.1 4.1 0 0 0-1.29-3l-6-5.74a.52.52 0 0 0-.89.35v4.16a4.13 4.13 0 0 0 1.29 3l6 5.74a.53.53 0 0 0 .9-.35z" class="cls-6"/><path id="path396" d="M309.49 1026.47a.53.53 0 0 0-.9-.35l-6 5.74a4.1 4.1 0 0 0-1.29 3v4.14a.52.52 0 0 0 .89.35l6-5.74a4.13 4.13 0 0 0 1.29-3z" class="cls-6"/><path id="path397" d="M309.49 1037.15a.53.53 0 0 0-.9-.36l-6 5.75a4.1 4.1 0 0 0-1.29 3v4.16a.53.53 0 0 0 .89.36l6-5.74a4.14 4.14 0 0 0 1.29-3z" class="cls-6"/><path id="path398" d="M309.49 1016.22a.53.53 0 0 0-.9-.35l-6 5.74a4.1 4.1 0 0 0-1.29 3v4.17a.52.52 0 0 0 .89.35l6-5.74a4.13 4.13 0 0 0 1.29-3z" class="cls-6"/><path id="path399" d="M299.63 1055.77a4.14 4.14 0 0 0-1.29-3l-6-5.74a.53.53 0 0 0-.89.36v4.16a4.1 4.1 0 0 0 1.29 3l6 5.75a.53.53 0 0 0 .9-.36z" class="cls-6"/><path id="path400" d="m308.59 1057.72-6 5.74a4.13 4.13 0 0 0-1.29 3v4.16a.52.52 0 0 0 .89.35l6-5.74a4.1 4.1 0 0 0 1.29-3v-4.17a.53.53 0 0 0-.89-.34z" class="cls-6"/><path id="path401" d="M288.6 1070.35a4.18 4.18 0 0 0 1.29-3v-4.16a.53.53 0 0 0-.9-.36l-6 5.75a4.1 4.1 0 0 0-1.29 3v.47a7.38 7.38 0 0 0 1.09 3.86z" class="cls-6"/><path id="path402" d="M309.49 974.37a.53.53 0 0 0-.9-.36l-6 5.75a4.1 4.1 0 0 0-1.29 3v4.17a.52.52 0 0 0 .89.35l6-5.74a4.13 4.13 0 0 0 1.29-3z" class="cls-6"/><path id="path403" d="M309.49 963.69a.53.53 0 0 0-.9-.35l-6 5.74a4.1 4.1 0 0 0-1.29 3v4.17a.52.52 0 0 0 .89.35l6-5.74a4.13 4.13 0 0 0 1.29-3z" class="cls-6"/><path id="path404" d="M309.49 984.62a.53.53 0 0 0-.9-.36l-6 5.75a4.1 4.1 0 0 0-1.29 3v4.16a.53.53 0 0 0 .89.36l6-5.74a4.14 4.14 0 0 0 1.29-3z" class="cls-6"/><path id="path405" d="M309.49 1005.54a.53.53 0 0 0-.9-.35l-6 5.74a4.13 4.13 0 0 0-1.29 3v4.16a.52.52 0 0 0 .89.35l6-5.74a4.1 4.1 0 0 0 1.29-3z" class="cls-6"/><path id="path406" d="M309.49 995.29a.53.53 0 0 0-.9-.35l-6 5.74a4.13 4.13 0 0 0-1.29 3v4.16a.53.53 0 0 0 .89.36l6-5.75a4.1 4.1 0 0 0 1.29-3z" class="cls-6"/><path id="path407" d="M309.49 1047.4a.53.53 0 0 0-.9-.36l-6 5.74a4.14 4.14 0 0 0-1.29 3v4.16a.53.53 0 0 0 .89.36l6-5.75a4.1 4.1 0 0 0 1.29-3z" class="cls-6"/><path id="path408" d="M311.92 1031.24a.52.52 0 0 0-.89.35v4.17a4.1 4.1 0 0 0 1.29 3l6 5.75a.53.53 0 0 0 .89-.36V1040a4.13 4.13 0 0 0-1.29-3z" class="cls-6"/><path id="path409" d="M301.29 966a.52.52 0 0 0 .89.35l4.64-4.42h-5.53z" class="cls-6"/><path id="path410" d="m282.58 992.38 6-5.74a4.14 4.14 0 0 0 1.29-3v-4.17a.53.53 0 0 0-.9-.35l-6 5.74a4.13 4.13 0 0 0-1.29 3V992a.52.52 0 0 0 .9.38z" class="cls-6"/><path id="path411" d="M311.92 1062.84a.53.53 0 0 0-.89.36v4.16a4.14 4.14 0 0 0 1.29 3l5.82 5.55a7.38 7.38 0 0 0 1.09-3.86v-.47a4.1 4.1 0 0 0-1.29-3z" class="cls-6"/><path id="path412" d="M311.92 1010.31a.53.53 0 0 0-.89.36v4.16a4.13 4.13 0 0 0 1.29 3l6 5.74a.52.52 0 0 0 .89-.36V1019a4.1 4.1 0 0 0-1.29-3z" class="cls-6"/><path id="path413" d="M311.92 1052.17a.52.52 0 0 0-.89.35v4.16a4.13 4.13 0 0 0 1.29 3l6 5.74a.52.52 0 0 0 .89-.35v-4.17a4.1 4.1 0 0 0-1.29-3z" class="cls-6"/><path id="path414" d="M311.92 1041.92a.52.52 0 0 0-.89.35v4.16a4.13 4.13 0 0 0 1.29 3l6 5.74a.52.52 0 0 0 .89-.35v-4.16a4.13 4.13 0 0 0-1.29-3z" class="cls-6"/><path id="path415" d="M311.92 968.46a.53.53 0 0 0-.89.36V973a4.1 4.1 0 0 0 1.29 3l6 5.75a.53.53 0 0 0 .89-.36v-4.16a4.14 4.14 0 0 0-1.29-3z" class="cls-6"/><path id="path416" d="M311.19 961.91H311v.82a4.14 4.14 0 0 0 1.29 3l6 5.74a.53.53 0 0 0 .89-.36v-1.52a7.86 7.86 0 0 0-7.99-7.68z" class="cls-6"/><path id="path417" d="M311.92 1000.06a.53.53 0 0 0-.89.36v4.16a4.13 4.13 0 0 0 1.29 3l6 5.74a.52.52 0 0 0 .89-.35v-4.17a4.1 4.1 0 0 0-1.29-3z" class="cls-6"/><path id="path418" d="M311.92 979.14a.52.52 0 0 0-.89.35v4.17a4.1 4.1 0 0 0 1.29 3l6 5.74a.52.52 0 0 0 .89-.35v-4.16a4.13 4.13 0 0 0-1.29-3z" class="cls-6"/><path id="path419" d="M311.92 989.39a.52.52 0 0 0-.89.35v4.17a4.12 4.12 0 0 0 1.29 3l6 5.74a.52.52 0 0 0 .89-.35v-4.16a4.13 4.13 0 0 0-1.29-3z" class="cls-6"/><path id="path420" d="M311.92 1021a.52.52 0 0 0-.89.36v4.16a4.1 4.1 0 0 0 1.29 3l6 5.75a.53.53 0 0 0 .89-.36v-4.16a4.14 4.14 0 0 0-1.29-3z" class="cls-6"/><path id="path421" d="m282.58 1044.49 6-5.75a4.14 4.14 0 0 0 1.29-3v-4.17a.53.53 0 0 0-.9-.35L283 1037a4.13 4.13 0 0 0-1.29 3v4.16a.53.53 0 0 0 .87.33z" class="cls-6"/><path id="path422" d="m282.58 1034.24 6-5.75a4.14 4.14 0 0 0 1.29-3v-4.16a.53.53 0 0 0-.9-.36l-6 5.74a4.13 4.13 0 0 0-1.29 3v4.16a.53.53 0 0 0 .9.37z" class="cls-6"/><path id="path423" d="m282.58 1023.56 6-5.74a4.17 4.17 0 0 0 1.29-3v-4.16a.53.53 0 0 0-.9-.36l-6 5.75a4.1 4.1 0 0 0-1.29 3v4.16a.52.52 0 0 0 .9.35z" class="cls-6"/><path id="path424" d="m316.69 1077.64-4.77-4.55a.53.53 0 0 0-.89.36v4.16a4 4 0 0 0 .58 2.09 8.2 8.2 0 0 0 5.08-2.06z" class="cls-6"/><path id="path425" d="m282.58 1013.31 6-5.74a4.17 4.17 0 0 0 1.29-3v-4.16a.53.53 0 0 0-.9-.36l-6 5.75a4.1 4.1 0 0 0-1.29 3v4.2a.52.52 0 0 0 .9.31z" class="cls-6"/><path id="path426" d="m282.58 1002.63 6-5.74a4.16 4.16 0 0 0 1.29-3v-4.17a.53.53 0 0 0-.9-.35l-6 5.74a4.12 4.12 0 0 0-1.29 3v4.17a.52.52 0 0 0 .9.35z" class="cls-6"/><path id="path427" d="M299.63 1076.7a4.13 4.13 0 0 0-1.29-3l-6-5.74a.52.52 0 0 0-.89.35v4.17a4.1 4.1 0 0 0 1.29 3l4.45 4.24h2.46z" class="cls-6"/><path id="path428" d="M308.2 1075.47a4.1 4.1 0 0 0 1.29-3v-4.17a.53.53 0 0 0-.9-.35l-6 5.74a4.13 4.13 0 0 0-1.29 3v3h2.46z" class="cls-6"/><path id="path429" d="m282.58 1055.16 6-5.74a4.17 4.17 0 0 0 1.29-3v-4.16a.53.53 0 0 0-.9-.35l-6 5.74a4.12 4.12 0 0 0-1.29 3v4.17a.52.52 0 0 0 .9.34z" class="cls-6"/><path id="path430" d="m282.58 1065.41 6-5.74a4.17 4.17 0 0 0 1.29-3v-4.16a.53.53 0 0 0-.9-.35l-6 5.74a4.1 4.1 0 0 0-1.29 3v4.17a.52.52 0 0 0 .9.34z" class="cls-6"/><path id="path431" d="M289.89 1077.61v-4.16a.53.53 0 0 0-.9-.36l-4.76 4.55a8.17 8.17 0 0 0 5.08 2.06 4 4 0 0 0 .58-2.09z" class="cls-6"/></g><path id="path433" d="M95.83 373.021h15.47v41.85H95.83a6.3 6.3 0 0 1-6.3-6.3v-29.21a6.3 6.3 0 0 1 6.3-6.34z" class="cls-2"/><path id="path434" d="M223.38 414.951h-15.47v-41.85h15.47a6.3 6.3 0 0 1 6.3 6.3v29.21a6.3 6.3 0 0 1-6.3 6.3z" class="cls-2"/><path id="rect238-9" d="M14.77 254.911h286.52v10.65H14.77Z" class="cls-2" style="fill:#9d9fa2;stroke:#333132;stroke-width:.82px;stroke-miterlimit:10"/><path id="path239-6" d="m192 250.781-8.88-4.27a4.38 4.38 0 0 0-1.88-.43h-46.46a4.31 4.31 0 0 0-1.87.43l-8.91 4.27a4.38 4.38 0 0 1-1.88.43H122a4.32 4.32 0 0 0-4.32 4.32v9.42a4.33 4.33 0 0 0 4.32 4.32h.15a4.37 4.37 0 0 1 1.88.42l8.88 4.28a4.3 4.3 0 0 0 1.87.42h46.49a4.37 4.37 0 0 0 1.88-.42l8.88-4.28a4.3 4.3 0 0 1 1.87-.42h.15a4.32 4.32 0 0 0 4.32-4.32v-9.42a4.31 4.31 0 0 0-4.32-4.32h-.15a4.31 4.31 0 0 1-1.9-.43z" class="cls-2" style="fill:#9d9fa2;stroke:#333132;stroke-width:.82px;stroke-miterlimit:10"/><g id="Axle1Tire1" transform="matrix(1.65111 0 0 1 0 -631.979)"><rect id="rect239-5" width="37.55" height="117.81" x="0" y="828.16" class="cls-5" rx="7.86" style="fill:#403e3e"/><rect id="rect240-5" width="37.55" height="117.81" x="0" y="828.16" class="cls-5" rx="7.86" style="fill:#403e3e"/><path id="path240-4" d="M17.94 869.92a4.13 4.13 0 0 0-1.29-3l-6-5.74a.53.53 0 0 0-.9.35v4.17a4.11 4.11 0 0 0 1.3 3l6 5.75a.53.53 0 0 0 .89-.36z" class="cls-6" style="fill:#333132"/><path id="path241-9" d="M17.94 880.17a4.13 4.13 0 0 0-1.29-3l-6-5.74a.53.53 0 0 0-.9.35v4.17a4.11 4.11 0 0 0 1.3 3l6 5.74a.52.52 0 0 0 .89-.35z" class="cls-6" style="fill:#333132"/><path id="path242-2" d="m.9 837.71 6-5.74a4.14 4.14 0 0 0 1.29-3v-.82H8a7.86 7.86 0 0 0-8 7.67v1.52a.53.53 0 0 0 .9.37z" class="cls-6" style="fill:#333132"/><path id="path243-2" d="M17.94 911.77a4.1 4.1 0 0 0-1.29-3l-6-5.75a.53.53 0 0 0-.9.36v4.16a4.15 4.15 0 0 0 1.3 3l6 5.74a.53.53 0 0 0 .89-.36z" class="cls-6" style="fill:#333132"/><path id="path244-4" d="M17.94 901.09a4.1 4.1 0 0 0-1.29-3l-6-5.74a.53.53 0 0 0-.9.35v4.16a4.14 4.14 0 0 0 1.3 3l6 5.74a.52.52 0 0 0 .89-.35z" class="cls-6" style="fill:#333132"/><path id="path245-9" d="M17.94 848.99a4.1 4.1 0 0 0-1.29-3l-6-5.75a.53.53 0 0 0-.9.36v4.16a4.14 4.14 0 0 0 1.3 3l6 5.74a.52.52 0 0 0 .89-.35z" class="cls-6" style="fill:#333132"/><path id="path246-4" d="m.9 847.96 6-5.75a4.1 4.1 0 0 0 1.29-3v-4.16a.53.53 0 0 0-.89-.36l-6 5.74a4.18 4.18 0 0 0-1.29 3v4.16a.53.53 0 0 0 .89.37z" class="cls-6" style="fill:#333132"/><path id="path247-2" d="M17.94 859.25a4.1 4.1 0 0 0-1.29-3l-6-5.75a.53.53 0 0 0-.9.36v4.16a4.15 4.15 0 0 0 1.3 3l6 5.74a.53.53 0 0 0 .89-.36z" class="cls-6" style="fill:#333132"/><path id="path248-1" d="M17.94 828.16h-5.53l4.64 4.42a.52.52 0 0 0 .89-.35z" class="cls-6" style="fill:#333132"/><path id="path249-6" d="M10.64 923.97a.53.53 0 0 0-.9.35v4.17a4.11 4.11 0 0 0 1.3 3l6 5.74a.52.52 0 0 0 .89-.35v-4.16a4.13 4.13 0 0 0-1.29-3z" class="cls-6" style="fill:#333132"/><path id="path250-3" d="M17.94 838.31a4.1 4.1 0 0 0-1.29-3l-6-5.74a.53.53 0 0 0-.9.35v4.16a4.14 4.14 0 0 0 1.3 3l6 5.74a.52.52 0 0 0 .89-.35z" class="cls-6" style="fill:#333132"/><path id="path251-7" d="M17.94 890.84a4.1 4.1 0 0 0-1.29-3l-6-5.74a.53.53 0 0 0-.9.35v4.16a4.14 4.14 0 0 0 1.3 3l6 5.74a.52.52 0 0 0 .89-.35Z" class="cls-6" style="fill:#333132"/><path id="path252-8" d="M27.8 892.72a.52.52 0 0 0-.89-.35l-6 5.74a4.11 4.11 0 0 0-1.3 3v4.14a.53.53 0 0 0 .9.35l6-5.74a4.13 4.13 0 0 0 1.29-3z" class="cls-6" style="fill:#333132"/><path id="path253-2" d="M27.8 903.4a.53.53 0 0 0-.89-.36l-6 5.75a4.11 4.11 0 0 0-1.3 3v4.16a.53.53 0 0 0 .9.36l6-5.74a4.14 4.14 0 0 0 1.29-3z" class="cls-6" style="fill:#333132"/><path id="path254-3" d="M27.8 882.47a.52.52 0 0 0-.89-.35l-6 5.74a4.11 4.11 0 0 0-1.3 3v4.17a.53.53 0 0 0 .9.35l6-5.74a4.13 4.13 0 0 0 1.29-3z" class="cls-6" style="fill:#333132"/><path id="path255-9" d="M17.94 922.02a4.14 4.14 0 0 0-1.29-3l-6-5.74a.53.53 0 0 0-.9.36v4.16a4.11 4.11 0 0 0 1.3 3l6 5.75a.53.53 0 0 0 .89-.36z" class="cls-6" style="fill:#333132"/><path id="path256-0" d="m26.91 923.97-6 5.74a4.14 4.14 0 0 0-1.3 3v4.16a.53.53 0 0 0 .9.35l6-5.74a4.1 4.1 0 0 0 1.29-3v-4.17a.52.52 0 0 0-.89-.34z" class="cls-6" style="fill:#333132"/><path id="path257-4" d="M6.91 936.6a4.14 4.14 0 0 0 1.29-3v-4.16a.53.53 0 0 0-.89-.36l-6 5.75a4.14 4.14 0 0 0-1.29 3v.47a7.38 7.38 0 0 0 1.09 3.86z" class="cls-6" style="fill:#333132"/><path id="path258-8" d="M27.8 840.62a.53.53 0 0 0-.89-.36l-6 5.75a4.11 4.11 0 0 0-1.3 3v4.17a.53.53 0 0 0 .9.35l6-5.74a4.13 4.13 0 0 0 1.29-3z" class="cls-6" style="fill:#333132"/><path id="path259-4" d="M27.8 829.94a.52.52 0 0 0-.89-.35l-6 5.74a4.11 4.11 0 0 0-1.3 3v4.17a.53.53 0 0 0 .9.35l6-5.74a4.13 4.13 0 0 0 1.29-3z" class="cls-6" style="fill:#333132"/><path id="path260-4" d="M27.8 850.87a.53.53 0 0 0-.89-.36l-6 5.75a4.11 4.11 0 0 0-1.3 3v4.16a.53.53 0 0 0 .9.36l6-5.74a4.14 4.14 0 0 0 1.29-3z" class="cls-6" style="fill:#333132"/><path id="path261-3" d="M27.8 871.79a.52.52 0 0 0-.89-.35l-6 5.74a4.14 4.14 0 0 0-1.3 3v4.16a.53.53 0 0 0 .9.35l6-5.74a4.1 4.1 0 0 0 1.29-3z" class="cls-6" style="fill:#333132"/><path id="path262-4" d="M27.8 861.54a.52.52 0 0 0-.89-.35l-6 5.74a4.14 4.14 0 0 0-1.3 3v4.16a.53.53 0 0 0 .9.36l6-5.75a4.1 4.1 0 0 0 1.29-3z" class="cls-6" style="fill:#333132"/><path id="path263-7" d="M27.8 913.65a.53.53 0 0 0-.89-.36l-6 5.74a4.15 4.15 0 0 0-1.3 3v4.16a.53.53 0 0 0 .9.36l6-5.75a4.1 4.1 0 0 0 1.29-3z" class="cls-6" style="fill:#333132"/><path id="path264-2" d="M30.24 897.49a.53.53 0 0 0-.9.35v4.17a4.11 4.11 0 0 0 1.3 3l6 5.75a.53.53 0 0 0 .9-.36v-4.15a4.14 4.14 0 0 0-1.3-3z" class="cls-6" style="fill:#333132"/><path id="path265-4" d="M19.6 832.25a.53.53 0 0 0 .9.35l4.63-4.42H19.6Z" class="cls-6" style="fill:#333132"/><path id="path266-2" d="m.9 858.63 6-5.74a4.1 4.1 0 0 0 1.29-3v-4.17a.52.52 0 0 0-.89-.35l-6 5.74a4.17 4.17 0 0 0-1.29 3v4.14a.53.53 0 0 0 .89.38z" class="cls-6" style="fill:#333132"/><path id="path267-2" d="M30.24 929.09a.53.53 0 0 0-.9.36v4.16a4.15 4.15 0 0 0 1.3 3l5.81 5.55a7.3 7.3 0 0 0 1.1-3.86v-.47a4.11 4.11 0 0 0-1.3-3z" class="cls-6" style="fill:#333132"/><path id="path268-5" d="M30.24 876.56a.53.53 0 0 0-.9.36v4.16a4.14 4.14 0 0 0 1.3 3l6 5.74a.53.53 0 0 0 .9-.36v-4.21a4.11 4.11 0 0 0-1.3-3z" class="cls-6" style="fill:#333132"/><path id="path269-3" d="M30.24 918.42a.53.53 0 0 0-.9.35v4.16a4.14 4.14 0 0 0 1.3 3l6 5.74a.53.53 0 0 0 .9-.35v-4.17a4.11 4.11 0 0 0-1.3-3z" class="cls-6" style="fill:#333132"/><path id="path270-2" d="M30.24 908.17a.53.53 0 0 0-.9.35v4.16a4.14 4.14 0 0 0 1.3 3l6 5.74a.53.53 0 0 0 .9-.35v-4.16a4.14 4.14 0 0 0-1.3-3z" class="cls-6" style="fill:#333132"/><path id="path271-8" d="M30.24 834.71a.53.53 0 0 0-.9.36v4.18a4.11 4.11 0 0 0 1.3 3l6 5.75a.53.53 0 0 0 .9-.36v-4.16a4.15 4.15 0 0 0-1.3-3z" class="cls-6" style="fill:#333132"/><path id="path272-0" d="M29.51 828.16h-.17v.82a4.15 4.15 0 0 0 1.3 3l6 5.74a.53.53 0 0 0 .9-.36v-1.52a7.86 7.86 0 0 0-8.03-7.68z" class="cls-6" style="fill:#333132"/><path id="path273-7" d="M30.24 866.31a.53.53 0 0 0-.9.36v4.16a4.14 4.14 0 0 0 1.3 3l6 5.74a.53.53 0 0 0 .9-.35v-4.17a4.11 4.11 0 0 0-1.3-3z" class="cls-6" style="fill:#333132"/><path id="path274-8" d="M30.24 845.39a.53.53 0 0 0-.9.35v4.17a4.11 4.11 0 0 0 1.3 3l6 5.74a.53.53 0 0 0 .9-.35v-4.16a4.14 4.14 0 0 0-1.3-3z" class="cls-6" style="fill:#333132"/><path id="path275-6" d="M30.24 855.64a.53.53 0 0 0-.9.35v4.17a4.13 4.13 0 0 0 1.3 3l6 5.74a.53.53 0 0 0 .9-.35v-4.16a4.14 4.14 0 0 0-1.3-3z" class="cls-6" style="fill:#333132"/><path id="path276-6" d="M30.24 887.25a.53.53 0 0 0-.9.36v4.16a4.11 4.11 0 0 0 1.3 3l6 5.75a.53.53 0 0 0 .9-.36V896a4.15 4.15 0 0 0-1.3-3z" class="cls-6" style="fill:#333132"/><path id="path277-5" d="m.9 910.74 6-5.75a4.1 4.1 0 0 0 1.29-3v-4.17a.52.52 0 0 0-.89-.35l-6 5.74a4.17 4.17 0 0 0-1.3 3.04v4.16a.53.53 0 0 0 .9.33z" class="cls-6" style="fill:#333132"/><path id="path278-4" d="m.9 900.49 6-5.75a4.1 4.1 0 0 0 1.29-3v-4.16a.52.52 0 0 0-.89-.36l-6 5.74a4.17 4.17 0 0 0-1.29 3v4.16a.53.53 0 0 0 .89.37z" class="cls-6" style="fill:#333132"/><path id="path279-5" d="m.9 889.81 6-5.74a4.13 4.13 0 0 0 1.29-3v-4.16a.53.53 0 0 0-.89-.36l-6 5.75a4.14 4.14 0 0 0-1.3 2.95v4.16a.53.53 0 0 0 .9.4z" class="cls-6" style="fill:#333132"/><path id="path280-2" d="m35 943.89-4.76-4.55a.53.53 0 0 0-.9.36v4.16a4.14 4.14 0 0 0 .58 2.09 8.17 8.17 0 0 0 5.08-2.06z" class="cls-6" style="fill:#333132"/><path id="path281-6" d="m.9 879.56 6-5.74a4.13 4.13 0 0 0 1.29-3v-4.16a.53.53 0 0 0-.89-.36l-6 5.75a4.14 4.14 0 0 0-1.29 3v4.2a.53.53 0 0 0 .89.31z" class="cls-6" style="fill:#333132"/><path id="path282-4" d="m.9 868.88 6-5.74a4.12 4.12 0 0 0 1.29-3v-4.17a.52.52 0 0 0-.89-.35l-6 5.74a4.16 4.16 0 0 0-1.29 3v4.17a.53.53 0 0 0 .89.35z" class="cls-6" style="fill:#333132"/><path id="path283-0" d="M17.94 942.95a4.13 4.13 0 0 0-1.29-3l-6-5.74a.53.53 0 0 0-.9.35v4.17a4.11 4.11 0 0 0 1.3 3l4.44 4.24h2.46z" class="cls-6" style="fill:#333132"/><path id="path284-0" d="M26.51 941.72a4.1 4.1 0 0 0 1.29-3v-4.17a.52.52 0 0 0-.89-.35l-6 5.74a4.14 4.14 0 0 0-1.3 3v3h2.47z" class="cls-6" style="fill:#333132"/><path id="path285-6" d="m.9 921.41 6-5.74a4.13 4.13 0 0 0 1.29-3v-4.16a.52.52 0 0 0-.89-.35l-6 5.74a4.16 4.16 0 0 0-1.29 3v4.17a.53.53 0 0 0 .89.34z" class="cls-6" style="fill:#333132"/><path id="path286-4" d="m.9 931.66 6-5.74a4.13 4.13 0 0 0 1.29-3v-4.16a.52.52 0 0 0-.89-.35l-6 5.74a4.14 4.14 0 0 0-1.29 3v4.17a.53.53 0 0 0 .89.34z" class="cls-6" style="fill:#333132"/><path id="path287-4" d="M8.2 943.86v-4.16a.53.53 0 0 0-.89-.36l-4.76 4.55a8.15 8.15 0 0 0 5.07 2.06 4 4 0 0 0 .58-2.09z" class="cls-6" style="fill:#333132"/></g><g id="Axle1Tire2" transform="matrix(1.65066 0 0 1 -207.958 -631.979)"><rect id="rect383-6" width="37.55" height="117.81" x="281.69" y="828.16" class="cls-5" rx="7.86" style="fill:#403e3e"/><rect id="rect384-8" width="37.55" height="117.81" x="281.69" y="828.16" class="cls-5" rx="7.86" style="fill:#403e3e"/><path id="path384-0" d="M299.63 869.92a4.13 4.13 0 0 0-1.29-3l-6-5.74a.52.52 0 0 0-.89.35v4.17a4.1 4.1 0 0 0 1.29 3l6 5.75a.53.53 0 0 0 .9-.36z" class="cls-6" style="fill:#333132"/><path id="path385-8" d="M299.63 880.17a4.13 4.13 0 0 0-1.29-3l-6-5.74a.52.52 0 0 0-.89.35v4.17a4.1 4.1 0 0 0 1.29 3l6 5.74a.53.53 0 0 0 .9-.35z" class="cls-6" style="fill:#333132"/><path id="path386-5" d="m282.58 837.71 6-5.74a4.18 4.18 0 0 0 1.29-3v-.82h-.16a7.86 7.86 0 0 0-8 7.67v1.52a.53.53 0 0 0 .87.37z" class="cls-6" style="fill:#333132"/><path id="path387-3" d="M299.63 911.77a4.1 4.1 0 0 0-1.29-3l-6-5.75a.53.53 0 0 0-.89.36v4.16a4.14 4.14 0 0 0 1.29 3l6 5.74a.53.53 0 0 0 .9-.36z" class="cls-6" style="fill:#333132"/><path id="path388-5" d="M299.63 901.09a4.1 4.1 0 0 0-1.29-3l-6-5.74a.52.52 0 0 0-.89.35v4.16a4.13 4.13 0 0 0 1.29 3l6 5.74a.53.53 0 0 0 .9-.35z" class="cls-6" style="fill:#333132"/><path id="path389-5" d="M299.63 848.99a4.1 4.1 0 0 0-1.29-3l-6-5.75a.53.53 0 0 0-.89.36v4.16a4.13 4.13 0 0 0 1.29 3l6 5.74a.53.53 0 0 0 .9-.35z" class="cls-6" style="fill:#333132"/><path id="path390-9" d="m282.58 847.96 6-5.75a4.14 4.14 0 0 0 1.29-3v-4.16a.53.53 0 0 0-.9-.36l-6 5.74a4.14 4.14 0 0 0-1.29 3v4.16a.53.53 0 0 0 .9.37z" class="cls-6" style="fill:#333132"/><path id="path391-5" d="M299.63 859.25a4.1 4.1 0 0 0-1.29-3l-6-5.75a.53.53 0 0 0-.89.36v4.16a4.14 4.14 0 0 0 1.29 3l6 5.74a.53.53 0 0 0 .9-.36z" class="cls-6" style="fill:#333132"/><path id="path392-6" d="M299.63 828.16h-5.53l4.63 4.42a.53.53 0 0 0 .9-.35z" class="cls-6" style="fill:#333132"/><path id="path393-8" d="M292.32 923.97a.52.52 0 0 0-.89.35v4.17a4.1 4.1 0 0 0 1.29 3l6 5.74a.53.53 0 0 0 .9-.35v-4.16a4.13 4.13 0 0 0-1.29-3z" class="cls-6" style="fill:#333132"/><path id="path394-1" d="M299.63 838.31a4.1 4.1 0 0 0-1.29-3l-6-5.74a.52.52 0 0 0-.89.35v4.16a4.13 4.13 0 0 0 1.29 3l6 5.74a.53.53 0 0 0 .9-.35z" class="cls-6" style="fill:#333132"/><path id="path395-0" d="M299.63 890.84a4.1 4.1 0 0 0-1.29-3l-6-5.74a.52.52 0 0 0-.89.35v4.16a4.13 4.13 0 0 0 1.29 3l6 5.74a.53.53 0 0 0 .9-.35z" class="cls-6" style="fill:#333132"/><path id="path396-9" d="M309.49 892.72a.53.53 0 0 0-.9-.35l-6 5.74a4.1 4.1 0 0 0-1.29 3v4.14a.52.52 0 0 0 .89.35l6-5.74a4.13 4.13 0 0 0 1.29-3z" class="cls-6" style="fill:#333132"/><path id="path397-8" d="M309.49 903.4a.53.53 0 0 0-.9-.36l-6 5.75a4.1 4.1 0 0 0-1.29 3v4.16a.53.53 0 0 0 .89.36l6-5.74a4.14 4.14 0 0 0 1.29-3z" class="cls-6" style="fill:#333132"/><path id="path398-6" d="M309.49 882.47a.53.53 0 0 0-.9-.35l-6 5.74a4.1 4.1 0 0 0-1.29 3v4.17a.52.52 0 0 0 .89.35l6-5.74a4.13 4.13 0 0 0 1.29-3z" class="cls-6" style="fill:#333132"/><path id="path399-2" d="M299.63 922.02a4.14 4.14 0 0 0-1.29-3l-6-5.74a.53.53 0 0 0-.89.36v4.16a4.1 4.1 0 0 0 1.29 3l6 5.75a.53.53 0 0 0 .9-.36z" class="cls-6" style="fill:#333132"/><path id="path400-1" d="m308.59 923.97-6 5.74a4.13 4.13 0 0 0-1.29 3v4.16a.52.52 0 0 0 .89.35l6-5.74a4.1 4.1 0 0 0 1.29-3v-4.17a.53.53 0 0 0-.89-.34z" class="cls-6" style="fill:#333132"/><path id="path401-4" d="M288.6 936.6a4.18 4.18 0 0 0 1.29-3v-4.16a.53.53 0 0 0-.9-.36l-6 5.75a4.1 4.1 0 0 0-1.29 3v.47a7.38 7.38 0 0 0 1.09 3.86z" class="cls-6" style="fill:#333132"/><path id="path402-7" d="M309.49 840.62a.53.53 0 0 0-.9-.36l-6 5.75a4.1 4.1 0 0 0-1.29 3v4.17a.52.52 0 0 0 .89.35l6-5.74a4.13 4.13 0 0 0 1.29-3z" class="cls-6" style="fill:#333132"/><path id="path403-9" d="M309.49 829.94a.53.53 0 0 0-.9-.35l-6 5.74a4.1 4.1 0 0 0-1.29 3v4.17a.52.52 0 0 0 .89.35l6-5.74a4.13 4.13 0 0 0 1.29-3z" class="cls-6" style="fill:#333132"/><path id="path404-2" d="M309.49 850.87a.53.53 0 0 0-.9-.36l-6 5.75a4.1 4.1 0 0 0-1.29 3v4.16a.53.53 0 0 0 .89.36l6-5.74a4.14 4.14 0 0 0 1.29-3z" class="cls-6" style="fill:#333132"/><path id="path405-6" d="M309.49 871.79a.53.53 0 0 0-.9-.35l-6 5.74a4.13 4.13 0 0 0-1.29 3v4.16a.52.52 0 0 0 .89.35l6-5.74a4.1 4.1 0 0 0 1.29-3z" class="cls-6" style="fill:#333132"/><path id="path406-5" d="M309.49 861.54a.53.53 0 0 0-.9-.35l-6 5.74a4.13 4.13 0 0 0-1.29 3v4.16a.53.53 0 0 0 .89.36l6-5.75a4.1 4.1 0 0 0 1.29-3z" class="cls-6" style="fill:#333132"/><path id="path407-8" d="M309.49 913.65a.53.53 0 0 0-.9-.36l-6 5.74a4.14 4.14 0 0 0-1.29 3v4.16a.53.53 0 0 0 .89.36l6-5.75a4.1 4.1 0 0 0 1.29-3z" class="cls-6" style="fill:#333132"/><path id="path408-7" d="M311.92 897.49a.52.52 0 0 0-.89.35v4.17a4.1 4.1 0 0 0 1.29 3l6 5.75a.53.53 0 0 0 .89-.36v-4.15a4.13 4.13 0 0 0-1.29-3z" class="cls-6" style="fill:#333132"/><path id="path409-8" d="M301.29 832.25a.52.52 0 0 0 .89.35l4.64-4.42h-5.53z" class="cls-6" style="fill:#333132"/><path id="path410-5" d="m282.58 858.63 6-5.74a4.14 4.14 0 0 0 1.29-3v-4.17a.53.53 0 0 0-.9-.35l-6 5.74a4.13 4.13 0 0 0-1.29 3v4.14a.52.52 0 0 0 .9.38z" class="cls-6" style="fill:#333132"/><path id="path411-7" d="M311.92 929.09a.53.53 0 0 0-.89.36v4.16a4.14 4.14 0 0 0 1.29 3l5.82 5.55a7.38 7.38 0 0 0 1.09-3.86v-.47a4.1 4.1 0 0 0-1.29-3z" class="cls-6" style="fill:#333132"/><path id="path412-8" d="M311.92 876.56a.53.53 0 0 0-.89.36v4.16a4.13 4.13 0 0 0 1.29 3l6 5.74a.52.52 0 0 0 .89-.36v-4.21a4.1 4.1 0 0 0-1.29-3z" class="cls-6" style="fill:#333132"/><path id="path413-2" d="M311.92 918.42a.52.52 0 0 0-.89.35v4.16a4.13 4.13 0 0 0 1.29 3l6 5.74a.52.52 0 0 0 .89-.35v-4.17a4.1 4.1 0 0 0-1.29-3z" class="cls-6" style="fill:#333132"/><path id="path414-4" d="M311.92 908.17a.52.52 0 0 0-.89.35v4.16a4.13 4.13 0 0 0 1.29 3l6 5.74a.52.52 0 0 0 .89-.35v-4.16a4.13 4.13 0 0 0-1.29-3z" class="cls-6" style="fill:#333132"/><path id="path415-9" d="M311.92 834.71a.53.53 0 0 0-.89.36v4.18a4.1 4.1 0 0 0 1.29 3l6 5.75a.53.53 0 0 0 .89-.36v-4.16a4.14 4.14 0 0 0-1.29-3z" class="cls-6" style="fill:#333132"/><path id="path416-3" d="M311.19 828.16H311v.82a4.14 4.14 0 0 0 1.29 3l6 5.74a.53.53 0 0 0 .89-.36v-1.52a7.86 7.86 0 0 0-7.99-7.68z" class="cls-6" style="fill:#333132"/><path id="path417-2" d="M311.92 866.31a.53.53 0 0 0-.89.36v4.16a4.13 4.13 0 0 0 1.29 3l6 5.74a.52.52 0 0 0 .89-.35v-4.17a4.1 4.1 0 0 0-1.29-3z" class="cls-6" style="fill:#333132"/><path id="path418-6" d="M311.92 845.39a.52.52 0 0 0-.89.35v4.17a4.1 4.1 0 0 0 1.29 3l6 5.74a.52.52 0 0 0 .89-.35v-4.16a4.13 4.13 0 0 0-1.29-3z" class="cls-6" style="fill:#333132"/><path id="path419-4" d="M311.92 855.64a.52.52 0 0 0-.89.35v4.17a4.12 4.12 0 0 0 1.29 3l6 5.74a.52.52 0 0 0 .89-.35v-4.16a4.13 4.13 0 0 0-1.29-3z" class="cls-6" style="fill:#333132"/><path id="path420-4" d="M311.92 887.25a.52.52 0 0 0-.89.36v4.16a4.1 4.1 0 0 0 1.29 3l6 5.75a.53.53 0 0 0 .89-.36V896a4.14 4.14 0 0 0-1.29-3z" class="cls-6" style="fill:#333132"/><path id="path421-6" d="m282.58 910.74 6-5.75a4.14 4.14 0 0 0 1.29-3v-4.17a.53.53 0 0 0-.9-.35l-5.97 5.78a4.13 4.13 0 0 0-1.29 3v4.16a.53.53 0 0 0 .87.33z" class="cls-6" style="fill:#333132"/><path id="path422-0" d="m282.58 900.49 6-5.75a4.14 4.14 0 0 0 1.29-3v-4.16a.53.53 0 0 0-.9-.36l-6 5.74a4.13 4.13 0 0 0-1.29 3v4.16a.53.53 0 0 0 .9.37z" class="cls-6" style="fill:#333132"/><path id="path423-3" d="m282.58 889.81 6-5.74a4.17 4.17 0 0 0 1.29-3v-4.16a.53.53 0 0 0-.9-.36l-6 5.75a4.1 4.1 0 0 0-1.29 3v4.16a.52.52 0 0 0 .9.35z" class="cls-6" style="fill:#333132"/><path id="path424-1" d="m316.69 943.89-4.77-4.55a.53.53 0 0 0-.89.36v4.16a4 4 0 0 0 .58 2.09 8.2 8.2 0 0 0 5.08-2.06z" class="cls-6" style="fill:#333132"/><path id="path425-1" d="m282.58 879.56 6-5.74a4.17 4.17 0 0 0 1.29-3v-4.16a.53.53 0 0 0-.9-.36l-6 5.75a4.1 4.1 0 0 0-1.29 3v4.2a.52.52 0 0 0 .9.31z" class="cls-6" style="fill:#333132"/><path id="path426-4" d="m282.58 868.88 6-5.74a4.16 4.16 0 0 0 1.29-3v-4.17a.53.53 0 0 0-.9-.35l-6 5.74a4.12 4.12 0 0 0-1.29 3v4.17a.52.52 0 0 0 .9.35z" class="cls-6" style="fill:#333132"/><path id="path427-2" d="M299.63 942.95a4.13 4.13 0 0 0-1.29-3l-6-5.74a.52.52 0 0 0-.89.35v4.17a4.1 4.1 0 0 0 1.29 3l4.45 4.24h2.46z" class="cls-6" style="fill:#333132"/><path id="path428-0" d="M308.2 941.72a4.1 4.1 0 0 0 1.29-3v-4.17a.53.53 0 0 0-.9-.35l-6 5.74a4.13 4.13 0 0 0-1.29 3v3h2.46z" class="cls-6" style="fill:#333132"/><path id="path429-7" d="m282.58 921.41 6-5.74a4.17 4.17 0 0 0 1.29-3v-4.16a.53.53 0 0 0-.9-.35l-6 5.74a4.12 4.12 0 0 0-1.29 3v4.17a.52.52 0 0 0 .9.34z" class="cls-6" style="fill:#333132"/><path id="path430-7" d="m282.58 931.66 6-5.74a4.17 4.17 0 0 0 1.29-3v-4.16a.53.53 0 0 0-.9-.35l-6 5.74a4.1 4.1 0 0 0-1.29 3v4.17a.52.52 0 0 0 .9.34z" class="cls-6" style="fill:#333132"/><path id="path431-1" d="M289.89 943.86v-4.16a.53.53 0 0 0-.9-.36l-4.76 4.55a8.17 8.17 0 0 0 5.08 2.06 4 4 0 0 0 .58-2.09z" class="cls-6" style="fill:#333132"/></g><path id="path433-8" d="M95.83 239.271h15.47v41.85H95.83a6.3 6.3 0 0 1-6.3-6.3v-29.21a6.3 6.3 0 0 1 6.3-6.34z" class="cls-2" style="fill:#9d9fa2;stroke:#333132;stroke-width:.82px;stroke-miterlimit:10"/><path id="path434-4" d="M223.38 281.201h-15.47v-41.85h15.47a6.3 6.3 0 0 1 6.3 6.3v29.21a6.3 6.3 0 0 1-6.3 6.3z" class="cls-2" style="fill:#9d9fa2;stroke:#333132;stroke-width:.82px;stroke-miterlimit:10"/><use xlink:href="#rect18" id="use635" x="0" y="0" transform="translate(0 200)"/></g><g id="TrailerAxle3" style="display:inline"><path id="rect45" d="M14.77 519.641h286.52v10.65H14.77Z" class="cls-2"/><path id="path45" d="m192 515.501-8.88-4.27a4.38 4.38 0 0 0-1.88-.43h-46.46a4.31 4.31 0 0 0-1.87.43l-8.88 4.27a4.38 4.38 0 0 1-1.88.43H122a4.32 4.32 0 0 0-4.32 4.32v9.42a4.33 4.33 0 0 0 4.32 4.35h.15a4.24 4.24 0 0 1 1.88.43l8.88 4.27a4.3 4.3 0 0 0 1.87.42h46.49a4.37 4.37 0 0 0 1.88-.42l8.88-4.27a4.17 4.17 0 0 1 1.87-.43h.15a4.32 4.32 0 0 0 4.32-4.32v-9.42a4.31 4.31 0 0 0-4.32-4.32h-.15a4.31 4.31 0 0 1-1.9-.46z" class="cls-2"/><g id="Axle3Tire1" transform="matrix(1.65113 0 0 1 0 -631.979)"><rect id="rect46" width="37.55" height="117.81" x="0" y="1092.88" class="cls-5" rx="7.86"/><rect id="rect47" width="37.55" height="117.81" x="0" y="1092.88" class="cls-5" rx="7.86"/><path id="path47" d="M17.94 1134.64a4.14 4.14 0 0 0-1.29-3l-6-5.74a.53.53 0 0 0-.9.36v4.16a4.11 4.11 0 0 0 1.3 3l6 5.75a.53.53 0 0 0 .89-.36z" class="cls-6"/><path id="path48" d="M17.94 1144.89a4.13 4.13 0 0 0-1.29-3l-6-5.74a.53.53 0 0 0-.9.35v4.17a4.11 4.11 0 0 0 1.3 3l6 5.75a.53.53 0 0 0 .89-.36z" class="cls-6"/><path id="path49" d="m.9 1102.43 6-5.74a4.14 4.14 0 0 0 1.29-3v-.82H8a7.86 7.86 0 0 0-8 7.67v1.52a.53.53 0 0 0 .9.37z" class="cls-6"/><path id="path50" d="M17.94 1176.49a4.1 4.1 0 0 0-1.29-3l-6-5.75a.53.53 0 0 0-.9.36v4.16a4.14 4.14 0 0 0 1.3 3l6 5.74a.52.52 0 0 0 .89-.35z" class="cls-6"/><path id="path51" d="M17.94 1165.81a4.1 4.1 0 0 0-1.29-3l-6-5.74a.53.53 0 0 0-.9.35v4.16a4.14 4.14 0 0 0 1.3 3l6 5.74a.52.52 0 0 0 .89-.35z" class="cls-6"/><path id="path52" d="M17.94 1113.71a4.1 4.1 0 0 0-1.29-3l-6-5.74a.53.53 0 0 0-.9.35v4.16a4.14 4.14 0 0 0 1.3 3l6 5.74a.52.52 0 0 0 .89-.35z" class="cls-6"/><path id="path53" d="m.9 1112.68 6-5.74a4.14 4.14 0 0 0 1.29-3v-4.16a.53.53 0 0 0-.89-.36l-6 5.74a4.18 4.18 0 0 0-1.29 3v4.16a.53.53 0 0 0 .89.36z" class="cls-6"/><path id="path54" d="M17.94 1124a4.1 4.1 0 0 0-1.29-3l-6-5.75a.53.53 0 0 0-.9.36v4.16a4.14 4.14 0 0 0 1.3 3l6 5.74a.52.52 0 0 0 .89-.35z" class="cls-6"/><path id="path55" d="M17.94 1092.88h-5.53l4.64 4.42a.52.52 0 0 0 .89-.35z" class="cls-6"/><path id="path56" d="M10.64 1188.69a.53.53 0 0 0-.9.35v4.17a4.11 4.11 0 0 0 1.3 3l6 5.75a.53.53 0 0 0 .89-.36v-4.16a4.13 4.13 0 0 0-1.29-3z" class="cls-6"/><path id="path57" d="M17.94 1103a4.13 4.13 0 0 0-1.29-3l-6-5.74a.53.53 0 0 0-.9.35v4.17a4.11 4.11 0 0 0 1.3 3l6 5.74a.52.52 0 0 0 .89-.35z" class="cls-6"/><path id="path58" d="M17.94 1155.57a4.13 4.13 0 0 0-1.29-3l-6-5.74a.53.53 0 0 0-.9.35v4.17a4.11 4.11 0 0 0 1.3 3l6 5.74a.52.52 0 0 0 .89-.35z" class="cls-6"/><path id="path59" d="M27.8 1157.44a.52.52 0 0 0-.89-.35l-6 5.74a4.11 4.11 0 0 0-1.3 3v4.17a.53.53 0 0 0 .9.35l6-5.74a4.13 4.13 0 0 0 1.29-3z" class="cls-6"/><path id="path60" d="M27.8 1168.12a.53.53 0 0 0-.89-.36l-6 5.75a4.11 4.11 0 0 0-1.3 3v4.17a.53.53 0 0 0 .9.35l6-5.74a4.13 4.13 0 0 0 1.29-3z" class="cls-6"/><path id="path61" d="M27.8 1147.19a.52.52 0 0 0-.89-.35l-6 5.74a4.14 4.14 0 0 0-1.3 3v4.16a.53.53 0 0 0 .9.35l6-5.74a4.1 4.1 0 0 0 1.29-3z" class="cls-6"/><path id="path62" d="M17.94 1186.74a4.14 4.14 0 0 0-1.29-3l-6-5.74a.53.53 0 0 0-.9.36v4.16a4.15 4.15 0 0 0 1.3 3l6 5.74a.53.53 0 0 0 .89-.36z" class="cls-6"/><path id="path63" d="m26.91 1188.69-6 5.74a4.14 4.14 0 0 0-1.3 3v4.16a.53.53 0 0 0 .9.36l6-5.75a4.1 4.1 0 0 0 1.29-3v-4.2a.52.52 0 0 0-.89-.31z" class="cls-6"/><path id="path64" d="M6.91 1201.32a4.13 4.13 0 0 0 1.29-3v-4.16a.53.53 0 0 0-.89-.36l-6 5.75a4.14 4.14 0 0 0-1.29 3v.47a7.38 7.38 0 0 0 1.09 3.86z" class="cls-6"/><path id="path65" d="M27.8 1105.34a.52.52 0 0 0-.89-.35l-6 5.74a4.11 4.11 0 0 0-1.3 3v4.17a.53.53 0 0 0 .9.35l6-5.74a4.13 4.13 0 0 0 1.29-3z" class="cls-6"/><path id="path66" d="M27.8 1094.66a.52.52 0 0 0-.89-.35l-6 5.74a4.14 4.14 0 0 0-1.3 3v4.16a.53.53 0 0 0 .9.35l6-5.74a4.1 4.1 0 0 0 1.29-3z" class="cls-6"/><path id="path67" d="M27.8 1115.59a.53.53 0 0 0-.89-.36l-6 5.75a4.11 4.11 0 0 0-1.3 3v4.17a.53.53 0 0 0 .9.35l6-5.74a4.13 4.13 0 0 0 1.29-3z" class="cls-6"/><path id="path68" d="M27.8 1136.51a.52.52 0 0 0-.89-.35l-6 5.74a4.14 4.14 0 0 0-1.3 3v4.16a.53.53 0 0 0 .9.36l6-5.75a4.1 4.1 0 0 0 1.29-3z" class="cls-6"/><path id="path69" d="M27.8 1126.27a.53.53 0 0 0-.89-.36l-6 5.74a4.15 4.15 0 0 0-1.3 3v4.16a.53.53 0 0 0 .9.36l6-5.75a4.1 4.1 0 0 0 1.29-3z" class="cls-6"/><path id="path70" d="M27.8 1178.37a.53.53 0 0 0-.89-.36l-6 5.74a4.15 4.15 0 0 0-1.3 3v4.16a.53.53 0 0 0 .9.36l6-5.74a4.14 4.14 0 0 0 1.29-3z" class="cls-6"/><path id="path71" d="M30.24 1162.21a.53.53 0 0 0-.9.36v4.16a4.11 4.11 0 0 0 1.3 3l6 5.75a.53.53 0 0 0 .9-.36v-4.16a4.14 4.14 0 0 0-1.3-3z" class="cls-6"/><path id="path72" d="M19.6 1097a.53.53 0 0 0 .9.35l4.63-4.42H19.6Z" class="cls-6"/><path id="path73" d="m.9 1123.36 6-5.75a4.1 4.1 0 0 0 1.29-3v-4.17a.52.52 0 0 0-.89-.35l-6 5.74a4.17 4.17 0 0 0-1.29 3v4.17a.53.53 0 0 0 .89.36z" class="cls-6"/><path id="path74" d="M30.24 1193.81a.53.53 0 0 0-.9.36v4.16a4.14 4.14 0 0 0 1.3 3l5.81 5.55a7.3 7.3 0 0 0 1.1-3.86v-.47a4.11 4.11 0 0 0-1.3-3z" class="cls-6"/><path id="path75" d="M30.24 1141.28a.53.53 0 0 0-.9.36v4.16a4.14 4.14 0 0 0 1.3 3l6 5.74a.53.53 0 0 0 .9-.35V1150a4.11 4.11 0 0 0-1.3-3z" class="cls-6"/><path id="path76" d="M30.24 1183.14a.53.53 0 0 0-.9.35v4.16a4.14 4.14 0 0 0 1.3 3l6 5.74a.53.53 0 0 0 .9-.35v-4.17a4.11 4.11 0 0 0-1.3-3z" class="cls-6"/><path id="path77" d="M30.24 1172.89a.53.53 0 0 0-.9.35v4.17a4.11 4.11 0 0 0 1.3 3l6 5.74a.53.53 0 0 0 .9-.35v-4.16a4.14 4.14 0 0 0-1.3-3z" class="cls-6"/><path id="path78" d="M30.24 1099.43a.53.53 0 0 0-.9.36v4.21a4.15 4.15 0 0 0 1.3 3l6 5.74a.53.53 0 0 0 .9-.36v-4.16a4.15 4.15 0 0 0-1.3-3z" class="cls-6"/><path id="path79" d="M29.51 1092.88h-.17v.82a4.15 4.15 0 0 0 1.3 3l6 5.74a.53.53 0 0 0 .9-.36v-1.52a7.86 7.86 0 0 0-8.03-7.68z" class="cls-6"/><path id="path80" d="M30.24 1131a.53.53 0 0 0-.9.35v4.16a4.14 4.14 0 0 0 1.3 3l6 5.74a.53.53 0 0 0 .9-.35v-4.17a4.11 4.11 0 0 0-1.3-3z" class="cls-6"/><path id="path81" d="M30.24 1110.11a.53.53 0 0 0-.9.35v4.17a4.11 4.11 0 0 0 1.3 3l6 5.75a.53.53 0 0 0 .9-.36v-4.16a4.14 4.14 0 0 0-1.3-3z" class="cls-6"/><path id="path82" d="M30.24 1120.36a.53.53 0 0 0-.9.35v4.17a4.11 4.11 0 0 0 1.3 3l6 5.74a.53.53 0 0 0 .9-.35v-4.16a4.14 4.14 0 0 0-1.3-3z" class="cls-6"/><path id="path83" d="M30.24 1152a.53.53 0 0 0-.9.36v4.16a4.15 4.15 0 0 0 1.3 3l6 5.74a.53.53 0 0 0 .9-.36v-4.16a4.15 4.15 0 0 0-1.3-3z" class="cls-6"/><path id="path84" d="m.9 1175.46 6-5.75a4.1 4.1 0 0 0 1.29-3v-4.16a.52.52 0 0 0-.89-.36l-6 5.74a4.17 4.17 0 0 0-1.29 3v4.16a.53.53 0 0 0 .89.37z" class="cls-6"/><path id="path85" d="m.9 1165.21 6-5.74a4.14 4.14 0 0 0 1.29-3v-4.16a.53.53 0 0 0-.89-.36l-6 5.74a4.18 4.18 0 0 0-1.29 3v4.16a.53.53 0 0 0 .89.36z" class="cls-6"/><path id="path86" d="m.9 1154.53 6-5.74a4.13 4.13 0 0 0 1.29-3v-4.16a.53.53 0 0 0-.89-.36l-6 5.75A4.14 4.14 0 0 0 0 1150v4.17a.53.53 0 0 0 .9.36z" class="cls-6"/><path id="path87" d="m35 1208.61-4.76-4.55a.53.53 0 0 0-.9.36v4.16a4.2 4.2 0 0 0 .58 2.1 8.24 8.24 0 0 0 5.08-2.07z" class="cls-6"/><path id="path88" d="m.9 1144.28 6-5.74a4.13 4.13 0 0 0 1.29-3v-4.16a.52.52 0 0 0-.89-.35l-6 5.74a4.14 4.14 0 0 0-1.29 3v4.17a.53.53 0 0 0 .89.34z" class="cls-6"/><path id="path89" d="m.9 1133.6 6-5.74a4.1 4.1 0 0 0 1.29-3v-4.17a.52.52 0 0 0-.89-.35l-6 5.74a4.17 4.17 0 0 0-1.29 3v4.16a.53.53 0 0 0 .89.36z" class="cls-6"/><path id="path90" d="M17.94 1207.67a4.13 4.13 0 0 0-1.29-3l-6-5.74a.53.53 0 0 0-.9.35v4.17a4.11 4.11 0 0 0 1.3 3l4.44 4.25h2.46z" class="cls-6"/><path id="path91" d="M26.51 1206.44a4.1 4.1 0 0 0 1.29-3v-4.17a.52.52 0 0 0-.89-.35l-6 5.74a4.14 4.14 0 0 0-1.3 3v3h2.47z" class="cls-6"/><path id="path92" d="m.9 1186.13 6-5.74a4.1 4.1 0 0 0 1.29-3v-4.17a.52.52 0 0 0-.89-.35l-6 5.74a4.17 4.17 0 0 0-1.29 3v4.16a.53.53 0 0 0 .89.36z" class="cls-6"/><path id="path93" d="m.9 1196.38 6-5.74a4.13 4.13 0 0 0 1.29-3v-4.16a.52.52 0 0 0-.89-.35l-6 5.74a4.14 4.14 0 0 0-1.29 3v4.13a.53.53 0 0 0 .89.38z" class="cls-6"/><path id="path94" d="M8.2 1208.58v-4.16a.53.53 0 0 0-.89-.36l-4.76 4.55a8.21 8.21 0 0 0 5.07 2.07 4.1 4.1 0 0 0 .58-2.1z" class="cls-6"/></g><g id="Axle3Tire2" transform="matrix(1.65066 0 0 1 -207.958 -631.979)"><rect id="rect190" width="37.55" height="117.81" x="281.69" y="1092.88" class="cls-5" rx="7.86"/><rect id="rect191" width="37.55" height="117.81" x="281.69" y="1092.88" class="cls-5" rx="7.86"/><path id="path191" d="M299.63 1134.64a4.14 4.14 0 0 0-1.29-3l-6-5.74a.53.53 0 0 0-.89.36v4.16a4.1 4.1 0 0 0 1.29 3l6 5.75a.53.53 0 0 0 .9-.36z" class="cls-6"/><path id="path192" d="M299.63 1144.89a4.13 4.13 0 0 0-1.29-3l-6-5.74a.52.52 0 0 0-.89.35v4.17a4.1 4.1 0 0 0 1.29 3l6 5.75a.53.53 0 0 0 .9-.36z" class="cls-6"/><path id="path193" d="m282.58 1102.43 6-5.74a4.18 4.18 0 0 0 1.29-3v-.82h-.16a7.86 7.86 0 0 0-8 7.67v1.52a.52.52 0 0 0 .87.37z" class="cls-6"/><path id="path194" d="M299.63 1176.49a4.1 4.1 0 0 0-1.29-3l-6-5.75a.53.53 0 0 0-.89.36v4.16a4.13 4.13 0 0 0 1.29 3l6 5.74a.53.53 0 0 0 .9-.35z" class="cls-6"/><path id="path195" d="M299.63 1165.81a4.1 4.1 0 0 0-1.29-3l-6-5.74a.52.52 0 0 0-.89.35v4.16a4.13 4.13 0 0 0 1.29 3l6 5.74a.53.53 0 0 0 .9-.35z" class="cls-6"/><path id="path196" d="M299.63 1113.71a4.1 4.1 0 0 0-1.29-3l-6-5.74a.52.52 0 0 0-.89.35v4.16a4.13 4.13 0 0 0 1.29 3l6 5.74a.53.53 0 0 0 .9-.35z" class="cls-6"/><path id="path197" d="m282.58 1112.68 6-5.74a4.18 4.18 0 0 0 1.29-3v-4.16a.53.53 0 0 0-.9-.36l-6 5.74a4.14 4.14 0 0 0-1.29 3v4.16a.53.53 0 0 0 .9.36z" class="cls-6"/><path id="path198" d="M299.63 1124a4.1 4.1 0 0 0-1.29-3l-6-5.75a.53.53 0 0 0-.89.36v4.16a4.13 4.13 0 0 0 1.29 3l6 5.74a.53.53 0 0 0 .9-.35z" class="cls-6"/><path id="path199" d="M299.63 1092.88h-5.53l4.63 4.42a.53.53 0 0 0 .9-.35z" class="cls-6"/><path id="path200" d="M292.32 1188.69a.52.52 0 0 0-.89.35v4.17a4.1 4.1 0 0 0 1.29 3l6 5.75a.53.53 0 0 0 .9-.36v-4.16a4.13 4.13 0 0 0-1.29-3z" class="cls-6"/><path id="path201" d="M299.63 1103a4.13 4.13 0 0 0-1.29-3l-6-5.74a.52.52 0 0 0-.89.35v4.17a4.1 4.1 0 0 0 1.29 3l6 5.74a.53.53 0 0 0 .9-.35z" class="cls-6"/><path id="path202" d="M299.63 1155.57a4.13 4.13 0 0 0-1.29-3l-6-5.74a.52.52 0 0 0-.89.35v4.17a4.1 4.1 0 0 0 1.29 3l6 5.74a.53.53 0 0 0 .9-.35z" class="cls-6"/><path id="path203" d="M309.49 1157.44a.53.53 0 0 0-.9-.35l-6 5.74a4.1 4.1 0 0 0-1.29 3v4.17a.52.52 0 0 0 .89.35l6-5.74a4.13 4.13 0 0 0 1.29-3z" class="cls-6"/><path id="path204" d="M309.49 1168.12a.53.53 0 0 0-.9-.36l-6 5.75a4.1 4.1 0 0 0-1.29 3v4.17a.52.52 0 0 0 .89.35l6-5.74a4.13 4.13 0 0 0 1.29-3z" class="cls-6"/><path id="path205" d="M309.49 1147.19a.53.53 0 0 0-.9-.35l-6 5.74a4.13 4.13 0 0 0-1.29 3v4.16a.52.52 0 0 0 .89.35l6-5.74a4.1 4.1 0 0 0 1.29-3z" class="cls-6"/><path id="path206" d="M299.63 1186.74a4.14 4.14 0 0 0-1.29-3l-6-5.74a.53.53 0 0 0-.89.36v4.16a4.14 4.14 0 0 0 1.29 3l6 5.74a.53.53 0 0 0 .9-.36z" class="cls-6"/><path id="path207" d="m308.59 1188.69-6 5.74a4.13 4.13 0 0 0-1.29 3v4.16a.53.53 0 0 0 .89.36l6-5.75a4.1 4.1 0 0 0 1.29-3v-4.2a.53.53 0 0 0-.89-.31z" class="cls-6"/><path id="path208" d="M288.6 1201.32a4.17 4.17 0 0 0 1.29-3v-4.16a.53.53 0 0 0-.9-.36l-6 5.75a4.1 4.1 0 0 0-1.29 3v.47a7.38 7.38 0 0 0 1.09 3.86z" class="cls-6"/><path id="path209" d="M309.49 1105.34a.53.53 0 0 0-.9-.35l-6 5.74a4.1 4.1 0 0 0-1.29 3v4.17a.52.52 0 0 0 .89.35l6-5.74a4.13 4.13 0 0 0 1.29-3z" class="cls-6"/><path id="path210" d="M309.49 1094.66a.53.53 0 0 0-.9-.35l-6 5.74a4.13 4.13 0 0 0-1.29 3v4.16a.52.52 0 0 0 .89.35l6-5.74a4.1 4.1 0 0 0 1.29-3z" class="cls-6"/><path id="path211" d="M309.49 1115.59a.53.53 0 0 0-.9-.36l-6 5.75a4.1 4.1 0 0 0-1.29 3v4.17a.52.52 0 0 0 .89.35l6-5.74a4.13 4.13 0 0 0 1.29-3z" class="cls-6"/><path id="path212" d="M309.49 1136.51a.53.53 0 0 0-.9-.35l-6 5.74a4.13 4.13 0 0 0-1.29 3v4.16a.53.53 0 0 0 .89.36l6-5.75a4.1 4.1 0 0 0 1.29-3z" class="cls-6"/><path id="path213" d="M309.49 1126.27a.53.53 0 0 0-.9-.36l-6 5.74a4.14 4.14 0 0 0-1.29 3v4.16a.53.53 0 0 0 .89.36l6-5.75a4.1 4.1 0 0 0 1.29-3z" class="cls-6"/><path id="path214" d="M309.49 1178.37a.53.53 0 0 0-.9-.36l-6 5.74a4.14 4.14 0 0 0-1.29 3v4.16a.53.53 0 0 0 .89.36l6-5.74a4.14 4.14 0 0 0 1.29-3z" class="cls-6"/><path id="path215" d="M311.92 1162.21a.52.52 0 0 0-.89.36v4.16a4.1 4.1 0 0 0 1.29 3l6 5.75a.53.53 0 0 0 .89-.36v-4.16a4.13 4.13 0 0 0-1.29-3z" class="cls-6"/><path id="path216" d="M301.29 1097a.52.52 0 0 0 .89.35l4.64-4.42h-5.53z" class="cls-6"/><path id="path217" d="m282.58 1123.36 6-5.75a4.14 4.14 0 0 0 1.29-3v-4.17a.53.53 0 0 0-.9-.35l-6 5.74a4.13 4.13 0 0 0-1.29 3v4.17a.53.53 0 0 0 .9.36z" class="cls-6"/><path id="path218" d="M311.92 1193.81a.53.53 0 0 0-.89.36v4.16a4.13 4.13 0 0 0 1.29 3l5.82 5.55a7.38 7.38 0 0 0 1.09-3.86v-.47a4.1 4.1 0 0 0-1.29-3z" class="cls-6"/><path id="path219" d="M311.92 1141.28a.53.53 0 0 0-.89.36v4.16a4.13 4.13 0 0 0 1.29 3l6 5.74a.52.52 0 0 0 .89-.35V1150a4.1 4.1 0 0 0-1.29-3z" class="cls-6"/><path id="path220" d="M311.92 1183.14a.52.52 0 0 0-.89.35v4.16a4.13 4.13 0 0 0 1.29 3l6 5.74a.52.52 0 0 0 .89-.35v-4.17a4.1 4.1 0 0 0-1.29-3z" class="cls-6"/><path id="path221" d="M311.92 1172.89a.52.52 0 0 0-.89.35v4.17a4.1 4.1 0 0 0 1.29 3l6 5.74a.52.52 0 0 0 .89-.35v-4.16a4.13 4.13 0 0 0-1.29-3z" class="cls-6"/><path id="path222" d="M311.92 1099.43a.53.53 0 0 0-.89.36v4.21a4.14 4.14 0 0 0 1.29 3l6 5.74a.53.53 0 0 0 .89-.36v-4.16a4.14 4.14 0 0 0-1.29-3z" class="cls-6"/><path id="path223" d="M311.19 1092.88H311v.82a4.14 4.14 0 0 0 1.29 3l6 5.74a.52.52 0 0 0 .89-.36v-1.52a7.86 7.86 0 0 0-7.99-7.68z" class="cls-6"/><path id="path224" d="M311.92 1131a.52.52 0 0 0-.89.35v4.16a4.13 4.13 0 0 0 1.29 3l6 5.74a.52.52 0 0 0 .89-.35v-4.17a4.1 4.1 0 0 0-1.29-3z" class="cls-6"/><path id="path225" d="M311.92 1110.11a.52.52 0 0 0-.89.35v4.17a4.1 4.1 0 0 0 1.29 3l6 5.75a.53.53 0 0 0 .89-.36v-4.16a4.13 4.13 0 0 0-1.29-3z" class="cls-6"/><path id="path226" d="M311.92 1120.36a.52.52 0 0 0-.89.35v4.17a4.1 4.1 0 0 0 1.29 3l6 5.74a.52.52 0 0 0 .89-.35v-4.16a4.13 4.13 0 0 0-1.29-3z" class="cls-6"/><path id="path227" d="M311.92 1152a.53.53 0 0 0-.89.36v4.16a4.14 4.14 0 0 0 1.29 3l6 5.74a.53.53 0 0 0 .89-.36v-4.16a4.14 4.14 0 0 0-1.29-3z" class="cls-6"/><path id="path228" d="m282.58 1175.46 6-5.75a4.14 4.14 0 0 0 1.29-3v-4.16a.53.53 0 0 0-.9-.36l-6 5.74a4.13 4.13 0 0 0-1.29 3v4.16a.53.53 0 0 0 .9.37z" class="cls-6"/><path id="path229" d="m282.58 1165.21 6-5.74a4.18 4.18 0 0 0 1.29-3v-4.16a.53.53 0 0 0-.9-.36l-6 5.74a4.14 4.14 0 0 0-1.29 3v4.16a.53.53 0 0 0 .9.36z" class="cls-6"/><path id="path230" d="m282.58 1154.53 6-5.74a4.17 4.17 0 0 0 1.29-3v-4.16a.53.53 0 0 0-.9-.36l-6 5.75a4.1 4.1 0 0 0-1.29 3v4.17a.52.52 0 0 0 .9.34z" class="cls-6"/><path id="path231" d="m316.69 1208.61-4.77-4.55a.53.53 0 0 0-.89.36v4.16a4.1 4.1 0 0 0 .58 2.1 8.26 8.26 0 0 0 5.08-2.07z" class="cls-6"/><path id="path232" d="m282.58 1144.28 6-5.74a4.17 4.17 0 0 0 1.29-3v-4.16a.53.53 0 0 0-.9-.35l-6 5.74a4.1 4.1 0 0 0-1.29 3v4.17a.52.52 0 0 0 .9.34z" class="cls-6"/><path id="path233" d="m282.58 1133.6 6-5.74a4.14 4.14 0 0 0 1.29-3v-4.17a.53.53 0 0 0-.9-.35l-6 5.74a4.13 4.13 0 0 0-1.29 3v4.16a.52.52 0 0 0 .9.36z" class="cls-6"/><path id="path234" d="M299.63 1207.67a4.13 4.13 0 0 0-1.29-3l-6-5.74a.52.52 0 0 0-.89.35v4.17a4.1 4.1 0 0 0 1.29 3l4.45 4.25h2.46z" class="cls-6"/><path id="path235" d="M308.2 1206.44a4.1 4.1 0 0 0 1.29-3v-4.17a.53.53 0 0 0-.9-.35l-6 5.74a4.13 4.13 0 0 0-1.29 3v3h2.46z" class="cls-6"/><path id="path236" d="m282.58 1186.13 6-5.74a4.14 4.14 0 0 0 1.29-3v-4.17a.53.53 0 0 0-.9-.35l-6 5.74a4.13 4.13 0 0 0-1.29 3v4.16a.52.52 0 0 0 .9.36z" class="cls-6"/><path id="path237" d="m282.58 1196.38 6-5.74a4.17 4.17 0 0 0 1.29-3v-4.16a.53.53 0 0 0-.9-.35l-6 5.74a4.1 4.1 0 0 0-1.29 3v4.13a.52.52 0 0 0 .9.38z" class="cls-6"/><path id="path238" d="M289.89 1208.58v-4.16a.53.53 0 0 0-.9-.36l-4.76 4.55a8.24 8.24 0 0 0 5.08 2.07 4.1 4.1 0 0 0 .58-2.1z" class="cls-6"/></g><path id="path432" d="M95.83 504.021h15.47v41.85H95.83a6.3 6.3 0 0 1-6.3-6.3v-29.26a6.3 6.3 0 0 1 6.3-6.29z" class="cls-2"/><path id="path435" d="M223.38 545.901h-15.47v-41.85h15.47a6.3 6.3 0 0 1 6.3 6.3v29.26a6.3 6.3 0 0 1-6.3 6.29z" class="cls-2"/></g></svg>