<?xml version="1.0" encoding="UTF-8" standalone="no"?>
<svg
   id="Layer_1"
   data-name="Layer 1"
   viewBox="0 0 319.00042 651.74301"
   version="1.1"
   sodipodi:docname="Trailer-Bottom.svg"
   inkscape:version="1.3.2 (091e20e, 2023-11-25, custom)"
   width="319.00043"
   height="651.74298"
   xmlns:inkscape="http://www.inkscape.org/namespaces/inkscape"
   xmlns:sodipodi="http://sodipodi.sourceforge.net/DTD/sodipodi-0.dtd"
   xmlns:xlink="http://www.w3.org/1999/xlink"
   xmlns="http://www.w3.org/2000/svg"
   xmlns:svg="http://www.w3.org/2000/svg"
   xmlns:rdf="http://www.w3.org/1999/02/22-rdf-syntax-ns#"
   xmlns:cc="http://creativecommons.org/ns#"
   xmlns:dc="http://purl.org/dc/elements/1.1/">
  <sodipodi:namedview
     id="namedview435"
     pagecolor="#ffffff"
     bordercolor="#000000"
     borderopacity="0.25"
     inkscape:showpageshadow="2"
     inkscape:pageopacity="0.0"
     inkscape:pagecheckerboard="0"
     inkscape:deskcolor="#d1d1d1"
     showgrid="false"
     inkscape:zoom="0.85643533"
     inkscape:cx="-102.16767"
     inkscape:cy="281.98276"
     inkscape:window-width="1920"
     inkscape:window-height="1017"
     inkscape:window-x="-8"
     inkscape:window-y="1072"
     inkscape:window-maximized="1"
     inkscape:current-layer="layer1"
     showguides="true" />
  <defs
     id="defs1">
    <style
       id="style1">.cls-1{fill:#dcddde;}.cls-1,.cls-2,.cls-3,.cls-4{stroke:#333132;stroke-miterlimit:10;stroke-width:0.82px;}.cls-2{fill:#9d9fa2;}.cls-3{fill:#fff;}.cls-4{fill:none;}.cls-5{fill:#403e3e;}.cls-6{fill:#333132;}</style>
  </defs>
  <title
     id="title1">trailer</title>
  <g
     inkscape:groupmode="layer"
     id="layer2"
     inkscape:label="TrailerAxle12"
     style="display:inline"
     transform="translate(4.1343945e-4)">
    <path
       class="cls-1"
       d="m 116.3,152.92144 a 4.1,4.1 0 0 1 -3.41,-1.82 l -20.78,-31 a 4.1,4.1 0 0 1 -0.69,-2.28 V 42.521441 a 4.09,4.09 0 0 1 0.61,-2.15 l 1.44,-2.35 v -20.33 a 4.1,4.1 0 1 1 8.19,0 v 21.51 a 4.17,4.17 0 0 1 -0.6,2.15 l -1.45,2.34 v 72.889999 l 20.09,30 a 4.09,4.09 0 0 1 -3.4,6.38 z"
       id="path1" />
    <path
       class="cls-2"
       d="m 129.46,7.7514409 v -0.25 a 3.46,3.46 0 0 0 -3.46,-3.48 h -15.48 a 3.46,3.46 0 0 0 -3.46,3.46 v 0.25 h -1.84 v 5.2900001 h -15 a 1.61,1.61 0 0 0 -1.61,1.61 v 4.64 a 1.61,1.61 0 0 0 1.61,1.61 h 15 v 5.29 h 1.84 v 0.25 a 3.46,3.46 0 0 0 3.46,3.46 H 126 a 3.46,3.46 0 0 0 3.47,-3.46 v -0.25 h 4.29 V 7.7514409 Z"
       id="path2" />
    <path
       class="cls-1"
       d="m 203.23,152.92144 a 4.11,4.11 0 0 0 3.41,-1.82 l 20.78,-31 a 4.1,4.1 0 0 0 0.69,-2.28 V 42.521441 a 4.09,4.09 0 0 0 -0.61,-2.15 l -1.44,-2.35 v -20.33 a 4.1,4.1 0 0 0 -8.2,0 v 21.51 a 4.09,4.09 0 0 0 0.61,2.15 l 1.44,2.34 v 72.889999 l -20.08,30 a 4.1,4.1 0 0 0 1.12,5.69 4.06,4.06 0 0 0 2.28,0.65 z"
       id="path4" />
    <path
       class="cls-2"
       d="m 190.07,7.7514409 v -0.25 a 3.46,3.46 0 0 1 3.46,-3.48 H 209 a 3.46,3.46 0 0 1 3.46,3.46 v 0.25 h 1.84 v 5.2900001 h 14.95 a 1.62,1.62 0 0 1 1.62,1.61 v 4.64 a 1.62,1.62 0 0 1 -1.62,1.61 h -14.94 v 5.29 h -1.84 v 0.25 a 3.46,3.46 0 0 1 -3.47,3.48 h -15.47 a 3.46,3.46 0 0 1 -3.46,-3.46 v -0.25 h -4.3 V 7.7514409 Z"
       id="path5" />
    <polygon
       class="cls-3"
       points="295.52,305.3 265.5,305.3 265.5,302.89 209.21,302.89 209.21,305.3 209.21,311.6 265.5,311.6 295.52,311.6 "
       id="polygon6"
       transform="translate(0,-139.97856)" />
    <polygon
       class="cls-3"
       points="24.27,305.3 54.3,305.3 54.3,302.89 110.59,302.89 110.59,305.3 110.59,311.6 54.3,311.6 24.27,311.6 "
       id="polygon7"
       transform="translate(0,-139.97856)" />
    <rect
       class="cls-2"
       x="133.75"
       y="10.731401"
       width="52.02"
       height="12.48"
       id="rect7" />
    <rect
       class="cls-4"
       x="17.817602"
       y="26.466021"
       width="288.23737"
       height="616.28284"
       id="rect8" />
    <rect
       class="cls-1"
       x="18.299999"
       y="167.24141"
       width="287.97"
       height="10.4"
       id="rect13" />
    <rect
       class="cls-1"
       x="18.299999"
       y="126.20143"
       width="287.97"
       height="10.4"
       id="rect16" />
    <rect
       class="cls-1"
       x="18.299999"
       y="65.861404"
       width="287.97"
       height="10.4"
       id="rect17" />
    <rect
       class="cls-1"
       x="18.299999"
       y="320.18143"
       width="287.97"
       height="10.4"
       id="rect18" />
    <rect
       class="cls-1"
       x="96.708389"
       y="36.974995"
       width="17.733212"
       height="600.61145"
       id="rect23" />
    <rect
       class="cls-1"
       x="204.79747"
       y="36.984089"
       width="17.715034"
       height="603.89587"
       id="rect24" />
    <rect
       class="cls-1"
       x="131.99001"
       y="0.4314751"
       width="55.25"
       height="16.43"
       id="rect25" />
    <rect
       class="cls-1"
       x="114.31"
       y="41.021442"
       width="90.620003"
       height="8.2200003"
       id="rect26" />
    <rect
       class="cls-1"
       x="114.31"
       y="101.95143"
       width="90.620003"
       height="8.2200003"
       id="rect27" />
    <rect
       class="cls-1"
       x="-101.95143"
       y="120.35"
       width="52.709999"
       height="8.2200003"
       transform="rotate(-90)"
       id="rect28" />
    <rect
       class="cls-1"
       x="-101.95143"
       y="190.67"
       width="52.709999"
       height="8.2200003"
       transform="rotate(-90)"
       id="rect29" />
    <rect
       class="cls-1"
       x="40.470001"
       y="16.861406"
       width="241.64999"
       height="24.17"
       id="rect30" />
    <path
       class="cls-1"
       d="m 25.36,16.861441 a 9.06,9.06 0 0 0 -9.06,9.05 v 15.11 h 24.17 v -24.16 z"
       id="path30" />
    <path
       class="cls-1"
       d="m 306.28,25.911441 a 9,9 0 0 0 -9,-9 h -15.16 v 24.11 h 24.16 z"
       id="path31" />
    <rect
       class="cls-1"
       x="16.299999"
       y="441.14145"
       width="24.219999"
       height="28.190001"
       id="rect34" />
    <rect
       class="cls-1"
       x="40.52"
       y="441.14145"
       width="239.53"
       height="28.190001"
       id="rect35" />
    <rect
       class="cls-1"
       x="280.04999"
       y="441.14145"
       width="24.219999"
       height="28.190001"
       id="rect36" />
    <rect
       class="cls-1"
       x="16.299999"
       y="582.89142"
       width="24.219999"
       height="28.190001"
       id="rect37" />
    <rect
       class="cls-1"
       x="40.52"
       y="582.89142"
       width="239.53"
       height="28.190001"
       id="rect38" />
    <rect
       class="cls-1"
       x="280.04999"
       y="582.89142"
       width="24.219999"
       height="28.190001"
       id="rect39" />
    <rect
       class="cls-1"
       x="96.849998"
       y="611.08154"
       width="125.52"
       height="40.23"
       id="rect43" />
    <path
       class="cls-1"
       d="m 4.92,627.35144 v 7.67 a 16.26,16.26 0 0 0 16.26,16.27 h 276.87 a 16.27,16.27 0 0 0 16.27,-16.27 v -7.69 z"
       id="path43" />
    <rect
       class="cls-1"
       x="4.9200001"
       y="619.49139"
       width="309.39999"
       height="7.8699999"
       id="rect44" />
    <rect
       class="cls-2"
       x="14.77"
       y="388.66147"
       width="286.51999"
       height="10.65"
       id="rect238" />
    <path
       class="cls-2"
       d="m 192,384.53144 -8.88,-4.27 a 4.38,4.38 0 0 0 -1.88,-0.43 h -46.46 a 4.31,4.31 0 0 0 -1.87,0.43 l -8.91,4.27 a 4.38,4.38 0 0 1 -1.88,0.43 H 122 a 4.32,4.32 0 0 0 -4.32,4.32 v 9.42 a 4.33,4.33 0 0 0 4.32,4.32 h 0.15 a 4.37,4.37 0 0 1 1.88,0.42 l 8.88,4.28 a 4.3,4.3 0 0 0 1.87,0.42 h 46.49 a 4.37,4.37 0 0 0 1.88,-0.42 l 8.88,-4.28 a 4.3,4.3 0 0 1 1.87,-0.42 h 0.15 a 4.32,4.32 0 0 0 4.32,-4.32 v -9.42 a 4.31,4.31 0 0 0 -4.32,-4.32 h -0.15 a 4.31,4.31 0 0 1 -1.9,-0.43 z"
       id="path239" />
    <g
       id="Axle2Tire1"
       transform="matrix(1.6511135,0,0,1,2.6919602e-4,-631.97856)">
      <rect
         class="cls-5"
         y="961.90997"
         width="37.549999"
         height="117.81"
         rx="7.8600001"
         id="rect239"
         x="0" />
      <rect
         class="cls-5"
         y="961.90997"
         width="37.549999"
         height="117.81"
         rx="7.8600001"
         id="rect240"
         x="0" />
      <path
         class="cls-6"
         d="m 17.94,1003.67 a 4.13,4.13 0 0 0 -1.29,-3 l -6,-5.74 a 0.53,0.53 0 0 0 -0.9,0.35 v 4.17 a 4.11,4.11 0 0 0 1.3,3 l 6,5.75 a 0.53,0.53 0 0 0 0.89,-0.36 z"
         id="path240" />
      <path
         class="cls-6"
         d="m 17.94,1013.92 a 4.13,4.13 0 0 0 -1.29,-3 l -6,-5.74 a 0.53,0.53 0 0 0 -0.9,0.35 v 4.17 a 4.11,4.11 0 0 0 1.3,3 l 6,5.74 a 0.52,0.52 0 0 0 0.89,-0.35 z"
         id="path241" />
      <path
         class="cls-6"
         d="m 0.9,971.46 6,-5.74 a 4.14,4.14 0 0 0 1.29,-3 V 961.9 H 8 a 7.86,7.86 0 0 0 -8,7.67 v 1.52 a 0.53,0.53 0 0 0 0.9,0.37 z"
         id="path242" />
      <path
         class="cls-6"
         d="m 17.94,1045.52 a 4.1,4.1 0 0 0 -1.29,-3 l -6,-5.75 a 0.53,0.53 0 0 0 -0.9,0.36 v 4.16 a 4.15,4.15 0 0 0 1.3,3 l 6,5.74 a 0.53,0.53 0 0 0 0.89,-0.36 z"
         id="path243" />
      <path
         class="cls-6"
         d="m 17.94,1034.84 a 4.1,4.1 0 0 0 -1.29,-3 l -6,-5.74 a 0.53,0.53 0 0 0 -0.9,0.35 v 4.16 a 4.14,4.14 0 0 0 1.3,3 l 6,5.74 a 0.52,0.52 0 0 0 0.89,-0.35 z"
         id="path244" />
      <path
         class="cls-6"
         d="m 17.94,982.74 a 4.1,4.1 0 0 0 -1.29,-3 l -6,-5.75 a 0.53,0.53 0 0 0 -0.9,0.36 v 4.16 a 4.14,4.14 0 0 0 1.3,3 l 6,5.74 a 0.52,0.52 0 0 0 0.89,-0.35 z"
         id="path245" />
      <path
         class="cls-6"
         d="m 0.9,981.71 6,-5.75 a 4.1,4.1 0 0 0 1.29,-3 V 968.8 A 0.53,0.53 0 0 0 7.3,968.44 l -6,5.74 a 4.18,4.18 0 0 0 -1.29,3 v 4.16 a 0.53,0.53 0 0 0 0.89,0.37 z"
         id="path246" />
      <path
         class="cls-6"
         d="m 17.94,993 a 4.1,4.1 0 0 0 -1.29,-3 l -6,-5.75 a 0.53,0.53 0 0 0 -0.9,0.36 v 4.16 a 4.15,4.15 0 0 0 1.3,3 l 6,5.74 a 0.53,0.53 0 0 0 0.89,-0.36 z"
         id="path247" />
      <path
         class="cls-6"
         d="m 17.94,961.91 h -5.53 l 4.64,4.42 a 0.52,0.52 0 0 0 0.89,-0.35 z"
         id="path248" />
      <path
         class="cls-6"
         d="m 10.64,1057.72 a 0.53,0.53 0 0 0 -0.9,0.35 v 4.17 a 4.11,4.11 0 0 0 1.3,3 l 6,5.74 a 0.52,0.52 0 0 0 0.89,-0.35 v -4.16 a 4.13,4.13 0 0 0 -1.29,-3 z"
         id="path249" />
      <path
         class="cls-6"
         d="m 17.94,972.06 a 4.1,4.1 0 0 0 -1.29,-3 l -6,-5.74 a 0.53,0.53 0 0 0 -0.9,0.35 v 4.16 a 4.14,4.14 0 0 0 1.3,3 l 6,5.74 a 0.52,0.52 0 0 0 0.89,-0.35 z"
         id="path250" />
      <path
         class="cls-6"
         d="m 17.94,1024.59 a 4.1,4.1 0 0 0 -1.29,-3 l -6,-5.74 a 0.53,0.53 0 0 0 -0.9,0.35 v 4.16 a 4.14,4.14 0 0 0 1.3,3 l 6,5.74 a 0.52,0.52 0 0 0 0.89,-0.35 z"
         id="path251" />
      <path
         class="cls-6"
         d="m 27.8,1026.47 a 0.52,0.52 0 0 0 -0.89,-0.35 l -6,5.74 a 4.11,4.11 0 0 0 -1.3,3 v 4.14 a 0.53,0.53 0 0 0 0.9,0.35 l 6,-5.74 a 4.13,4.13 0 0 0 1.29,-3 z"
         id="path252" />
      <path
         class="cls-6"
         d="m 27.8,1037.15 a 0.53,0.53 0 0 0 -0.89,-0.36 l -6,5.75 a 4.11,4.11 0 0 0 -1.3,3 v 4.16 a 0.53,0.53 0 0 0 0.9,0.36 l 6,-5.74 a 4.14,4.14 0 0 0 1.29,-3 z"
         id="path253" />
      <path
         class="cls-6"
         d="m 27.8,1016.22 a 0.52,0.52 0 0 0 -0.89,-0.35 l -6,5.74 a 4.11,4.11 0 0 0 -1.3,3 v 4.17 a 0.53,0.53 0 0 0 0.9,0.35 l 6,-5.74 a 4.13,4.13 0 0 0 1.29,-3 z"
         id="path254" />
      <path
         class="cls-6"
         d="m 17.94,1055.77 a 4.14,4.14 0 0 0 -1.29,-3 l -6,-5.74 a 0.53,0.53 0 0 0 -0.9,0.36 v 4.16 a 4.11,4.11 0 0 0 1.3,3 l 6,5.75 a 0.53,0.53 0 0 0 0.89,-0.36 z"
         id="path255" />
      <path
         class="cls-6"
         d="m 26.91,1057.72 -6,5.74 a 4.14,4.14 0 0 0 -1.3,3 v 4.16 a 0.53,0.53 0 0 0 0.9,0.35 l 6,-5.74 a 4.1,4.1 0 0 0 1.29,-3 v -4.17 a 0.52,0.52 0 0 0 -0.89,-0.34 z"
         id="path256" />
      <path
         class="cls-6"
         d="m 6.91,1070.35 a 4.14,4.14 0 0 0 1.29,-3 v -4.16 a 0.53,0.53 0 0 0 -0.89,-0.36 l -6,5.75 a 4.14,4.14 0 0 0 -1.29,3 v 0.47 a 7.38,7.38 0 0 0 1.09,3.86 z"
         id="path257" />
      <path
         class="cls-6"
         d="m 27.8,974.37 a 0.53,0.53 0 0 0 -0.89,-0.36 l -6,5.75 a 4.11,4.11 0 0 0 -1.3,3 v 4.17 a 0.53,0.53 0 0 0 0.9,0.35 l 6,-5.74 a 4.13,4.13 0 0 0 1.29,-3 z"
         id="path258" />
      <path
         class="cls-6"
         d="m 27.8,963.69 a 0.52,0.52 0 0 0 -0.89,-0.35 l -6,5.74 a 4.11,4.11 0 0 0 -1.3,3 v 4.17 a 0.53,0.53 0 0 0 0.9,0.35 l 6,-5.74 a 4.13,4.13 0 0 0 1.29,-3 z"
         id="path259" />
      <path
         class="cls-6"
         d="m 27.8,984.62 a 0.53,0.53 0 0 0 -0.89,-0.36 l -6,5.75 a 4.11,4.11 0 0 0 -1.3,3 v 4.16 a 0.53,0.53 0 0 0 0.9,0.36 l 6,-5.74 a 4.14,4.14 0 0 0 1.29,-3 z"
         id="path260" />
      <path
         class="cls-6"
         d="m 27.8,1005.54 a 0.52,0.52 0 0 0 -0.89,-0.35 l -6,5.74 a 4.14,4.14 0 0 0 -1.3,3 v 4.16 a 0.53,0.53 0 0 0 0.9,0.35 l 6,-5.74 a 4.1,4.1 0 0 0 1.29,-3 z"
         id="path261" />
      <path
         class="cls-6"
         d="m 27.8,995.29 a 0.52,0.52 0 0 0 -0.89,-0.35 l -6,5.74 a 4.14,4.14 0 0 0 -1.3,3 v 4.16 a 0.53,0.53 0 0 0 0.9,0.36 l 6,-5.75 a 4.1,4.1 0 0 0 1.29,-3 z"
         id="path262" />
      <path
         class="cls-6"
         d="m 27.8,1047.4 a 0.53,0.53 0 0 0 -0.89,-0.36 l -6,5.74 a 4.15,4.15 0 0 0 -1.3,3 v 4.16 a 0.53,0.53 0 0 0 0.9,0.36 l 6,-5.75 a 4.1,4.1 0 0 0 1.29,-3 z"
         id="path263" />
      <path
         class="cls-6"
         d="m 30.24,1031.24 a 0.53,0.53 0 0 0 -0.9,0.35 v 4.17 a 4.11,4.11 0 0 0 1.3,3 l 6,5.75 a 0.53,0.53 0 0 0 0.9,-0.36 V 1040 a 4.14,4.14 0 0 0 -1.3,-3 z"
         id="path264" />
      <path
         class="cls-6"
         d="m 19.6,966 a 0.53,0.53 0 0 0 0.9,0.35 l 4.63,-4.42 H 19.6 Z"
         id="path265" />
      <path
         class="cls-6"
         d="m 0.9,992.38 6,-5.74 a 4.1,4.1 0 0 0 1.29,-3 v -4.17 A 0.52,0.52 0 0 0 7.3,979.12 l -6,5.74 a 4.17,4.17 0 0 0 -1.29,3 V 992 a 0.53,0.53 0 0 0 0.89,0.38 z"
         id="path266" />
      <path
         class="cls-6"
         d="m 30.24,1062.84 a 0.53,0.53 0 0 0 -0.9,0.36 v 4.16 a 4.15,4.15 0 0 0 1.3,3 l 5.81,5.55 a 7.3,7.3 0 0 0 1.1,-3.86 v -0.47 a 4.11,4.11 0 0 0 -1.3,-3 z"
         id="path267" />
      <path
         class="cls-6"
         d="m 30.24,1010.31 a 0.53,0.53 0 0 0 -0.9,0.36 v 4.16 a 4.14,4.14 0 0 0 1.3,3 l 6,5.74 a 0.53,0.53 0 0 0 0.9,-0.36 V 1019 a 4.11,4.11 0 0 0 -1.3,-3 z"
         id="path268" />
      <path
         class="cls-6"
         d="m 30.24,1052.17 a 0.53,0.53 0 0 0 -0.9,0.35 v 4.16 a 4.14,4.14 0 0 0 1.3,3 l 6,5.74 a 0.53,0.53 0 0 0 0.9,-0.35 v -4.17 a 4.11,4.11 0 0 0 -1.3,-3 z"
         id="path269" />
      <path
         class="cls-6"
         d="m 30.24,1041.92 a 0.53,0.53 0 0 0 -0.9,0.35 v 4.16 a 4.14,4.14 0 0 0 1.3,3 l 6,5.74 a 0.53,0.53 0 0 0 0.9,-0.35 v -4.16 a 4.14,4.14 0 0 0 -1.3,-3 z"
         id="path270" />
      <path
         class="cls-6"
         d="m 30.24,968.46 a 0.53,0.53 0 0 0 -0.9,0.36 V 973 a 4.11,4.11 0 0 0 1.3,3 l 6,5.75 a 0.53,0.53 0 0 0 0.9,-0.36 v -4.16 a 4.15,4.15 0 0 0 -1.3,-3 z"
         id="path271" />
      <path
         class="cls-6"
         d="m 29.51,961.91 h -0.17 v 0.82 a 4.15,4.15 0 0 0 1.3,3 l 6,5.74 a 0.53,0.53 0 0 0 0.9,-0.36 v -1.52 a 7.86,7.86 0 0 0 -8.03,-7.68 z"
         id="path272" />
      <path
         class="cls-6"
         d="m 30.24,1000.06 a 0.53,0.53 0 0 0 -0.9,0.36 v 4.16 a 4.14,4.14 0 0 0 1.3,3 l 6,5.74 a 0.53,0.53 0 0 0 0.9,-0.35 v -4.17 a 4.11,4.11 0 0 0 -1.3,-3 z"
         id="path273" />
      <path
         class="cls-6"
         d="m 30.24,979.14 a 0.53,0.53 0 0 0 -0.9,0.35 v 4.17 a 4.11,4.11 0 0 0 1.3,3 l 6,5.74 a 0.53,0.53 0 0 0 0.9,-0.35 v -4.16 a 4.14,4.14 0 0 0 -1.3,-3 z"
         id="path274" />
      <path
         class="cls-6"
         d="m 30.24,989.39 a 0.53,0.53 0 0 0 -0.9,0.35 v 4.17 a 4.13,4.13 0 0 0 1.3,3 l 6,5.74 a 0.53,0.53 0 0 0 0.9,-0.35 v -4.16 a 4.14,4.14 0 0 0 -1.3,-3 z"
         id="path275" />
      <path
         class="cls-6"
         d="m 30.24,1021 a 0.53,0.53 0 0 0 -0.9,0.36 v 4.16 a 4.11,4.11 0 0 0 1.3,3 l 6,5.75 a 0.53,0.53 0 0 0 0.9,-0.36 v -4.16 a 4.15,4.15 0 0 0 -1.3,-3 z"
         id="path276" />
      <path
         class="cls-6"
         d="m 0.9,1044.49 6,-5.75 a 4.1,4.1 0 0 0 1.29,-3 v -4.17 a 0.52,0.52 0 0 0 -0.89,-0.35 l -6,5.74 A 4.17,4.17 0 0 0 0,1040 v 4.16 a 0.53,0.53 0 0 0 0.9,0.33 z"
         id="path277" />
      <path
         class="cls-6"
         d="m 0.9,1034.24 6,-5.75 a 4.1,4.1 0 0 0 1.29,-3 v -4.16 a 0.52,0.52 0 0 0 -0.89,-0.36 l -6,5.74 a 4.17,4.17 0 0 0 -1.29,3 v 4.16 a 0.53,0.53 0 0 0 0.89,0.37 z"
         id="path278" />
      <path
         class="cls-6"
         d="m 0.9,1023.56 6,-5.74 a 4.13,4.13 0 0 0 1.29,-3 v -4.16 A 0.53,0.53 0 0 0 7.3,1010.3 l -6,5.75 A 4.14,4.14 0 0 0 0,1019 v 4.16 a 0.53,0.53 0 0 0 0.9,0.4 z"
         id="path279" />
      <path
         class="cls-6"
         d="m 35,1077.64 -4.76,-4.55 a 0.53,0.53 0 0 0 -0.9,0.36 v 4.16 a 4.14,4.14 0 0 0 0.58,2.09 8.17,8.17 0 0 0 5.08,-2.06 z"
         id="path280" />
      <path
         class="cls-6"
         d="m 0.9,1013.31 6,-5.74 a 4.13,4.13 0 0 0 1.29,-3 v -4.16 a 0.53,0.53 0 0 0 -0.89,-0.36 l -6,5.75 a 4.14,4.14 0 0 0 -1.29,3 v 4.2 a 0.53,0.53 0 0 0 0.89,0.31 z"
         id="path281" />
      <path
         class="cls-6"
         d="m 0.9,1002.63 6,-5.74 a 4.12,4.12 0 0 0 1.29,-3 v -4.17 A 0.52,0.52 0 0 0 7.3,989.37 l -6,5.74 a 4.16,4.16 0 0 0 -1.29,3 v 4.17 a 0.53,0.53 0 0 0 0.89,0.35 z"
         id="path282" />
      <path
         class="cls-6"
         d="m 17.94,1076.7 a 4.13,4.13 0 0 0 -1.29,-3 l -6,-5.74 a 0.53,0.53 0 0 0 -0.9,0.35 v 4.17 a 4.11,4.11 0 0 0 1.3,3 l 4.44,4.24 h 2.46 z"
         id="path283" />
      <path
         class="cls-6"
         d="m 26.51,1075.47 a 4.1,4.1 0 0 0 1.29,-3 v -4.17 a 0.52,0.52 0 0 0 -0.89,-0.35 l -6,5.74 a 4.14,4.14 0 0 0 -1.3,3 v 3 h 2.47 z"
         id="path284" />
      <path
         class="cls-6"
         d="m 0.9,1055.16 6,-5.74 a 4.13,4.13 0 0 0 1.29,-3 v -4.16 a 0.52,0.52 0 0 0 -0.89,-0.35 l -6,5.74 a 4.16,4.16 0 0 0 -1.29,3 v 4.17 a 0.53,0.53 0 0 0 0.89,0.34 z"
         id="path285" />
      <path
         class="cls-6"
         d="m 0.9,1065.41 6,-5.74 a 4.13,4.13 0 0 0 1.29,-3 v -4.16 a 0.52,0.52 0 0 0 -0.89,-0.35 l -6,5.74 a 4.14,4.14 0 0 0 -1.29,3 v 4.17 a 0.53,0.53 0 0 0 0.89,0.34 z"
         id="path286" />
      <path
         class="cls-6"
         d="m 8.2,1077.61 v -4.16 a 0.53,0.53 0 0 0 -0.89,-0.36 l -4.76,4.55 a 8.15,8.15 0 0 0 5.07,2.06 4,4 0 0 0 0.58,-2.09 z"
         id="path287" />
    </g>
    <g
       id="Axle2Tire2"
       transform="matrix(1.6506642,0,0,1,-207.95804,-631.97856)">
      <rect
         class="cls-5"
         x="281.69"
         y="961.90997"
         width="37.549999"
         height="117.81"
         rx="7.8600001"
         id="rect383" />
      <rect
         class="cls-5"
         x="281.69"
         y="961.90997"
         width="37.549999"
         height="117.81"
         rx="7.8600001"
         id="rect384" />
      <path
         class="cls-6"
         d="m 299.63,1003.67 a 4.13,4.13 0 0 0 -1.29,-3 l -6,-5.74 a 0.52,0.52 0 0 0 -0.89,0.35 v 4.17 a 4.1,4.1 0 0 0 1.29,3 l 6,5.75 a 0.53,0.53 0 0 0 0.9,-0.36 z"
         id="path384" />
      <path
         class="cls-6"
         d="m 299.63,1013.92 a 4.13,4.13 0 0 0 -1.29,-3 l -6,-5.74 a 0.52,0.52 0 0 0 -0.89,0.35 v 4.17 a 4.1,4.1 0 0 0 1.29,3 l 6,5.74 a 0.53,0.53 0 0 0 0.9,-0.35 z"
         id="path385" />
      <path
         class="cls-6"
         d="m 282.58,971.46 6,-5.74 a 4.18,4.18 0 0 0 1.29,-3 v -0.82 h -0.16 a 7.86,7.86 0 0 0 -8,7.67 v 1.52 a 0.53,0.53 0 0 0 0.87,0.37 z"
         id="path386" />
      <path
         class="cls-6"
         d="m 299.63,1045.52 a 4.1,4.1 0 0 0 -1.29,-3 l -6,-5.75 a 0.53,0.53 0 0 0 -0.89,0.36 v 4.16 a 4.14,4.14 0 0 0 1.29,3 l 6,5.74 a 0.53,0.53 0 0 0 0.9,-0.36 z"
         id="path387" />
      <path
         class="cls-6"
         d="m 299.63,1034.84 a 4.1,4.1 0 0 0 -1.29,-3 l -6,-5.74 a 0.52,0.52 0 0 0 -0.89,0.35 v 4.16 a 4.13,4.13 0 0 0 1.29,3 l 6,5.74 a 0.53,0.53 0 0 0 0.9,-0.35 z"
         id="path388" />
      <path
         class="cls-6"
         d="m 299.63,982.74 a 4.1,4.1 0 0 0 -1.29,-3 l -6,-5.75 a 0.53,0.53 0 0 0 -0.89,0.36 v 4.16 a 4.13,4.13 0 0 0 1.29,3 l 6,5.74 a 0.53,0.53 0 0 0 0.9,-0.35 z"
         id="path389" />
      <path
         class="cls-6"
         d="m 282.58,981.71 6,-5.75 a 4.14,4.14 0 0 0 1.29,-3 v -4.16 a 0.53,0.53 0 0 0 -0.9,-0.36 l -6,5.74 a 4.14,4.14 0 0 0 -1.29,3 v 4.16 a 0.53,0.53 0 0 0 0.9,0.37 z"
         id="path390" />
      <path
         class="cls-6"
         d="m 299.63,993 a 4.1,4.1 0 0 0 -1.29,-3 l -6,-5.75 a 0.53,0.53 0 0 0 -0.89,0.36 v 4.16 a 4.14,4.14 0 0 0 1.29,3 l 6,5.74 a 0.53,0.53 0 0 0 0.9,-0.36 z"
         id="path391" />
      <path
         class="cls-6"
         d="m 299.63,961.91 h -5.53 l 4.63,4.42 a 0.53,0.53 0 0 0 0.9,-0.35 z"
         id="path392" />
      <path
         class="cls-6"
         d="m 292.32,1057.72 a 0.52,0.52 0 0 0 -0.89,0.35 v 4.17 a 4.1,4.1 0 0 0 1.29,3 l 6,5.74 a 0.53,0.53 0 0 0 0.9,-0.35 v -4.16 a 4.13,4.13 0 0 0 -1.29,-3 z"
         id="path393" />
      <path
         class="cls-6"
         d="m 299.63,972.06 a 4.1,4.1 0 0 0 -1.29,-3 l -6,-5.74 a 0.52,0.52 0 0 0 -0.89,0.35 v 4.16 a 4.13,4.13 0 0 0 1.29,3 l 6,5.74 a 0.53,0.53 0 0 0 0.9,-0.35 z"
         id="path394" />
      <path
         class="cls-6"
         d="m 299.63,1024.59 a 4.1,4.1 0 0 0 -1.29,-3 l -6,-5.74 a 0.52,0.52 0 0 0 -0.89,0.35 v 4.16 a 4.13,4.13 0 0 0 1.29,3 l 6,5.74 a 0.53,0.53 0 0 0 0.9,-0.35 z"
         id="path395" />
      <path
         class="cls-6"
         d="m 309.49,1026.47 a 0.53,0.53 0 0 0 -0.9,-0.35 l -6,5.74 a 4.1,4.1 0 0 0 -1.29,3 v 4.14 a 0.52,0.52 0 0 0 0.89,0.35 l 6,-5.74 a 4.13,4.13 0 0 0 1.29,-3 z"
         id="path396" />
      <path
         class="cls-6"
         d="m 309.49,1037.15 a 0.53,0.53 0 0 0 -0.9,-0.36 l -6,5.75 a 4.1,4.1 0 0 0 -1.29,3 v 4.16 a 0.53,0.53 0 0 0 0.89,0.36 l 6,-5.74 a 4.14,4.14 0 0 0 1.29,-3 z"
         id="path397" />
      <path
         class="cls-6"
         d="m 309.49,1016.22 a 0.53,0.53 0 0 0 -0.9,-0.35 l -6,5.74 a 4.1,4.1 0 0 0 -1.29,3 v 4.17 a 0.52,0.52 0 0 0 0.89,0.35 l 6,-5.74 a 4.13,4.13 0 0 0 1.29,-3 z"
         id="path398" />
      <path
         class="cls-6"
         d="m 299.63,1055.77 a 4.14,4.14 0 0 0 -1.29,-3 l -6,-5.74 a 0.53,0.53 0 0 0 -0.89,0.36 v 4.16 a 4.1,4.1 0 0 0 1.29,3 l 6,5.75 a 0.53,0.53 0 0 0 0.9,-0.36 z"
         id="path399" />
      <path
         class="cls-6"
         d="m 308.59,1057.72 -6,5.74 a 4.13,4.13 0 0 0 -1.29,3 v 4.16 a 0.52,0.52 0 0 0 0.89,0.35 l 6,-5.74 a 4.1,4.1 0 0 0 1.29,-3 v -4.17 a 0.53,0.53 0 0 0 -0.89,-0.34 z"
         id="path400" />
      <path
         class="cls-6"
         d="m 288.6,1070.35 a 4.18,4.18 0 0 0 1.29,-3 v -4.16 a 0.53,0.53 0 0 0 -0.9,-0.36 l -6,5.75 a 4.1,4.1 0 0 0 -1.29,3 v 0.47 a 7.38,7.38 0 0 0 1.09,3.86 z"
         id="path401" />
      <path
         class="cls-6"
         d="m 309.49,974.37 a 0.53,0.53 0 0 0 -0.9,-0.36 l -6,5.75 a 4.1,4.1 0 0 0 -1.29,3 v 4.17 a 0.52,0.52 0 0 0 0.89,0.35 l 6,-5.74 a 4.13,4.13 0 0 0 1.29,-3 z"
         id="path402" />
      <path
         class="cls-6"
         d="m 309.49,963.69 a 0.53,0.53 0 0 0 -0.9,-0.35 l -6,5.74 a 4.1,4.1 0 0 0 -1.29,3 v 4.17 a 0.52,0.52 0 0 0 0.89,0.35 l 6,-5.74 a 4.13,4.13 0 0 0 1.29,-3 z"
         id="path403" />
      <path
         class="cls-6"
         d="m 309.49,984.62 a 0.53,0.53 0 0 0 -0.9,-0.36 l -6,5.75 a 4.1,4.1 0 0 0 -1.29,3 v 4.16 a 0.53,0.53 0 0 0 0.89,0.36 l 6,-5.74 a 4.14,4.14 0 0 0 1.29,-3 z"
         id="path404" />
      <path
         class="cls-6"
         d="m 309.49,1005.54 a 0.53,0.53 0 0 0 -0.9,-0.35 l -6,5.74 a 4.13,4.13 0 0 0 -1.29,3 v 4.16 a 0.52,0.52 0 0 0 0.89,0.35 l 6,-5.74 a 4.1,4.1 0 0 0 1.29,-3 z"
         id="path405" />
      <path
         class="cls-6"
         d="m 309.49,995.29 a 0.53,0.53 0 0 0 -0.9,-0.35 l -6,5.74 a 4.13,4.13 0 0 0 -1.29,3 v 4.16 a 0.53,0.53 0 0 0 0.89,0.36 l 6,-5.75 a 4.1,4.1 0 0 0 1.29,-3 z"
         id="path406" />
      <path
         class="cls-6"
         d="m 309.49,1047.4 a 0.53,0.53 0 0 0 -0.9,-0.36 l -6,5.74 a 4.14,4.14 0 0 0 -1.29,3 v 4.16 a 0.53,0.53 0 0 0 0.89,0.36 l 6,-5.75 a 4.1,4.1 0 0 0 1.29,-3 z"
         id="path407" />
      <path
         class="cls-6"
         d="m 311.92,1031.24 a 0.52,0.52 0 0 0 -0.89,0.35 v 4.17 a 4.1,4.1 0 0 0 1.29,3 l 6,5.75 a 0.53,0.53 0 0 0 0.89,-0.36 V 1040 a 4.13,4.13 0 0 0 -1.29,-3 z"
         id="path408" />
      <path
         class="cls-6"
         d="m 301.29,966 a 0.52,0.52 0 0 0 0.89,0.35 l 4.64,-4.42 h -5.53 z"
         id="path409" />
      <path
         class="cls-6"
         d="m 282.58,992.38 6,-5.74 a 4.14,4.14 0 0 0 1.29,-3 v -4.17 a 0.53,0.53 0 0 0 -0.9,-0.35 l -6,5.74 a 4.13,4.13 0 0 0 -1.29,3 V 992 a 0.52,0.52 0 0 0 0.9,0.38 z"
         id="path410" />
      <path
         class="cls-6"
         d="m 311.92,1062.84 a 0.53,0.53 0 0 0 -0.89,0.36 v 4.16 a 4.14,4.14 0 0 0 1.29,3 l 5.82,5.55 a 7.38,7.38 0 0 0 1.09,-3.86 v -0.47 a 4.1,4.1 0 0 0 -1.29,-3 z"
         id="path411" />
      <path
         class="cls-6"
         d="m 311.92,1010.31 a 0.53,0.53 0 0 0 -0.89,0.36 v 4.16 a 4.13,4.13 0 0 0 1.29,3 l 6,5.74 a 0.52,0.52 0 0 0 0.89,-0.36 V 1019 a 4.1,4.1 0 0 0 -1.29,-3 z"
         id="path412" />
      <path
         class="cls-6"
         d="m 311.92,1052.17 a 0.52,0.52 0 0 0 -0.89,0.35 v 4.16 a 4.13,4.13 0 0 0 1.29,3 l 6,5.74 a 0.52,0.52 0 0 0 0.89,-0.35 v -4.17 a 4.1,4.1 0 0 0 -1.29,-3 z"
         id="path413" />
      <path
         class="cls-6"
         d="m 311.92,1041.92 a 0.52,0.52 0 0 0 -0.89,0.35 v 4.16 a 4.13,4.13 0 0 0 1.29,3 l 6,5.74 a 0.52,0.52 0 0 0 0.89,-0.35 v -4.16 a 4.13,4.13 0 0 0 -1.29,-3 z"
         id="path414" />
      <path
         class="cls-6"
         d="m 311.92,968.46 a 0.53,0.53 0 0 0 -0.89,0.36 V 973 a 4.1,4.1 0 0 0 1.29,3 l 6,5.75 a 0.53,0.53 0 0 0 0.89,-0.36 v -4.16 a 4.14,4.14 0 0 0 -1.29,-3 z"
         id="path415" />
      <path
         class="cls-6"
         d="M 311.19,961.91 H 311 v 0.82 a 4.14,4.14 0 0 0 1.29,3 l 6,5.74 a 0.53,0.53 0 0 0 0.89,-0.36 v -1.52 a 7.86,7.86 0 0 0 -7.99,-7.68 z"
         id="path416" />
      <path
         class="cls-6"
         d="m 311.92,1000.06 a 0.53,0.53 0 0 0 -0.89,0.36 v 4.16 a 4.13,4.13 0 0 0 1.29,3 l 6,5.74 a 0.52,0.52 0 0 0 0.89,-0.35 v -4.17 a 4.1,4.1 0 0 0 -1.29,-3 z"
         id="path417" />
      <path
         class="cls-6"
         d="m 311.92,979.14 a 0.52,0.52 0 0 0 -0.89,0.35 v 4.17 a 4.1,4.1 0 0 0 1.29,3 l 6,5.74 a 0.52,0.52 0 0 0 0.89,-0.35 v -4.16 a 4.13,4.13 0 0 0 -1.29,-3 z"
         id="path418" />
      <path
         class="cls-6"
         d="m 311.92,989.39 a 0.52,0.52 0 0 0 -0.89,0.35 v 4.17 a 4.12,4.12 0 0 0 1.29,3 l 6,5.74 a 0.52,0.52 0 0 0 0.89,-0.35 v -4.16 a 4.13,4.13 0 0 0 -1.29,-3 z"
         id="path419" />
      <path
         class="cls-6"
         d="m 311.92,1021 a 0.52,0.52 0 0 0 -0.89,0.36 v 4.16 a 4.1,4.1 0 0 0 1.29,3 l 6,5.75 a 0.53,0.53 0 0 0 0.89,-0.36 v -4.16 a 4.14,4.14 0 0 0 -1.29,-3 z"
         id="path420" />
      <path
         class="cls-6"
         d="m 282.58,1044.49 6,-5.75 a 4.14,4.14 0 0 0 1.29,-3 v -4.17 a 0.53,0.53 0 0 0 -0.9,-0.35 L 283,1037 a 4.13,4.13 0 0 0 -1.29,3 v 4.16 a 0.53,0.53 0 0 0 0.87,0.33 z"
         id="path421" />
      <path
         class="cls-6"
         d="m 282.58,1034.24 6,-5.75 a 4.14,4.14 0 0 0 1.29,-3 v -4.16 a 0.53,0.53 0 0 0 -0.9,-0.36 l -6,5.74 a 4.13,4.13 0 0 0 -1.29,3 v 4.16 a 0.53,0.53 0 0 0 0.9,0.37 z"
         id="path422" />
      <path
         class="cls-6"
         d="m 282.58,1023.56 6,-5.74 a 4.17,4.17 0 0 0 1.29,-3 v -4.16 a 0.53,0.53 0 0 0 -0.9,-0.36 l -6,5.75 a 4.1,4.1 0 0 0 -1.29,3 v 4.16 a 0.52,0.52 0 0 0 0.9,0.35 z"
         id="path423" />
      <path
         class="cls-6"
         d="m 316.69,1077.64 -4.77,-4.55 a 0.53,0.53 0 0 0 -0.89,0.36 v 4.16 a 4,4 0 0 0 0.58,2.09 8.2,8.2 0 0 0 5.08,-2.06 z"
         id="path424" />
      <path
         class="cls-6"
         d="m 282.58,1013.31 6,-5.74 a 4.17,4.17 0 0 0 1.29,-3 v -4.16 a 0.53,0.53 0 0 0 -0.9,-0.36 l -6,5.75 a 4.1,4.1 0 0 0 -1.29,3 v 4.2 a 0.52,0.52 0 0 0 0.9,0.31 z"
         id="path425" />
      <path
         class="cls-6"
         d="m 282.58,1002.63 6,-5.74 a 4.16,4.16 0 0 0 1.29,-3 v -4.17 a 0.53,0.53 0 0 0 -0.9,-0.35 l -6,5.74 a 4.12,4.12 0 0 0 -1.29,3 v 4.17 a 0.52,0.52 0 0 0 0.9,0.35 z"
         id="path426" />
      <path
         class="cls-6"
         d="m 299.63,1076.7 a 4.13,4.13 0 0 0 -1.29,-3 l -6,-5.74 a 0.52,0.52 0 0 0 -0.89,0.35 v 4.17 a 4.1,4.1 0 0 0 1.29,3 l 4.45,4.24 h 2.46 z"
         id="path427" />
      <path
         class="cls-6"
         d="m 308.2,1075.47 a 4.1,4.1 0 0 0 1.29,-3 v -4.17 a 0.53,0.53 0 0 0 -0.9,-0.35 l -6,5.74 a 4.13,4.13 0 0 0 -1.29,3 v 3 h 2.46 z"
         id="path428" />
      <path
         class="cls-6"
         d="m 282.58,1055.16 6,-5.74 a 4.17,4.17 0 0 0 1.29,-3 v -4.16 a 0.53,0.53 0 0 0 -0.9,-0.35 l -6,5.74 a 4.12,4.12 0 0 0 -1.29,3 v 4.17 a 0.52,0.52 0 0 0 0.9,0.34 z"
         id="path429" />
      <path
         class="cls-6"
         d="m 282.58,1065.41 6,-5.74 a 4.17,4.17 0 0 0 1.29,-3 v -4.16 a 0.53,0.53 0 0 0 -0.9,-0.35 l -6,5.74 a 4.1,4.1 0 0 0 -1.29,3 v 4.17 a 0.52,0.52 0 0 0 0.9,0.34 z"
         id="path430" />
      <path
         class="cls-6"
         d="m 289.89,1077.61 v -4.16 a 0.53,0.53 0 0 0 -0.9,-0.36 l -4.76,4.55 a 8.17,8.17 0 0 0 5.08,2.06 4,4 0 0 0 0.58,-2.09 z"
         id="path431" />
    </g>
    <path
       class="cls-2"
       d="m 95.83,373.02144 h 15.47 v 41.85 H 95.83 a 6.3,6.3 0 0 1 -6.3,-6.3 v -29.21 a 6.3,6.3 0 0 1 6.3,-6.34 z"
       id="path433" />
    <path
       class="cls-2"
       d="m 223.38,414.95144 h -15.47 v -41.85 h 15.47 a 6.3,6.3 0 0 1 6.3,6.3 v 29.21 a 6.3,6.3 0 0 1 -6.3,6.3 z"
       id="path434" />
    <rect
       class="cls-2"
       x="14.770414"
       y="254.91145"
       width="286.51999"
       height="10.65"
       id="rect238-9"
       style="fill:#9d9fa2;stroke:#333132;stroke-width:0.82px;stroke-miterlimit:10" />
    <path
       class="cls-2"
       d="m 192.00041,250.78147 -8.88,-4.27 a 4.38,4.38 0 0 0 -1.88,-0.43 h -46.46 a 4.31,4.31 0 0 0 -1.87,0.43 l -8.91,4.27 a 4.38,4.38 0 0 1 -1.88,0.43 h -0.12 a 4.32,4.32 0 0 0 -4.32,4.32 v 9.42 a 4.33,4.33 0 0 0 4.32,4.32 h 0.15 a 4.37,4.37 0 0 1 1.88,0.42 l 8.88,4.28 a 4.3,4.3 0 0 0 1.87,0.42 h 46.49 a 4.37,4.37 0 0 0 1.88,-0.42 l 8.88,-4.28 a 4.3,4.3 0 0 1 1.87,-0.42 h 0.15 a 4.32,4.32 0 0 0 4.32,-4.32 v -9.42 a 4.31,4.31 0 0 0 -4.32,-4.32 h -0.15 a 4.31,4.31 0 0 1 -1.9,-0.43 z"
       id="path239-6"
       style="fill:#9d9fa2;stroke:#333132;stroke-width:0.82px;stroke-miterlimit:10" />
    <g
       id="Axle1Tire1"
       transform="matrix(1.6511135,0,0,1,0,-631.97856)">
      <rect
         class="cls-5"
         y="828.15997"
         width="37.549999"
         height="117.81"
         rx="7.8600001"
         id="rect239-5"
         style="fill:#403e3e"
         x="0.00041343947" />
      <rect
         class="cls-5"
         y="828.15997"
         width="37.549999"
         height="117.81"
         rx="7.8600001"
         id="rect240-5"
         style="fill:#403e3e"
         x="0.00041343947" />
      <path
         class="cls-6"
         d="m 17.940413,869.92003 a 4.13,4.13 0 0 0 -1.29,-3 l -6,-5.74 a 0.53,0.53 0 0 0 -0.8999996,0.35 v 4.17 a 4.11,4.11 0 0 0 1.2999996,3 l 6,5.75 a 0.53,0.53 0 0 0 0.89,-0.36 z"
         id="path240-4"
         style="fill:#333132" />
      <path
         class="cls-6"
         d="m 17.940413,880.17003 a 4.13,4.13 0 0 0 -1.29,-3 l -6,-5.74 a 0.53,0.53 0 0 0 -0.8999996,0.35 v 4.17 a 4.11,4.11 0 0 0 1.2999996,3 l 6,5.74 a 0.52,0.52 0 0 0 0.89,-0.35 z"
         id="path241-9"
         style="fill:#333132" />
      <path
         class="cls-6"
         d="m 0.90041344,837.71003 5.99999996,-5.74 a 4.14,4.14 0 0 0 1.29,-3 v -0.82 h -0.19 a 7.86,7.86 0 0 0 -7.99999996054,7.67 v 1.52 a 0.53,0.53 0 0 0 0.90000000054,0.37 z"
         id="path242-2"
         style="fill:#333132" />
      <path
         class="cls-6"
         d="m 17.940413,911.77003 a 4.1,4.1 0 0 0 -1.29,-3 l -6,-5.75 a 0.53,0.53 0 0 0 -0.8999996,0.36 v 4.16 a 4.15,4.15 0 0 0 1.2999996,3 l 6,5.74 a 0.53,0.53 0 0 0 0.89,-0.36 z"
         id="path243-2"
         style="fill:#333132" />
      <path
         class="cls-6"
         d="m 17.940413,901.09003 a 4.1,4.1 0 0 0 -1.29,-3 l -6,-5.74 a 0.53,0.53 0 0 0 -0.8999996,0.35 v 4.16 a 4.14,4.14 0 0 0 1.2999996,3 l 6,5.74 a 0.52,0.52 0 0 0 0.89,-0.35 z"
         id="path244-4"
         style="fill:#333132" />
      <path
         class="cls-6"
         d="m 17.940413,848.99003 a 4.1,4.1 0 0 0 -1.29,-3 l -6,-5.75 a 0.53,0.53 0 0 0 -0.8999996,0.36 v 4.16 a 4.14,4.14 0 0 0 1.2999996,3 l 6,5.74 a 0.52,0.52 0 0 0 0.89,-0.35 z"
         id="path245-9"
         style="fill:#333132" />
      <path
         class="cls-6"
         d="m 0.90041344,847.96003 5.99999996,-5.75 a 4.1,4.1 0 0 0 1.29,-3 v -4.16 a 0.53,0.53 0 0 0 -0.89,-0.36 l -6,5.74 a 4.18,4.18 0 0 0 -1.28999996,3 v 4.16 a 0.53,0.53 0 0 0 0.89,0.37 z"
         id="path246-4"
         style="fill:#333132" />
      <path
         class="cls-6"
         d="m 17.940413,859.25003 a 4.1,4.1 0 0 0 -1.29,-3 l -6,-5.75 a 0.53,0.53 0 0 0 -0.8999996,0.36 v 4.16 a 4.15,4.15 0 0 0 1.2999996,3 l 6,5.74 a 0.53,0.53 0 0 0 0.89,-0.36 z"
         id="path247-2"
         style="fill:#333132" />
      <path
         class="cls-6"
         d="m 17.940413,828.16003 h -5.53 l 4.64,4.42 a 0.52,0.52 0 0 0 0.89,-0.35 z"
         id="path248-1"
         style="fill:#333132" />
      <path
         class="cls-6"
         d="m 10.640413,923.97003 a 0.53,0.53 0 0 0 -0.8999996,0.35 v 4.17 a 4.11,4.11 0 0 0 1.2999996,3 l 6,5.74 a 0.52,0.52 0 0 0 0.89,-0.35 v -4.16 a 4.13,4.13 0 0 0 -1.29,-3 z"
         id="path249-6"
         style="fill:#333132" />
      <path
         class="cls-6"
         d="m 17.940413,838.31003 a 4.1,4.1 0 0 0 -1.29,-3 l -6,-5.74 a 0.53,0.53 0 0 0 -0.8999996,0.35 v 4.16 a 4.14,4.14 0 0 0 1.2999996,3 l 6,5.74 a 0.52,0.52 0 0 0 0.89,-0.35 z"
         id="path250-3"
         style="fill:#333132" />
      <path
         class="cls-6"
         d="m 17.940413,890.84003 a 4.1,4.1 0 0 0 -1.29,-3 l -6,-5.74 a 0.53,0.53 0 0 0 -0.8999996,0.35 v 4.16 a 4.14,4.14 0 0 0 1.2999996,3 l 6,5.74 a 0.52,0.52 0 0 0 0.89,-0.35 z"
         id="path251-7"
         style="fill:#333132" />
      <path
         class="cls-6"
         d="m 27.800413,892.72003 a 0.52,0.52 0 0 0 -0.89,-0.35 l -6,5.74 a 4.11,4.11 0 0 0 -1.3,3 v 4.14 a 0.53,0.53 0 0 0 0.9,0.35 l 6,-5.74 a 4.13,4.13 0 0 0 1.29,-3 z"
         id="path252-8"
         style="fill:#333132" />
      <path
         class="cls-6"
         d="m 27.800413,903.40003 a 0.53,0.53 0 0 0 -0.89,-0.36 l -6,5.75 a 4.11,4.11 0 0 0 -1.3,3 v 4.16 a 0.53,0.53 0 0 0 0.9,0.36 l 6,-5.74 a 4.14,4.14 0 0 0 1.29,-3 z"
         id="path253-2"
         style="fill:#333132" />
      <path
         class="cls-6"
         d="m 27.800413,882.47003 a 0.52,0.52 0 0 0 -0.89,-0.35 l -6,5.74 a 4.11,4.11 0 0 0 -1.3,3 v 4.17 a 0.53,0.53 0 0 0 0.9,0.35 l 6,-5.74 a 4.13,4.13 0 0 0 1.29,-3 z"
         id="path254-3"
         style="fill:#333132" />
      <path
         class="cls-6"
         d="m 17.940413,922.02003 a 4.14,4.14 0 0 0 -1.29,-3 l -6,-5.74 a 0.53,0.53 0 0 0 -0.8999996,0.36 v 4.16 a 4.11,4.11 0 0 0 1.2999996,3 l 6,5.75 a 0.53,0.53 0 0 0 0.89,-0.36 z"
         id="path255-9"
         style="fill:#333132" />
      <path
         class="cls-6"
         d="m 26.910413,923.97003 -6,5.74 a 4.14,4.14 0 0 0 -1.3,3 v 4.16 a 0.53,0.53 0 0 0 0.9,0.35 l 6,-5.74 a 4.1,4.1 0 0 0 1.29,-3 v -4.17 a 0.52,0.52 0 0 0 -0.89,-0.34 z"
         id="path256-0"
         style="fill:#333132" />
      <path
         class="cls-6"
         d="m 6.9104134,936.60003 a 4.14,4.14 0 0 0 1.29,-3 v -4.16 a 0.53,0.53 0 0 0 -0.89,-0.36 l -6,5.75 a 4.14,4.14 0 0 0 -1.28999996,3 v 0.47 a 7.38,7.38 0 0 0 1.08999996,3.86 z"
         id="path257-4"
         style="fill:#333132" />
      <path
         class="cls-6"
         d="m 27.800413,840.62003 a 0.53,0.53 0 0 0 -0.89,-0.36 l -6,5.75 a 4.11,4.11 0 0 0 -1.3,3 v 4.17 a 0.53,0.53 0 0 0 0.9,0.35 l 6,-5.74 a 4.13,4.13 0 0 0 1.29,-3 z"
         id="path258-8"
         style="fill:#333132" />
      <path
         class="cls-6"
         d="m 27.800413,829.94003 a 0.52,0.52 0 0 0 -0.89,-0.35 l -6,5.74 a 4.11,4.11 0 0 0 -1.3,3 v 4.17 a 0.53,0.53 0 0 0 0.9,0.35 l 6,-5.74 a 4.13,4.13 0 0 0 1.29,-3 z"
         id="path259-4"
         style="fill:#333132" />
      <path
         class="cls-6"
         d="m 27.800413,850.87003 a 0.53,0.53 0 0 0 -0.89,-0.36 l -6,5.75 a 4.11,4.11 0 0 0 -1.3,3 v 4.16 a 0.53,0.53 0 0 0 0.9,0.36 l 6,-5.74 a 4.14,4.14 0 0 0 1.29,-3 z"
         id="path260-4"
         style="fill:#333132" />
      <path
         class="cls-6"
         d="m 27.800413,871.79003 a 0.52,0.52 0 0 0 -0.89,-0.35 l -6,5.74 a 4.14,4.14 0 0 0 -1.3,3 v 4.16 a 0.53,0.53 0 0 0 0.9,0.35 l 6,-5.74 a 4.1,4.1 0 0 0 1.29,-3 z"
         id="path261-3"
         style="fill:#333132" />
      <path
         class="cls-6"
         d="m 27.800413,861.54003 a 0.52,0.52 0 0 0 -0.89,-0.35 l -6,5.74 a 4.14,4.14 0 0 0 -1.3,3 v 4.16 a 0.53,0.53 0 0 0 0.9,0.36 l 6,-5.75 a 4.1,4.1 0 0 0 1.29,-3 z"
         id="path262-4"
         style="fill:#333132" />
      <path
         class="cls-6"
         d="m 27.800413,913.65003 a 0.53,0.53 0 0 0 -0.89,-0.36 l -6,5.74 a 4.15,4.15 0 0 0 -1.3,3 v 4.16 a 0.53,0.53 0 0 0 0.9,0.36 l 6,-5.75 a 4.1,4.1 0 0 0 1.29,-3 z"
         id="path263-7"
         style="fill:#333132" />
      <path
         class="cls-6"
         d="m 30.240413,897.49003 a 0.53,0.53 0 0 0 -0.9,0.35 v 4.17 a 4.11,4.11 0 0 0 1.3,3 l 6,5.75 a 0.53,0.53 0 0 0 0.9,-0.36 v -4.15 a 4.14,4.14 0 0 0 -1.3,-3 z"
         id="path264-2"
         style="fill:#333132" />
      <path
         class="cls-6"
         d="m 19.600413,832.25003 a 0.53,0.53 0 0 0 0.9,0.35 l 4.63,-4.42 h -5.53 z"
         id="path265-4"
         style="fill:#333132" />
      <path
         class="cls-6"
         d="m 0.90041344,858.63003 5.99999996,-5.74 a 4.1,4.1 0 0 0 1.29,-3 v -4.17 a 0.52,0.52 0 0 0 -0.89,-0.35 l -6,5.74 a 4.17,4.17 0 0 0 -1.28999996,3 v 4.14 a 0.53,0.53 0 0 0 0.89,0.38 z"
         id="path266-2"
         style="fill:#333132" />
      <path
         class="cls-6"
         d="m 30.240413,929.09003 a 0.53,0.53 0 0 0 -0.9,0.36 v 4.16 a 4.15,4.15 0 0 0 1.3,3 l 5.81,5.55 a 7.3,7.3 0 0 0 1.1,-3.86 v -0.47 a 4.11,4.11 0 0 0 -1.3,-3 z"
         id="path267-2"
         style="fill:#333132" />
      <path
         class="cls-6"
         d="m 30.240413,876.56003 a 0.53,0.53 0 0 0 -0.9,0.36 v 4.16 a 4.14,4.14 0 0 0 1.3,3 l 6,5.74 a 0.53,0.53 0 0 0 0.9,-0.36 v -4.21 a 4.11,4.11 0 0 0 -1.3,-3 z"
         id="path268-5"
         style="fill:#333132" />
      <path
         class="cls-6"
         d="m 30.240413,918.42003 a 0.53,0.53 0 0 0 -0.9,0.35 v 4.16 a 4.14,4.14 0 0 0 1.3,3 l 6,5.74 a 0.53,0.53 0 0 0 0.9,-0.35 v -4.17 a 4.11,4.11 0 0 0 -1.3,-3 z"
         id="path269-3"
         style="fill:#333132" />
      <path
         class="cls-6"
         d="m 30.240413,908.17003 a 0.53,0.53 0 0 0 -0.9,0.35 v 4.16 a 4.14,4.14 0 0 0 1.3,3 l 6,5.74 a 0.53,0.53 0 0 0 0.9,-0.35 v -4.16 a 4.14,4.14 0 0 0 -1.3,-3 z"
         id="path270-2"
         style="fill:#333132" />
      <path
         class="cls-6"
         d="m 30.240413,834.71003 a 0.53,0.53 0 0 0 -0.9,0.36 v 4.18 a 4.11,4.11 0 0 0 1.3,3 l 6,5.75 a 0.53,0.53 0 0 0 0.9,-0.36 v -4.16 a 4.15,4.15 0 0 0 -1.3,-3 z"
         id="path271-8"
         style="fill:#333132" />
      <path
         class="cls-6"
         d="m 29.510413,828.16003 h -0.17 v 0.82 a 4.15,4.15 0 0 0 1.3,3 l 6,5.74 a 0.53,0.53 0 0 0 0.9,-0.36 v -1.52 a 7.86,7.86 0 0 0 -8.03,-7.68 z"
         id="path272-0"
         style="fill:#333132" />
      <path
         class="cls-6"
         d="m 30.240413,866.31003 a 0.53,0.53 0 0 0 -0.9,0.36 v 4.16 a 4.14,4.14 0 0 0 1.3,3 l 6,5.74 a 0.53,0.53 0 0 0 0.9,-0.35 v -4.17 a 4.11,4.11 0 0 0 -1.3,-3 z"
         id="path273-7"
         style="fill:#333132" />
      <path
         class="cls-6"
         d="m 30.240413,845.39003 a 0.53,0.53 0 0 0 -0.9,0.35 v 4.17 a 4.11,4.11 0 0 0 1.3,3 l 6,5.74 a 0.53,0.53 0 0 0 0.9,-0.35 v -4.16 a 4.14,4.14 0 0 0 -1.3,-3 z"
         id="path274-8"
         style="fill:#333132" />
      <path
         class="cls-6"
         d="m 30.240413,855.64003 a 0.53,0.53 0 0 0 -0.9,0.35 v 4.17 a 4.13,4.13 0 0 0 1.3,3 l 6,5.74 a 0.53,0.53 0 0 0 0.9,-0.35 v -4.16 a 4.14,4.14 0 0 0 -1.3,-3 z"
         id="path275-6"
         style="fill:#333132" />
      <path
         class="cls-6"
         d="m 30.240413,887.25003 a 0.53,0.53 0 0 0 -0.9,0.36 v 4.16 a 4.11,4.11 0 0 0 1.3,3 l 6,5.75 a 0.53,0.53 0 0 0 0.9,-0.36 v -4.16 a 4.15,4.15 0 0 0 -1.3,-3 z"
         id="path276-6"
         style="fill:#333132" />
      <path
         class="cls-6"
         d="m 0.90041344,910.74003 5.99999996,-5.75 a 4.1,4.1 0 0 0 1.29,-3 v -4.17 a 0.52,0.52 0 0 0 -0.89,-0.35 l -6,5.74 a 4.17,4.17 0 0 0 -1.29999996054,3.04 v 4.16 a 0.53,0.53 0 0 0 0.90000000054,0.33 z"
         id="path277-5"
         style="fill:#333132" />
      <path
         class="cls-6"
         d="m 0.90041344,900.49003 5.99999996,-5.75 a 4.1,4.1 0 0 0 1.29,-3 v -4.16 a 0.52,0.52 0 0 0 -0.89,-0.36 l -6,5.74 a 4.17,4.17 0 0 0 -1.28999996,3 v 4.16 a 0.53,0.53 0 0 0 0.89,0.37 z"
         id="path278-4"
         style="fill:#333132" />
      <path
         class="cls-6"
         d="m 0.90041344,889.81003 5.99999996,-5.74 a 4.13,4.13 0 0 0 1.29,-3 v -4.16 a 0.53,0.53 0 0 0 -0.89,-0.36 l -6,5.75 a 4.14,4.14 0 0 0 -1.29999996054,2.95 v 4.16 a 0.53,0.53 0 0 0 0.90000000054,0.4 z"
         id="path279-5"
         style="fill:#333132" />
      <path
         class="cls-6"
         d="m 35.000413,943.89003 -4.76,-4.55 a 0.53,0.53 0 0 0 -0.9,0.36 v 4.16 a 4.14,4.14 0 0 0 0.58,2.09 8.17,8.17 0 0 0 5.08,-2.06 z"
         id="path280-2"
         style="fill:#333132" />
      <path
         class="cls-6"
         d="m 0.90041344,879.56003 5.99999996,-5.74 a 4.13,4.13 0 0 0 1.29,-3 v -4.16 a 0.53,0.53 0 0 0 -0.89,-0.36 l -6,5.75 a 4.14,4.14 0 0 0 -1.28999996,3 v 4.2 a 0.53,0.53 0 0 0 0.89,0.31 z"
         id="path281-6"
         style="fill:#333132" />
      <path
         class="cls-6"
         d="m 0.90041344,868.88003 5.99999996,-5.74 a 4.12,4.12 0 0 0 1.29,-3 v -4.17 a 0.52,0.52 0 0 0 -0.89,-0.35 l -6,5.74 a 4.16,4.16 0 0 0 -1.28999996,3 v 4.17 a 0.53,0.53 0 0 0 0.89,0.35 z"
         id="path282-4"
         style="fill:#333132" />
      <path
         class="cls-6"
         d="m 17.940413,942.95003 a 4.13,4.13 0 0 0 -1.29,-3 l -6,-5.74 a 0.53,0.53 0 0 0 -0.8999996,0.35 v 4.17 a 4.11,4.11 0 0 0 1.2999996,3 l 4.44,4.24 h 2.46 z"
         id="path283-0"
         style="fill:#333132" />
      <path
         class="cls-6"
         d="m 26.510413,941.72003 a 4.1,4.1 0 0 0 1.29,-3 v -4.17 a 0.52,0.52 0 0 0 -0.89,-0.35 l -6,5.74 a 4.14,4.14 0 0 0 -1.3,3 v 3 h 2.47 z"
         id="path284-0"
         style="fill:#333132" />
      <path
         class="cls-6"
         d="m 0.90041344,921.41003 5.99999996,-5.74 a 4.13,4.13 0 0 0 1.29,-3 v -4.16 a 0.52,0.52 0 0 0 -0.89,-0.35 l -6,5.74 a 4.16,4.16 0 0 0 -1.28999996,3 v 4.17 a 0.53,0.53 0 0 0 0.89,0.34 z"
         id="path285-6"
         style="fill:#333132" />
      <path
         class="cls-6"
         d="m 0.90041344,931.66003 5.99999996,-5.74 a 4.13,4.13 0 0 0 1.29,-3 v -4.16 a 0.52,0.52 0 0 0 -0.89,-0.35 l -6,5.74 a 4.14,4.14 0 0 0 -1.28999996,3 v 4.17 a 0.53,0.53 0 0 0 0.89,0.34 z"
         id="path286-4"
         style="fill:#333132" />
      <path
         class="cls-6"
         d="m 8.2004134,943.86003 v -4.16 a 0.53,0.53 0 0 0 -0.89,-0.36 l -4.76,4.55 a 8.15,8.15 0 0 0 5.07,2.06 4,4 0 0 0 0.58,-2.09 z"
         id="path287-4"
         style="fill:#333132" />
    </g>
    <g
       id="Axle1Tire2"
       transform="matrix(1.6506634,0,0,1,-207.95849,-631.97856)">
      <rect
         class="cls-5"
         x="281.69043"
         y="828.15997"
         width="37.549999"
         height="117.81"
         rx="7.8600001"
         id="rect383-6"
         style="fill:#403e3e" />
      <rect
         class="cls-5"
         x="281.69043"
         y="828.15997"
         width="37.549999"
         height="117.81"
         rx="7.8600001"
         id="rect384-8"
         style="fill:#403e3e" />
      <path
         class="cls-6"
         d="m 299.63041,869.92003 a 4.13,4.13 0 0 0 -1.29,-3 l -6,-5.74 a 0.52,0.52 0 0 0 -0.89,0.35 v 4.17 a 4.1,4.1 0 0 0 1.29,3 l 6,5.75 a 0.53,0.53 0 0 0 0.9,-0.36 z"
         id="path384-0"
         style="fill:#333132" />
      <path
         class="cls-6"
         d="m 299.63041,880.17003 a 4.13,4.13 0 0 0 -1.29,-3 l -6,-5.74 a 0.52,0.52 0 0 0 -0.89,0.35 v 4.17 a 4.1,4.1 0 0 0 1.29,3 l 6,5.74 a 0.53,0.53 0 0 0 0.9,-0.35 z"
         id="path385-8"
         style="fill:#333132" />
      <path
         class="cls-6"
         d="m 282.58041,837.71003 6,-5.74 a 4.18,4.18 0 0 0 1.29,-3 v -0.82 h -0.16 a 7.86,7.86 0 0 0 -8,7.67 v 1.52 a 0.53,0.53 0 0 0 0.87,0.37 z"
         id="path386-5"
         style="fill:#333132" />
      <path
         class="cls-6"
         d="m 299.63041,911.77003 a 4.1,4.1 0 0 0 -1.29,-3 l -6,-5.75 a 0.53,0.53 0 0 0 -0.89,0.36 v 4.16 a 4.14,4.14 0 0 0 1.29,3 l 6,5.74 a 0.53,0.53 0 0 0 0.9,-0.36 z"
         id="path387-3"
         style="fill:#333132" />
      <path
         class="cls-6"
         d="m 299.63041,901.09003 a 4.1,4.1 0 0 0 -1.29,-3 l -6,-5.74 a 0.52,0.52 0 0 0 -0.89,0.35 v 4.16 a 4.13,4.13 0 0 0 1.29,3 l 6,5.74 a 0.53,0.53 0 0 0 0.9,-0.35 z"
         id="path388-5"
         style="fill:#333132" />
      <path
         class="cls-6"
         d="m 299.63041,848.99003 a 4.1,4.1 0 0 0 -1.29,-3 l -6,-5.75 a 0.53,0.53 0 0 0 -0.89,0.36 v 4.16 a 4.13,4.13 0 0 0 1.29,3 l 6,5.74 a 0.53,0.53 0 0 0 0.9,-0.35 z"
         id="path389-5"
         style="fill:#333132" />
      <path
         class="cls-6"
         d="m 282.58041,847.96003 6,-5.75 a 4.14,4.14 0 0 0 1.29,-3 v -4.16 a 0.53,0.53 0 0 0 -0.9,-0.36 l -6,5.74 a 4.14,4.14 0 0 0 -1.29,3 v 4.16 a 0.53,0.53 0 0 0 0.9,0.37 z"
         id="path390-9"
         style="fill:#333132" />
      <path
         class="cls-6"
         d="m 299.63041,859.25003 a 4.1,4.1 0 0 0 -1.29,-3 l -6,-5.75 a 0.53,0.53 0 0 0 -0.89,0.36 v 4.16 a 4.14,4.14 0 0 0 1.29,3 l 6,5.74 a 0.53,0.53 0 0 0 0.9,-0.36 z"
         id="path391-5"
         style="fill:#333132" />
      <path
         class="cls-6"
         d="m 299.63041,828.16003 h -5.53 l 4.63,4.42 a 0.53,0.53 0 0 0 0.9,-0.35 z"
         id="path392-6"
         style="fill:#333132" />
      <path
         class="cls-6"
         d="m 292.32041,923.97003 a 0.52,0.52 0 0 0 -0.89,0.35 v 4.17 a 4.1,4.1 0 0 0 1.29,3 l 6,5.74 a 0.53,0.53 0 0 0 0.9,-0.35 v -4.16 a 4.13,4.13 0 0 0 -1.29,-3 z"
         id="path393-8"
         style="fill:#333132" />
      <path
         class="cls-6"
         d="m 299.63041,838.31003 a 4.1,4.1 0 0 0 -1.29,-3 l -6,-5.74 a 0.52,0.52 0 0 0 -0.89,0.35 v 4.16 a 4.13,4.13 0 0 0 1.29,3 l 6,5.74 a 0.53,0.53 0 0 0 0.9,-0.35 z"
         id="path394-1"
         style="fill:#333132" />
      <path
         class="cls-6"
         d="m 299.63041,890.84003 a 4.1,4.1 0 0 0 -1.29,-3 l -6,-5.74 a 0.52,0.52 0 0 0 -0.89,0.35 v 4.16 a 4.13,4.13 0 0 0 1.29,3 l 6,5.74 a 0.53,0.53 0 0 0 0.9,-0.35 z"
         id="path395-0"
         style="fill:#333132" />
      <path
         class="cls-6"
         d="m 309.49041,892.72003 a 0.53,0.53 0 0 0 -0.9,-0.35 l -6,5.74 a 4.1,4.1 0 0 0 -1.29,3 v 4.14 a 0.52,0.52 0 0 0 0.89,0.35 l 6,-5.74 a 4.13,4.13 0 0 0 1.29,-3 z"
         id="path396-9"
         style="fill:#333132" />
      <path
         class="cls-6"
         d="m 309.49041,903.40003 a 0.53,0.53 0 0 0 -0.9,-0.36 l -6,5.75 a 4.1,4.1 0 0 0 -1.29,3 v 4.16 a 0.53,0.53 0 0 0 0.89,0.36 l 6,-5.74 a 4.14,4.14 0 0 0 1.29,-3 z"
         id="path397-8"
         style="fill:#333132" />
      <path
         class="cls-6"
         d="m 309.49041,882.47003 a 0.53,0.53 0 0 0 -0.9,-0.35 l -6,5.74 a 4.1,4.1 0 0 0 -1.29,3 v 4.17 a 0.52,0.52 0 0 0 0.89,0.35 l 6,-5.74 a 4.13,4.13 0 0 0 1.29,-3 z"
         id="path398-6"
         style="fill:#333132" />
      <path
         class="cls-6"
         d="m 299.63041,922.02003 a 4.14,4.14 0 0 0 -1.29,-3 l -6,-5.74 a 0.53,0.53 0 0 0 -0.89,0.36 v 4.16 a 4.1,4.1 0 0 0 1.29,3 l 6,5.75 a 0.53,0.53 0 0 0 0.9,-0.36 z"
         id="path399-2"
         style="fill:#333132" />
      <path
         class="cls-6"
         d="m 308.59041,923.97003 -6,5.74 a 4.13,4.13 0 0 0 -1.29,3 v 4.16 a 0.52,0.52 0 0 0 0.89,0.35 l 6,-5.74 a 4.1,4.1 0 0 0 1.29,-3 v -4.17 a 0.53,0.53 0 0 0 -0.89,-0.34 z"
         id="path400-1"
         style="fill:#333132" />
      <path
         class="cls-6"
         d="m 288.60041,936.60003 a 4.18,4.18 0 0 0 1.29,-3 v -4.16 a 0.53,0.53 0 0 0 -0.9,-0.36 l -6,5.75 a 4.1,4.1 0 0 0 -1.29,3 v 0.47 a 7.38,7.38 0 0 0 1.09,3.86 z"
         id="path401-4"
         style="fill:#333132" />
      <path
         class="cls-6"
         d="m 309.49041,840.62003 a 0.53,0.53 0 0 0 -0.9,-0.36 l -6,5.75 a 4.1,4.1 0 0 0 -1.29,3 v 4.17 a 0.52,0.52 0 0 0 0.89,0.35 l 6,-5.74 a 4.13,4.13 0 0 0 1.29,-3 z"
         id="path402-7"
         style="fill:#333132" />
      <path
         class="cls-6"
         d="m 309.49041,829.94003 a 0.53,0.53 0 0 0 -0.9,-0.35 l -6,5.74 a 4.1,4.1 0 0 0 -1.29,3 v 4.17 a 0.52,0.52 0 0 0 0.89,0.35 l 6,-5.74 a 4.13,4.13 0 0 0 1.29,-3 z"
         id="path403-9"
         style="fill:#333132" />
      <path
         class="cls-6"
         d="m 309.49041,850.87003 a 0.53,0.53 0 0 0 -0.9,-0.36 l -6,5.75 a 4.1,4.1 0 0 0 -1.29,3 v 4.16 a 0.53,0.53 0 0 0 0.89,0.36 l 6,-5.74 a 4.14,4.14 0 0 0 1.29,-3 z"
         id="path404-2"
         style="fill:#333132" />
      <path
         class="cls-6"
         d="m 309.49041,871.79003 a 0.53,0.53 0 0 0 -0.9,-0.35 l -6,5.74 a 4.13,4.13 0 0 0 -1.29,3 v 4.16 a 0.52,0.52 0 0 0 0.89,0.35 l 6,-5.74 a 4.1,4.1 0 0 0 1.29,-3 z"
         id="path405-6"
         style="fill:#333132" />
      <path
         class="cls-6"
         d="m 309.49041,861.54003 a 0.53,0.53 0 0 0 -0.9,-0.35 l -6,5.74 a 4.13,4.13 0 0 0 -1.29,3 v 4.16 a 0.53,0.53 0 0 0 0.89,0.36 l 6,-5.75 a 4.1,4.1 0 0 0 1.29,-3 z"
         id="path406-5"
         style="fill:#333132" />
      <path
         class="cls-6"
         d="m 309.49041,913.65003 a 0.53,0.53 0 0 0 -0.9,-0.36 l -6,5.74 a 4.14,4.14 0 0 0 -1.29,3 v 4.16 a 0.53,0.53 0 0 0 0.89,0.36 l 6,-5.75 a 4.1,4.1 0 0 0 1.29,-3 z"
         id="path407-8"
         style="fill:#333132" />
      <path
         class="cls-6"
         d="m 311.92041,897.49003 a 0.52,0.52 0 0 0 -0.89,0.35 v 4.17 a 4.1,4.1 0 0 0 1.29,3 l 6,5.75 a 0.53,0.53 0 0 0 0.89,-0.36 v -4.15 a 4.13,4.13 0 0 0 -1.29,-3 z"
         id="path408-7"
         style="fill:#333132" />
      <path
         class="cls-6"
         d="m 301.29041,832.25003 a 0.52,0.52 0 0 0 0.89,0.35 l 4.64,-4.42 h -5.53 z"
         id="path409-8"
         style="fill:#333132" />
      <path
         class="cls-6"
         d="m 282.58041,858.63003 6,-5.74 a 4.14,4.14 0 0 0 1.29,-3 v -4.17 a 0.53,0.53 0 0 0 -0.9,-0.35 l -6,5.74 a 4.13,4.13 0 0 0 -1.29,3 v 4.14 a 0.52,0.52 0 0 0 0.9,0.38 z"
         id="path410-5"
         style="fill:#333132" />
      <path
         class="cls-6"
         d="m 311.92041,929.09003 a 0.53,0.53 0 0 0 -0.89,0.36 v 4.16 a 4.14,4.14 0 0 0 1.29,3 l 5.82,5.55 a 7.38,7.38 0 0 0 1.09,-3.86 v -0.47 a 4.1,4.1 0 0 0 -1.29,-3 z"
         id="path411-7"
         style="fill:#333132" />
      <path
         class="cls-6"
         d="m 311.92041,876.56003 a 0.53,0.53 0 0 0 -0.89,0.36 v 4.16 a 4.13,4.13 0 0 0 1.29,3 l 6,5.74 a 0.52,0.52 0 0 0 0.89,-0.36 v -4.21 a 4.1,4.1 0 0 0 -1.29,-3 z"
         id="path412-8"
         style="fill:#333132" />
      <path
         class="cls-6"
         d="m 311.92041,918.42003 a 0.52,0.52 0 0 0 -0.89,0.35 v 4.16 a 4.13,4.13 0 0 0 1.29,3 l 6,5.74 a 0.52,0.52 0 0 0 0.89,-0.35 v -4.17 a 4.1,4.1 0 0 0 -1.29,-3 z"
         id="path413-2"
         style="fill:#333132" />
      <path
         class="cls-6"
         d="m 311.92041,908.17003 a 0.52,0.52 0 0 0 -0.89,0.35 v 4.16 a 4.13,4.13 0 0 0 1.29,3 l 6,5.74 a 0.52,0.52 0 0 0 0.89,-0.35 v -4.16 a 4.13,4.13 0 0 0 -1.29,-3 z"
         id="path414-4"
         style="fill:#333132" />
      <path
         class="cls-6"
         d="m 311.92041,834.71003 a 0.53,0.53 0 0 0 -0.89,0.36 v 4.18 a 4.1,4.1 0 0 0 1.29,3 l 6,5.75 a 0.53,0.53 0 0 0 0.89,-0.36 v -4.16 a 4.14,4.14 0 0 0 -1.29,-3 z"
         id="path415-9"
         style="fill:#333132" />
      <path
         class="cls-6"
         d="m 311.19041,828.16003 h -0.19 v 0.82 a 4.14,4.14 0 0 0 1.29,3 l 6,5.74 a 0.53,0.53 0 0 0 0.89,-0.36 v -1.52 a 7.86,7.86 0 0 0 -7.99,-7.68 z"
         id="path416-3"
         style="fill:#333132" />
      <path
         class="cls-6"
         d="m 311.92041,866.31003 a 0.53,0.53 0 0 0 -0.89,0.36 v 4.16 a 4.13,4.13 0 0 0 1.29,3 l 6,5.74 a 0.52,0.52 0 0 0 0.89,-0.35 v -4.17 a 4.1,4.1 0 0 0 -1.29,-3 z"
         id="path417-2"
         style="fill:#333132" />
      <path
         class="cls-6"
         d="m 311.92041,845.39003 a 0.52,0.52 0 0 0 -0.89,0.35 v 4.17 a 4.1,4.1 0 0 0 1.29,3 l 6,5.74 a 0.52,0.52 0 0 0 0.89,-0.35 v -4.16 a 4.13,4.13 0 0 0 -1.29,-3 z"
         id="path418-6"
         style="fill:#333132" />
      <path
         class="cls-6"
         d="m 311.92041,855.64003 a 0.52,0.52 0 0 0 -0.89,0.35 v 4.17 a 4.12,4.12 0 0 0 1.29,3 l 6,5.74 a 0.52,0.52 0 0 0 0.89,-0.35 v -4.16 a 4.13,4.13 0 0 0 -1.29,-3 z"
         id="path419-4"
         style="fill:#333132" />
      <path
         class="cls-6"
         d="m 311.92041,887.25003 a 0.52,0.52 0 0 0 -0.89,0.36 v 4.16 a 4.1,4.1 0 0 0 1.29,3 l 6,5.75 a 0.53,0.53 0 0 0 0.89,-0.36 v -4.16 a 4.14,4.14 0 0 0 -1.29,-3 z"
         id="path420-4"
         style="fill:#333132" />
      <path
         class="cls-6"
         d="m 282.58041,910.74003 6,-5.75 a 4.14,4.14 0 0 0 1.29,-3 v -4.17 a 0.53,0.53 0 0 0 -0.9,-0.35 l -5.97,5.78 a 4.13,4.13 0 0 0 -1.29,3 v 4.16 a 0.53,0.53 0 0 0 0.87,0.33 z"
         id="path421-6"
         style="fill:#333132" />
      <path
         class="cls-6"
         d="m 282.58041,900.49003 6,-5.75 a 4.14,4.14 0 0 0 1.29,-3 v -4.16 a 0.53,0.53 0 0 0 -0.9,-0.36 l -6,5.74 a 4.13,4.13 0 0 0 -1.29,3 v 4.16 a 0.53,0.53 0 0 0 0.9,0.37 z"
         id="path422-0"
         style="fill:#333132" />
      <path
         class="cls-6"
         d="m 282.58041,889.81003 6,-5.74 a 4.17,4.17 0 0 0 1.29,-3 v -4.16 a 0.53,0.53 0 0 0 -0.9,-0.36 l -6,5.75 a 4.1,4.1 0 0 0 -1.29,3 v 4.16 a 0.52,0.52 0 0 0 0.9,0.35 z"
         id="path423-3"
         style="fill:#333132" />
      <path
         class="cls-6"
         d="m 316.69041,943.89003 -4.77,-4.55 a 0.53,0.53 0 0 0 -0.89,0.36 v 4.16 a 4,4 0 0 0 0.58,2.09 8.2,8.2 0 0 0 5.08,-2.06 z"
         id="path424-1"
         style="fill:#333132" />
      <path
         class="cls-6"
         d="m 282.58041,879.56003 6,-5.74 a 4.17,4.17 0 0 0 1.29,-3 v -4.16 a 0.53,0.53 0 0 0 -0.9,-0.36 l -6,5.75 a 4.1,4.1 0 0 0 -1.29,3 v 4.2 a 0.52,0.52 0 0 0 0.9,0.31 z"
         id="path425-1"
         style="fill:#333132" />
      <path
         class="cls-6"
         d="m 282.58041,868.88003 6,-5.74 a 4.16,4.16 0 0 0 1.29,-3 v -4.17 a 0.53,0.53 0 0 0 -0.9,-0.35 l -6,5.74 a 4.12,4.12 0 0 0 -1.29,3 v 4.17 a 0.52,0.52 0 0 0 0.9,0.35 z"
         id="path426-4"
         style="fill:#333132" />
      <path
         class="cls-6"
         d="m 299.63041,942.95003 a 4.13,4.13 0 0 0 -1.29,-3 l -6,-5.74 a 0.52,0.52 0 0 0 -0.89,0.35 v 4.17 a 4.1,4.1 0 0 0 1.29,3 l 4.45,4.24 h 2.46 z"
         id="path427-2"
         style="fill:#333132" />
      <path
         class="cls-6"
         d="m 308.20041,941.72003 a 4.1,4.1 0 0 0 1.29,-3 v -4.17 a 0.53,0.53 0 0 0 -0.9,-0.35 l -6,5.74 a 4.13,4.13 0 0 0 -1.29,3 v 3 h 2.46 z"
         id="path428-0"
         style="fill:#333132" />
      <path
         class="cls-6"
         d="m 282.58041,921.41003 6,-5.74 a 4.17,4.17 0 0 0 1.29,-3 v -4.16 a 0.53,0.53 0 0 0 -0.9,-0.35 l -6,5.74 a 4.12,4.12 0 0 0 -1.29,3 v 4.17 a 0.52,0.52 0 0 0 0.9,0.34 z"
         id="path429-7"
         style="fill:#333132" />
      <path
         class="cls-6"
         d="m 282.58041,931.66003 6,-5.74 a 4.17,4.17 0 0 0 1.29,-3 v -4.16 a 0.53,0.53 0 0 0 -0.9,-0.35 l -6,5.74 a 4.1,4.1 0 0 0 -1.29,3 v 4.17 a 0.52,0.52 0 0 0 0.9,0.34 z"
         id="path430-7"
         style="fill:#333132" />
      <path
         class="cls-6"
         d="m 289.89041,943.86003 v -4.16 a 0.53,0.53 0 0 0 -0.9,-0.36 l -4.76,4.55 a 8.17,8.17 0 0 0 5.08,2.06 4,4 0 0 0 0.58,-2.09 z"
         id="path431-1"
         style="fill:#333132" />
    </g>
    <path
       class="cls-2"
       d="m 95.830413,239.27147 h 15.469997 v 41.85 H 95.830413 a 6.3,6.3 0 0 1 -6.3,-6.3 v -29.21 a 6.3,6.3 0 0 1 6.3,-6.34 z"
       id="path433-8"
       style="fill:#9d9fa2;stroke:#333132;stroke-width:0.82px;stroke-miterlimit:10" />
    <path
       class="cls-2"
       d="m 223.38042,281.20146 h -15.47 v -41.85 h 15.47 a 6.3,6.3 0 0 1 6.3,6.3 v 29.21 a 6.3,6.3 0 0 1 -6.3,6.3 z"
       id="path434-4"
       style="fill:#9d9fa2;stroke:#333132;stroke-width:0.82px;stroke-miterlimit:10" />
    <use
       x="0"
       y="0"
       xlink:href="#rect18"
       id="use635"
       transform="translate(0,200)" />
  </g>
  <g
     inkscape:groupmode="layer"
     id="layer1"
     inkscape:label="TrailerAxle3"
     style="display:inline"
     transform="translate(4.1343945e-4)">
    <rect
       class="cls-2"
       x="14.77"
       y="519.64142"
       width="286.51999"
       height="10.65"
       id="rect45" />
    <path
       class="cls-2"
       d="m 192,515.50144 -8.88,-4.27 a 4.38,4.38 0 0 0 -1.88,-0.43 h -46.46 a 4.31,4.31 0 0 0 -1.87,0.43 l -8.88,4.27 a 4.38,4.38 0 0 1 -1.88,0.43 H 122 a 4.32,4.32 0 0 0 -4.32,4.32 v 9.42 a 4.33,4.33 0 0 0 4.32,4.35 h 0.15 a 4.24,4.24 0 0 1 1.88,0.43 l 8.88,4.27 a 4.3,4.3 0 0 0 1.87,0.42 h 46.49 a 4.37,4.37 0 0 0 1.88,-0.42 l 8.88,-4.27 a 4.17,4.17 0 0 1 1.87,-0.43 h 0.15 a 4.32,4.32 0 0 0 4.32,-4.32 v -9.42 a 4.31,4.31 0 0 0 -4.32,-4.32 h -0.15 a 4.31,4.31 0 0 1 -1.9,-0.46 z"
       id="path45" />
    <g
       id="Axle3Tire1"
       transform="matrix(1.6511317,0,0,1,0,-631.97856)">
      <rect
         class="cls-5"
         y="1092.88"
         width="37.549999"
         height="117.81"
         rx="7.8600001"
         id="rect46"
         x="0" />
      <rect
         class="cls-5"
         y="1092.88"
         width="37.549999"
         height="117.81"
         rx="7.8600001"
         id="rect47"
         x="0" />
      <path
         class="cls-6"
         d="m 17.94,1134.64 a 4.14,4.14 0 0 0 -1.29,-3 l -6,-5.74 a 0.53,0.53 0 0 0 -0.9,0.36 v 4.16 a 4.11,4.11 0 0 0 1.3,3 l 6,5.75 a 0.53,0.53 0 0 0 0.89,-0.36 z"
         id="path47" />
      <path
         class="cls-6"
         d="m 17.94,1144.89 a 4.13,4.13 0 0 0 -1.29,-3 l -6,-5.74 a 0.53,0.53 0 0 0 -0.9,0.35 v 4.17 a 4.11,4.11 0 0 0 1.3,3 l 6,5.75 a 0.53,0.53 0 0 0 0.89,-0.36 z"
         id="path48" />
      <path
         class="cls-6"
         d="m 0.9,1102.43 6,-5.74 a 4.14,4.14 0 0 0 1.29,-3 v -0.82 H 8 a 7.86,7.86 0 0 0 -8,7.67 v 1.52 a 0.53,0.53 0 0 0 0.9,0.37 z"
         id="path49" />
      <path
         class="cls-6"
         d="m 17.94,1176.49 a 4.1,4.1 0 0 0 -1.29,-3 l -6,-5.75 a 0.53,0.53 0 0 0 -0.9,0.36 v 4.16 a 4.14,4.14 0 0 0 1.3,3 l 6,5.74 a 0.52,0.52 0 0 0 0.89,-0.35 z"
         id="path50" />
      <path
         class="cls-6"
         d="m 17.94,1165.81 a 4.1,4.1 0 0 0 -1.29,-3 l -6,-5.74 a 0.53,0.53 0 0 0 -0.9,0.35 v 4.16 a 4.14,4.14 0 0 0 1.3,3 l 6,5.74 a 0.52,0.52 0 0 0 0.89,-0.35 z"
         id="path51" />
      <path
         class="cls-6"
         d="m 17.94,1113.71 a 4.1,4.1 0 0 0 -1.29,-3 l -6,-5.74 a 0.53,0.53 0 0 0 -0.9,0.35 v 4.16 a 4.14,4.14 0 0 0 1.3,3 l 6,5.74 a 0.52,0.52 0 0 0 0.89,-0.35 z"
         id="path52" />
      <path
         class="cls-6"
         d="m 0.9,1112.68 6,-5.74 a 4.14,4.14 0 0 0 1.29,-3 v -4.16 a 0.53,0.53 0 0 0 -0.89,-0.36 l -6,5.74 a 4.18,4.18 0 0 0 -1.29,3 v 4.16 a 0.53,0.53 0 0 0 0.89,0.36 z"
         id="path53" />
      <path
         class="cls-6"
         d="m 17.94,1124 a 4.1,4.1 0 0 0 -1.29,-3 l -6,-5.75 a 0.53,0.53 0 0 0 -0.9,0.36 v 4.16 a 4.14,4.14 0 0 0 1.3,3 l 6,5.74 a 0.52,0.52 0 0 0 0.89,-0.35 z"
         id="path54" />
      <path
         class="cls-6"
         d="m 17.94,1092.88 h -5.53 l 4.64,4.42 a 0.52,0.52 0 0 0 0.89,-0.35 z"
         id="path55" />
      <path
         class="cls-6"
         d="m 10.64,1188.69 a 0.53,0.53 0 0 0 -0.9,0.35 v 4.17 a 4.11,4.11 0 0 0 1.3,3 l 6,5.75 a 0.53,0.53 0 0 0 0.89,-0.36 v -4.16 a 4.13,4.13 0 0 0 -1.29,-3 z"
         id="path56" />
      <path
         class="cls-6"
         d="m 17.94,1103 a 4.13,4.13 0 0 0 -1.29,-3 l -6,-5.74 a 0.53,0.53 0 0 0 -0.9,0.35 v 4.17 a 4.11,4.11 0 0 0 1.3,3 l 6,5.74 a 0.52,0.52 0 0 0 0.89,-0.35 z"
         id="path57" />
      <path
         class="cls-6"
         d="m 17.94,1155.57 a 4.13,4.13 0 0 0 -1.29,-3 l -6,-5.74 a 0.53,0.53 0 0 0 -0.9,0.35 v 4.17 a 4.11,4.11 0 0 0 1.3,3 l 6,5.74 a 0.52,0.52 0 0 0 0.89,-0.35 z"
         id="path58" />
      <path
         class="cls-6"
         d="m 27.8,1157.44 a 0.52,0.52 0 0 0 -0.89,-0.35 l -6,5.74 a 4.11,4.11 0 0 0 -1.3,3 v 4.17 a 0.53,0.53 0 0 0 0.9,0.35 l 6,-5.74 a 4.13,4.13 0 0 0 1.29,-3 z"
         id="path59" />
      <path
         class="cls-6"
         d="m 27.8,1168.12 a 0.53,0.53 0 0 0 -0.89,-0.36 l -6,5.75 a 4.11,4.11 0 0 0 -1.3,3 v 4.17 a 0.53,0.53 0 0 0 0.9,0.35 l 6,-5.74 a 4.13,4.13 0 0 0 1.29,-3 z"
         id="path60" />
      <path
         class="cls-6"
         d="m 27.8,1147.19 a 0.52,0.52 0 0 0 -0.89,-0.35 l -6,5.74 a 4.14,4.14 0 0 0 -1.3,3 v 4.16 a 0.53,0.53 0 0 0 0.9,0.35 l 6,-5.74 a 4.1,4.1 0 0 0 1.29,-3 z"
         id="path61" />
      <path
         class="cls-6"
         d="m 17.94,1186.74 a 4.14,4.14 0 0 0 -1.29,-3 l -6,-5.74 a 0.53,0.53 0 0 0 -0.9,0.36 v 4.16 a 4.15,4.15 0 0 0 1.3,3 l 6,5.74 a 0.53,0.53 0 0 0 0.89,-0.36 z"
         id="path62" />
      <path
         class="cls-6"
         d="m 26.91,1188.69 -6,5.74 a 4.14,4.14 0 0 0 -1.3,3 v 4.16 a 0.53,0.53 0 0 0 0.9,0.36 l 6,-5.75 a 4.1,4.1 0 0 0 1.29,-3 v -4.2 a 0.52,0.52 0 0 0 -0.89,-0.31 z"
         id="path63" />
      <path
         class="cls-6"
         d="m 6.91,1201.32 a 4.13,4.13 0 0 0 1.29,-3 v -4.16 a 0.53,0.53 0 0 0 -0.89,-0.36 l -6,5.75 a 4.14,4.14 0 0 0 -1.29,3 v 0.47 a 7.38,7.38 0 0 0 1.09,3.86 z"
         id="path64" />
      <path
         class="cls-6"
         d="m 27.8,1105.34 a 0.52,0.52 0 0 0 -0.89,-0.35 l -6,5.74 a 4.11,4.11 0 0 0 -1.3,3 v 4.17 a 0.53,0.53 0 0 0 0.9,0.35 l 6,-5.74 a 4.13,4.13 0 0 0 1.29,-3 z"
         id="path65" />
      <path
         class="cls-6"
         d="m 27.8,1094.66 a 0.52,0.52 0 0 0 -0.89,-0.35 l -6,5.74 a 4.14,4.14 0 0 0 -1.3,3 v 4.16 a 0.53,0.53 0 0 0 0.9,0.35 l 6,-5.74 a 4.1,4.1 0 0 0 1.29,-3 z"
         id="path66" />
      <path
         class="cls-6"
         d="m 27.8,1115.59 a 0.53,0.53 0 0 0 -0.89,-0.36 l -6,5.75 a 4.11,4.11 0 0 0 -1.3,3 v 4.17 a 0.53,0.53 0 0 0 0.9,0.35 l 6,-5.74 a 4.13,4.13 0 0 0 1.29,-3 z"
         id="path67" />
      <path
         class="cls-6"
         d="m 27.8,1136.51 a 0.52,0.52 0 0 0 -0.89,-0.35 l -6,5.74 a 4.14,4.14 0 0 0 -1.3,3 v 4.16 a 0.53,0.53 0 0 0 0.9,0.36 l 6,-5.75 a 4.1,4.1 0 0 0 1.29,-3 z"
         id="path68" />
      <path
         class="cls-6"
         d="m 27.8,1126.27 a 0.53,0.53 0 0 0 -0.89,-0.36 l -6,5.74 a 4.15,4.15 0 0 0 -1.3,3 v 4.16 a 0.53,0.53 0 0 0 0.9,0.36 l 6,-5.75 a 4.1,4.1 0 0 0 1.29,-3 z"
         id="path69" />
      <path
         class="cls-6"
         d="m 27.8,1178.37 a 0.53,0.53 0 0 0 -0.89,-0.36 l -6,5.74 a 4.15,4.15 0 0 0 -1.3,3 v 4.16 a 0.53,0.53 0 0 0 0.9,0.36 l 6,-5.74 a 4.14,4.14 0 0 0 1.29,-3 z"
         id="path70" />
      <path
         class="cls-6"
         d="m 30.24,1162.21 a 0.53,0.53 0 0 0 -0.9,0.36 v 4.16 a 4.11,4.11 0 0 0 1.3,3 l 6,5.75 a 0.53,0.53 0 0 0 0.9,-0.36 v -4.16 a 4.14,4.14 0 0 0 -1.3,-3 z"
         id="path71" />
      <path
         class="cls-6"
         d="m 19.6,1097 a 0.53,0.53 0 0 0 0.9,0.35 l 4.63,-4.42 H 19.6 Z"
         id="path72" />
      <path
         class="cls-6"
         d="m 0.9,1123.36 6,-5.75 a 4.1,4.1 0 0 0 1.29,-3 v -4.17 a 0.52,0.52 0 0 0 -0.89,-0.35 l -6,5.74 a 4.17,4.17 0 0 0 -1.29,3 v 4.17 a 0.53,0.53 0 0 0 0.89,0.36 z"
         id="path73" />
      <path
         class="cls-6"
         d="m 30.24,1193.81 a 0.53,0.53 0 0 0 -0.9,0.36 v 4.16 a 4.14,4.14 0 0 0 1.3,3 l 5.81,5.55 a 7.3,7.3 0 0 0 1.1,-3.86 v -0.47 a 4.11,4.11 0 0 0 -1.3,-3 z"
         id="path74" />
      <path
         class="cls-6"
         d="m 30.24,1141.28 a 0.53,0.53 0 0 0 -0.9,0.36 v 4.16 a 4.14,4.14 0 0 0 1.3,3 l 6,5.74 a 0.53,0.53 0 0 0 0.9,-0.35 V 1150 a 4.11,4.11 0 0 0 -1.3,-3 z"
         id="path75" />
      <path
         class="cls-6"
         d="m 30.24,1183.14 a 0.53,0.53 0 0 0 -0.9,0.35 v 4.16 a 4.14,4.14 0 0 0 1.3,3 l 6,5.74 a 0.53,0.53 0 0 0 0.9,-0.35 v -4.17 a 4.11,4.11 0 0 0 -1.3,-3 z"
         id="path76" />
      <path
         class="cls-6"
         d="m 30.24,1172.89 a 0.53,0.53 0 0 0 -0.9,0.35 v 4.17 a 4.11,4.11 0 0 0 1.3,3 l 6,5.74 a 0.53,0.53 0 0 0 0.9,-0.35 v -4.16 a 4.14,4.14 0 0 0 -1.3,-3 z"
         id="path77" />
      <path
         class="cls-6"
         d="m 30.24,1099.43 a 0.53,0.53 0 0 0 -0.9,0.36 v 4.21 a 4.15,4.15 0 0 0 1.3,3 l 6,5.74 a 0.53,0.53 0 0 0 0.9,-0.36 v -4.16 a 4.15,4.15 0 0 0 -1.3,-3 z"
         id="path78" />
      <path
         class="cls-6"
         d="m 29.51,1092.88 h -0.17 v 0.82 a 4.15,4.15 0 0 0 1.3,3 l 6,5.74 a 0.53,0.53 0 0 0 0.9,-0.36 v -1.52 a 7.86,7.86 0 0 0 -8.03,-7.68 z"
         id="path79" />
      <path
         class="cls-6"
         d="m 30.24,1131 a 0.53,0.53 0 0 0 -0.9,0.35 v 4.16 a 4.14,4.14 0 0 0 1.3,3 l 6,5.74 a 0.53,0.53 0 0 0 0.9,-0.35 v -4.17 a 4.11,4.11 0 0 0 -1.3,-3 z"
         id="path80" />
      <path
         class="cls-6"
         d="m 30.24,1110.11 a 0.53,0.53 0 0 0 -0.9,0.35 v 4.17 a 4.11,4.11 0 0 0 1.3,3 l 6,5.75 a 0.53,0.53 0 0 0 0.9,-0.36 v -4.16 a 4.14,4.14 0 0 0 -1.3,-3 z"
         id="path81" />
      <path
         class="cls-6"
         d="m 30.24,1120.36 a 0.53,0.53 0 0 0 -0.9,0.35 v 4.17 a 4.11,4.11 0 0 0 1.3,3 l 6,5.74 a 0.53,0.53 0 0 0 0.9,-0.35 v -4.16 a 4.14,4.14 0 0 0 -1.3,-3 z"
         id="path82" />
      <path
         class="cls-6"
         d="m 30.24,1152 a 0.53,0.53 0 0 0 -0.9,0.36 v 4.16 a 4.15,4.15 0 0 0 1.3,3 l 6,5.74 a 0.53,0.53 0 0 0 0.9,-0.36 v -4.16 a 4.15,4.15 0 0 0 -1.3,-3 z"
         id="path83" />
      <path
         class="cls-6"
         d="m 0.9,1175.46 6,-5.75 a 4.1,4.1 0 0 0 1.29,-3 v -4.16 a 0.52,0.52 0 0 0 -0.89,-0.36 l -6,5.74 a 4.17,4.17 0 0 0 -1.29,3 v 4.16 a 0.53,0.53 0 0 0 0.89,0.37 z"
         id="path84" />
      <path
         class="cls-6"
         d="m 0.9,1165.21 6,-5.74 a 4.14,4.14 0 0 0 1.29,-3 v -4.16 a 0.53,0.53 0 0 0 -0.89,-0.36 l -6,5.74 a 4.18,4.18 0 0 0 -1.29,3 v 4.16 a 0.53,0.53 0 0 0 0.89,0.36 z"
         id="path85" />
      <path
         class="cls-6"
         d="m 0.9,1154.53 6,-5.74 a 4.13,4.13 0 0 0 1.29,-3 v -4.16 a 0.53,0.53 0 0 0 -0.89,-0.36 l -6,5.75 A 4.14,4.14 0 0 0 0,1150 v 4.17 a 0.53,0.53 0 0 0 0.9,0.36 z"
         id="path86" />
      <path
         class="cls-6"
         d="m 35,1208.61 -4.76,-4.55 a 0.53,0.53 0 0 0 -0.9,0.36 v 4.16 a 4.2,4.2 0 0 0 0.58,2.1 8.24,8.24 0 0 0 5.08,-2.07 z"
         id="path87" />
      <path
         class="cls-6"
         d="m 0.9,1144.28 6,-5.74 a 4.13,4.13 0 0 0 1.29,-3 v -4.16 a 0.52,0.52 0 0 0 -0.89,-0.35 l -6,5.74 a 4.14,4.14 0 0 0 -1.29,3 v 4.17 a 0.53,0.53 0 0 0 0.89,0.34 z"
         id="path88" />
      <path
         class="cls-6"
         d="m 0.9,1133.6 6,-5.74 a 4.1,4.1 0 0 0 1.29,-3 v -4.17 a 0.52,0.52 0 0 0 -0.89,-0.35 l -6,5.74 a 4.17,4.17 0 0 0 -1.29,3 v 4.16 a 0.53,0.53 0 0 0 0.89,0.36 z"
         id="path89" />
      <path
         class="cls-6"
         d="m 17.94,1207.67 a 4.13,4.13 0 0 0 -1.29,-3 l -6,-5.74 a 0.53,0.53 0 0 0 -0.9,0.35 v 4.17 a 4.11,4.11 0 0 0 1.3,3 l 4.44,4.25 h 2.46 z"
         id="path90" />
      <path
         class="cls-6"
         d="m 26.51,1206.44 a 4.1,4.1 0 0 0 1.29,-3 v -4.17 a 0.52,0.52 0 0 0 -0.89,-0.35 l -6,5.74 a 4.14,4.14 0 0 0 -1.3,3 v 3 h 2.47 z"
         id="path91" />
      <path
         class="cls-6"
         d="m 0.9,1186.13 6,-5.74 a 4.1,4.1 0 0 0 1.29,-3 v -4.17 a 0.52,0.52 0 0 0 -0.89,-0.35 l -6,5.74 a 4.17,4.17 0 0 0 -1.29,3 v 4.16 a 0.53,0.53 0 0 0 0.89,0.36 z"
         id="path92" />
      <path
         class="cls-6"
         d="m 0.9,1196.38 6,-5.74 a 4.13,4.13 0 0 0 1.29,-3 v -4.16 a 0.52,0.52 0 0 0 -0.89,-0.35 l -6,5.74 a 4.14,4.14 0 0 0 -1.29,3 v 4.13 a 0.53,0.53 0 0 0 0.89,0.38 z"
         id="path93" />
      <path
         class="cls-6"
         d="m 8.2,1208.58 v -4.16 a 0.53,0.53 0 0 0 -0.89,-0.36 l -4.76,4.55 a 8.21,8.21 0 0 0 5.07,2.07 4.1,4.1 0 0 0 0.58,-2.1 z"
         id="path94" />
    </g>
    <g
       id="Axle3Tire2"
       transform="matrix(1.6506642,0,0,1,-207.95804,-631.97856)">
      <rect
         class="cls-5"
         x="281.69"
         y="1092.88"
         width="37.549999"
         height="117.81"
         rx="7.8600001"
         id="rect190" />
      <rect
         class="cls-5"
         x="281.69"
         y="1092.88"
         width="37.549999"
         height="117.81"
         rx="7.8600001"
         id="rect191" />
      <path
         class="cls-6"
         d="m 299.63,1134.64 a 4.14,4.14 0 0 0 -1.29,-3 l -6,-5.74 a 0.53,0.53 0 0 0 -0.89,0.36 v 4.16 a 4.1,4.1 0 0 0 1.29,3 l 6,5.75 a 0.53,0.53 0 0 0 0.9,-0.36 z"
         id="path191" />
      <path
         class="cls-6"
         d="m 299.63,1144.89 a 4.13,4.13 0 0 0 -1.29,-3 l -6,-5.74 a 0.52,0.52 0 0 0 -0.89,0.35 v 4.17 a 4.1,4.1 0 0 0 1.29,3 l 6,5.75 a 0.53,0.53 0 0 0 0.9,-0.36 z"
         id="path192" />
      <path
         class="cls-6"
         d="m 282.58,1102.43 6,-5.74 a 4.18,4.18 0 0 0 1.29,-3 v -0.82 h -0.16 a 7.86,7.86 0 0 0 -8,7.67 v 1.52 a 0.52,0.52 0 0 0 0.87,0.37 z"
         id="path193" />
      <path
         class="cls-6"
         d="m 299.63,1176.49 a 4.1,4.1 0 0 0 -1.29,-3 l -6,-5.75 a 0.53,0.53 0 0 0 -0.89,0.36 v 4.16 a 4.13,4.13 0 0 0 1.29,3 l 6,5.74 a 0.53,0.53 0 0 0 0.9,-0.35 z"
         id="path194" />
      <path
         class="cls-6"
         d="m 299.63,1165.81 a 4.1,4.1 0 0 0 -1.29,-3 l -6,-5.74 a 0.52,0.52 0 0 0 -0.89,0.35 v 4.16 a 4.13,4.13 0 0 0 1.29,3 l 6,5.74 a 0.53,0.53 0 0 0 0.9,-0.35 z"
         id="path195" />
      <path
         class="cls-6"
         d="m 299.63,1113.71 a 4.1,4.1 0 0 0 -1.29,-3 l -6,-5.74 a 0.52,0.52 0 0 0 -0.89,0.35 v 4.16 a 4.13,4.13 0 0 0 1.29,3 l 6,5.74 a 0.53,0.53 0 0 0 0.9,-0.35 z"
         id="path196" />
      <path
         class="cls-6"
         d="m 282.58,1112.68 6,-5.74 a 4.18,4.18 0 0 0 1.29,-3 v -4.16 a 0.53,0.53 0 0 0 -0.9,-0.36 l -6,5.74 a 4.14,4.14 0 0 0 -1.29,3 v 4.16 a 0.53,0.53 0 0 0 0.9,0.36 z"
         id="path197" />
      <path
         class="cls-6"
         d="m 299.63,1124 a 4.1,4.1 0 0 0 -1.29,-3 l -6,-5.75 a 0.53,0.53 0 0 0 -0.89,0.36 v 4.16 a 4.13,4.13 0 0 0 1.29,3 l 6,5.74 a 0.53,0.53 0 0 0 0.9,-0.35 z"
         id="path198" />
      <path
         class="cls-6"
         d="m 299.63,1092.88 h -5.53 l 4.63,4.42 a 0.53,0.53 0 0 0 0.9,-0.35 z"
         id="path199" />
      <path
         class="cls-6"
         d="m 292.32,1188.69 a 0.52,0.52 0 0 0 -0.89,0.35 v 4.17 a 4.1,4.1 0 0 0 1.29,3 l 6,5.75 a 0.53,0.53 0 0 0 0.9,-0.36 v -4.16 a 4.13,4.13 0 0 0 -1.29,-3 z"
         id="path200" />
      <path
         class="cls-6"
         d="m 299.63,1103 a 4.13,4.13 0 0 0 -1.29,-3 l -6,-5.74 a 0.52,0.52 0 0 0 -0.89,0.35 v 4.17 a 4.1,4.1 0 0 0 1.29,3 l 6,5.74 a 0.53,0.53 0 0 0 0.9,-0.35 z"
         id="path201" />
      <path
         class="cls-6"
         d="m 299.63,1155.57 a 4.13,4.13 0 0 0 -1.29,-3 l -6,-5.74 a 0.52,0.52 0 0 0 -0.89,0.35 v 4.17 a 4.1,4.1 0 0 0 1.29,3 l 6,5.74 a 0.53,0.53 0 0 0 0.9,-0.35 z"
         id="path202" />
      <path
         class="cls-6"
         d="m 309.49,1157.44 a 0.53,0.53 0 0 0 -0.9,-0.35 l -6,5.74 a 4.1,4.1 0 0 0 -1.29,3 v 4.17 a 0.52,0.52 0 0 0 0.89,0.35 l 6,-5.74 a 4.13,4.13 0 0 0 1.29,-3 z"
         id="path203" />
      <path
         class="cls-6"
         d="m 309.49,1168.12 a 0.53,0.53 0 0 0 -0.9,-0.36 l -6,5.75 a 4.1,4.1 0 0 0 -1.29,3 v 4.17 a 0.52,0.52 0 0 0 0.89,0.35 l 6,-5.74 a 4.13,4.13 0 0 0 1.29,-3 z"
         id="path204" />
      <path
         class="cls-6"
         d="m 309.49,1147.19 a 0.53,0.53 0 0 0 -0.9,-0.35 l -6,5.74 a 4.13,4.13 0 0 0 -1.29,3 v 4.16 a 0.52,0.52 0 0 0 0.89,0.35 l 6,-5.74 a 4.1,4.1 0 0 0 1.29,-3 z"
         id="path205" />
      <path
         class="cls-6"
         d="m 299.63,1186.74 a 4.14,4.14 0 0 0 -1.29,-3 l -6,-5.74 a 0.53,0.53 0 0 0 -0.89,0.36 v 4.16 a 4.14,4.14 0 0 0 1.29,3 l 6,5.74 a 0.53,0.53 0 0 0 0.9,-0.36 z"
         id="path206" />
      <path
         class="cls-6"
         d="m 308.59,1188.69 -6,5.74 a 4.13,4.13 0 0 0 -1.29,3 v 4.16 a 0.53,0.53 0 0 0 0.89,0.36 l 6,-5.75 a 4.1,4.1 0 0 0 1.29,-3 v -4.2 a 0.53,0.53 0 0 0 -0.89,-0.31 z"
         id="path207" />
      <path
         class="cls-6"
         d="m 288.6,1201.32 a 4.17,4.17 0 0 0 1.29,-3 v -4.16 a 0.53,0.53 0 0 0 -0.9,-0.36 l -6,5.75 a 4.1,4.1 0 0 0 -1.29,3 v 0.47 a 7.38,7.38 0 0 0 1.09,3.86 z"
         id="path208" />
      <path
         class="cls-6"
         d="m 309.49,1105.34 a 0.53,0.53 0 0 0 -0.9,-0.35 l -6,5.74 a 4.1,4.1 0 0 0 -1.29,3 v 4.17 a 0.52,0.52 0 0 0 0.89,0.35 l 6,-5.74 a 4.13,4.13 0 0 0 1.29,-3 z"
         id="path209" />
      <path
         class="cls-6"
         d="m 309.49,1094.66 a 0.53,0.53 0 0 0 -0.9,-0.35 l -6,5.74 a 4.13,4.13 0 0 0 -1.29,3 v 4.16 a 0.52,0.52 0 0 0 0.89,0.35 l 6,-5.74 a 4.1,4.1 0 0 0 1.29,-3 z"
         id="path210" />
      <path
         class="cls-6"
         d="m 309.49,1115.59 a 0.53,0.53 0 0 0 -0.9,-0.36 l -6,5.75 a 4.1,4.1 0 0 0 -1.29,3 v 4.17 a 0.52,0.52 0 0 0 0.89,0.35 l 6,-5.74 a 4.13,4.13 0 0 0 1.29,-3 z"
         id="path211" />
      <path
         class="cls-6"
         d="m 309.49,1136.51 a 0.53,0.53 0 0 0 -0.9,-0.35 l -6,5.74 a 4.13,4.13 0 0 0 -1.29,3 v 4.16 a 0.53,0.53 0 0 0 0.89,0.36 l 6,-5.75 a 4.1,4.1 0 0 0 1.29,-3 z"
         id="path212" />
      <path
         class="cls-6"
         d="m 309.49,1126.27 a 0.53,0.53 0 0 0 -0.9,-0.36 l -6,5.74 a 4.14,4.14 0 0 0 -1.29,3 v 4.16 a 0.53,0.53 0 0 0 0.89,0.36 l 6,-5.75 a 4.1,4.1 0 0 0 1.29,-3 z"
         id="path213" />
      <path
         class="cls-6"
         d="m 309.49,1178.37 a 0.53,0.53 0 0 0 -0.9,-0.36 l -6,5.74 a 4.14,4.14 0 0 0 -1.29,3 v 4.16 a 0.53,0.53 0 0 0 0.89,0.36 l 6,-5.74 a 4.14,4.14 0 0 0 1.29,-3 z"
         id="path214" />
      <path
         class="cls-6"
         d="m 311.92,1162.21 a 0.52,0.52 0 0 0 -0.89,0.36 v 4.16 a 4.1,4.1 0 0 0 1.29,3 l 6,5.75 a 0.53,0.53 0 0 0 0.89,-0.36 v -4.16 a 4.13,4.13 0 0 0 -1.29,-3 z"
         id="path215" />
      <path
         class="cls-6"
         d="m 301.29,1097 a 0.52,0.52 0 0 0 0.89,0.35 l 4.64,-4.42 h -5.53 z"
         id="path216" />
      <path
         class="cls-6"
         d="m 282.58,1123.36 6,-5.75 a 4.14,4.14 0 0 0 1.29,-3 v -4.17 a 0.53,0.53 0 0 0 -0.9,-0.35 l -6,5.74 a 4.13,4.13 0 0 0 -1.29,3 v 4.17 a 0.53,0.53 0 0 0 0.9,0.36 z"
         id="path217" />
      <path
         class="cls-6"
         d="m 311.92,1193.81 a 0.53,0.53 0 0 0 -0.89,0.36 v 4.16 a 4.13,4.13 0 0 0 1.29,3 l 5.82,5.55 a 7.38,7.38 0 0 0 1.09,-3.86 v -0.47 a 4.1,4.1 0 0 0 -1.29,-3 z"
         id="path218" />
      <path
         class="cls-6"
         d="m 311.92,1141.28 a 0.53,0.53 0 0 0 -0.89,0.36 v 4.16 a 4.13,4.13 0 0 0 1.29,3 l 6,5.74 a 0.52,0.52 0 0 0 0.89,-0.35 V 1150 a 4.1,4.1 0 0 0 -1.29,-3 z"
         id="path219" />
      <path
         class="cls-6"
         d="m 311.92,1183.14 a 0.52,0.52 0 0 0 -0.89,0.35 v 4.16 a 4.13,4.13 0 0 0 1.29,3 l 6,5.74 a 0.52,0.52 0 0 0 0.89,-0.35 v -4.17 a 4.1,4.1 0 0 0 -1.29,-3 z"
         id="path220" />
      <path
         class="cls-6"
         d="m 311.92,1172.89 a 0.52,0.52 0 0 0 -0.89,0.35 v 4.17 a 4.1,4.1 0 0 0 1.29,3 l 6,5.74 a 0.52,0.52 0 0 0 0.89,-0.35 v -4.16 a 4.13,4.13 0 0 0 -1.29,-3 z"
         id="path221" />
      <path
         class="cls-6"
         d="m 311.92,1099.43 a 0.53,0.53 0 0 0 -0.89,0.36 v 4.21 a 4.14,4.14 0 0 0 1.29,3 l 6,5.74 a 0.53,0.53 0 0 0 0.89,-0.36 v -4.16 a 4.14,4.14 0 0 0 -1.29,-3 z"
         id="path222" />
      <path
         class="cls-6"
         d="M 311.19,1092.88 H 311 v 0.82 a 4.14,4.14 0 0 0 1.29,3 l 6,5.74 a 0.52,0.52 0 0 0 0.89,-0.36 v -1.52 a 7.86,7.86 0 0 0 -7.99,-7.68 z"
         id="path223" />
      <path
         class="cls-6"
         d="m 311.92,1131 a 0.52,0.52 0 0 0 -0.89,0.35 v 4.16 a 4.13,4.13 0 0 0 1.29,3 l 6,5.74 a 0.52,0.52 0 0 0 0.89,-0.35 v -4.17 a 4.1,4.1 0 0 0 -1.29,-3 z"
         id="path224" />
      <path
         class="cls-6"
         d="m 311.92,1110.11 a 0.52,0.52 0 0 0 -0.89,0.35 v 4.17 a 4.1,4.1 0 0 0 1.29,3 l 6,5.75 a 0.53,0.53 0 0 0 0.89,-0.36 v -4.16 a 4.13,4.13 0 0 0 -1.29,-3 z"
         id="path225" />
      <path
         class="cls-6"
         d="m 311.92,1120.36 a 0.52,0.52 0 0 0 -0.89,0.35 v 4.17 a 4.1,4.1 0 0 0 1.29,3 l 6,5.74 a 0.52,0.52 0 0 0 0.89,-0.35 v -4.16 a 4.13,4.13 0 0 0 -1.29,-3 z"
         id="path226" />
      <path
         class="cls-6"
         d="m 311.92,1152 a 0.53,0.53 0 0 0 -0.89,0.36 v 4.16 a 4.14,4.14 0 0 0 1.29,3 l 6,5.74 a 0.53,0.53 0 0 0 0.89,-0.36 v -4.16 a 4.14,4.14 0 0 0 -1.29,-3 z"
         id="path227" />
      <path
         class="cls-6"
         d="m 282.58,1175.46 6,-5.75 a 4.14,4.14 0 0 0 1.29,-3 v -4.16 a 0.53,0.53 0 0 0 -0.9,-0.36 l -6,5.74 a 4.13,4.13 0 0 0 -1.29,3 v 4.16 a 0.53,0.53 0 0 0 0.9,0.37 z"
         id="path228" />
      <path
         class="cls-6"
         d="m 282.58,1165.21 6,-5.74 a 4.18,4.18 0 0 0 1.29,-3 v -4.16 a 0.53,0.53 0 0 0 -0.9,-0.36 l -6,5.74 a 4.14,4.14 0 0 0 -1.29,3 v 4.16 a 0.53,0.53 0 0 0 0.9,0.36 z"
         id="path229" />
      <path
         class="cls-6"
         d="m 282.58,1154.53 6,-5.74 a 4.17,4.17 0 0 0 1.29,-3 v -4.16 a 0.53,0.53 0 0 0 -0.9,-0.36 l -6,5.75 a 4.1,4.1 0 0 0 -1.29,3 v 4.17 a 0.52,0.52 0 0 0 0.9,0.34 z"
         id="path230" />
      <path
         class="cls-6"
         d="m 316.69,1208.61 -4.77,-4.55 a 0.53,0.53 0 0 0 -0.89,0.36 v 4.16 a 4.1,4.1 0 0 0 0.58,2.1 8.26,8.26 0 0 0 5.08,-2.07 z"
         id="path231" />
      <path
         class="cls-6"
         d="m 282.58,1144.28 6,-5.74 a 4.17,4.17 0 0 0 1.29,-3 v -4.16 a 0.53,0.53 0 0 0 -0.9,-0.35 l -6,5.74 a 4.1,4.1 0 0 0 -1.29,3 v 4.17 a 0.52,0.52 0 0 0 0.9,0.34 z"
         id="path232" />
      <path
         class="cls-6"
         d="m 282.58,1133.6 6,-5.74 a 4.14,4.14 0 0 0 1.29,-3 v -4.17 a 0.53,0.53 0 0 0 -0.9,-0.35 l -6,5.74 a 4.13,4.13 0 0 0 -1.29,3 v 4.16 a 0.52,0.52 0 0 0 0.9,0.36 z"
         id="path233" />
      <path
         class="cls-6"
         d="m 299.63,1207.67 a 4.13,4.13 0 0 0 -1.29,-3 l -6,-5.74 a 0.52,0.52 0 0 0 -0.89,0.35 v 4.17 a 4.1,4.1 0 0 0 1.29,3 l 4.45,4.25 h 2.46 z"
         id="path234" />
      <path
         class="cls-6"
         d="m 308.2,1206.44 a 4.1,4.1 0 0 0 1.29,-3 v -4.17 a 0.53,0.53 0 0 0 -0.9,-0.35 l -6,5.74 a 4.13,4.13 0 0 0 -1.29,3 v 3 h 2.46 z"
         id="path235" />
      <path
         class="cls-6"
         d="m 282.58,1186.13 6,-5.74 a 4.14,4.14 0 0 0 1.29,-3 v -4.17 a 0.53,0.53 0 0 0 -0.9,-0.35 l -6,5.74 a 4.13,4.13 0 0 0 -1.29,3 v 4.16 a 0.52,0.52 0 0 0 0.9,0.36 z"
         id="path236" />
      <path
         class="cls-6"
         d="m 282.58,1196.38 6,-5.74 a 4.17,4.17 0 0 0 1.29,-3 v -4.16 a 0.53,0.53 0 0 0 -0.9,-0.35 l -6,5.74 a 4.1,4.1 0 0 0 -1.29,3 v 4.13 a 0.52,0.52 0 0 0 0.9,0.38 z"
         id="path237" />
      <path
         class="cls-6"
         d="m 289.89,1208.58 v -4.16 a 0.53,0.53 0 0 0 -0.9,-0.36 l -4.76,4.55 a 8.24,8.24 0 0 0 5.08,2.07 4.1,4.1 0 0 0 0.58,-2.1 z"
         id="path238" />
    </g>
    <path
       class="cls-2"
       d="m 95.83,504.02144 h 15.47 v 41.85 H 95.83 a 6.3,6.3 0 0 1 -6.3,-6.3 v -29.26 a 6.3,6.3 0 0 1 6.3,-6.29 z"
       id="path432" />
    <path
       class="cls-2"
       d="m 223.38,545.90144 h -15.47 v -41.85 h 15.47 a 6.3,6.3 0 0 1 6.3,6.3 v 29.26 a 6.3,6.3 0 0 1 -6.3,6.29 z"
       id="path435" />
  </g>
  <metadata
     id="metadata635">
    <rdf:RDF>
      <cc:Work
         rdf:about="">
        <dc:title>trailer</dc:title>
      </cc:Work>
    </rdf:RDF>
  </metadata>
</svg>
