<svg xmlns="http://www.w3.org/2000/svg" width="300.03" height="222.636" version="1.0"><g style="fill-rule:nonzero;stroke:#000;stroke-width:.17638899;stroke-linecap:round;stroke-linejoin:round;stroke-miterlimit:4"><path stroke-width=".092022136083" d="M163.67 161.837c0-7.54-6.113-13.653-13.654-13.653-7.54 0-13.652 6.113-13.652 13.653s6.112 13.653 13.652 13.653c7.54 0 13.653-6.113 13.653-13.653zM136.364 45.547v70.466c0 7.541 6.112 13.653 13.652 13.653 7.54 0 13.653-6.112 13.653-13.653V45.547c0-7.54-6.112-13.653-13.653-13.653-7.54 0-13.652 6.113-13.652 13.653z"/><path d="M406.636 379.875c57.72-48.15 80.581-126.431 57.848-198.078a53.943 53.943 0 0 0-7.991-15.688l-45.01-61.09a53.964 53.964 0 0 1-10.518-32.008V56.65a7.195 7.195 0 0 1 7.196-7.194h27.424a8.994 8.994 0 0 1 8.96 8.192l3.135 35.062a53.971 53.971 0 0 0 10.676 27.7 213.32 213.32 0 0 1 41.902 106.403 212.45 212.45 0 0 1-43.43 140.038l-16.805 54.063a4.497 4.497 0 0 1-4.059 3.156l-39.878 2.09v-22.21H365.23v22.21h-30.856v-22.21h-30.857v22.21H272.66v-22.21h-30.856v22.21h-30.857v-22.21h-30.856v22.21l-39.878-2.09a4.497 4.497 0 0 1-4.06-3.156l-16.804-54.063a212.45 212.45 0 0 1-43.43-140.038A213.32 213.32 0 0 1 117.82 120.41a53.962 53.962 0 0 0 10.675-27.699l3.137-35.062a8.994 8.994 0 0 1 8.958-8.192h27.426a7.195 7.195 0 0 1 7.195 7.195V73.01a53.958 53.958 0 0 1-10.519 32.008l-45.009 61.09a53.967 53.967 0 0 0-7.991 15.688c-22.734 71.647.128 149.927 57.848 198.078h237.095z" style="stroke-width:1;stroke-linecap:butt;stroke-linejoin:miter" transform="matrix(.5217 0 0 .5217 -.279 -7.01)"/></g></svg>