<?xml version="1.0" encoding="UTF-8"?>
<svg xmlns="http://www.w3.org/2000/svg" xmlns:xlink="http://www.w3.org/1999/xlink" width="28px" height="21px" viewBox="0 0 28 21" version="1.1">
<g id="surface1">
<path style="fill-rule:nonzero;fill:rgb(0%,0%,0%);fill-opacity:1;stroke-width:0.0920221;stroke-linecap:round;stroke-linejoin:round;stroke:rgb(0%,0%,0%);stroke-opacity:1;stroke-miterlimit:4;" d="M 163.685826 161.857515 C 163.685826 154.308036 157.575335 148.168899 150 148.168899 C 142.466518 148.168899 136.356027 154.308036 136.356027 161.857515 C 136.356027 169.365513 142.466518 175.50465 150 175.50465 C 157.575335 175.50465 163.685826 169.365513 163.685826 161.857515 Z M 136.356027 45.545759 L 136.356027 116.021391 C 136.356027 123.570871 142.466518 129.668527 150 129.668527 C 157.575335 129.668527 163.685826 123.570871 163.685826 116.021391 L 163.685826 45.545759 C 163.685826 37.99628 157.575335 31.898624 150 31.898624 C 142.466518 31.898624 136.356027 37.99628 136.356027 45.545759 Z M 136.356027 45.545759 " transform="matrix(0.0933333,0,0,0.0941704,0,0)"/>
<path style="fill-rule:nonzero;fill:rgb(0%,0%,0%);fill-opacity:1;stroke-width:1;stroke-linecap:butt;stroke-linejoin:miter;stroke:rgb(0%,0%,0%);stroke-opacity:1;stroke-miterlimit:4;" d="M 406.626891 379.900956 C 464.387917 331.717564 487.251656 253.479185 464.46814 181.760671 C 462.70322 176.194932 459.975616 170.867726 456.525999 166.097093 L 411.520533 105.032992 C 404.6213 95.730258 400.931012 84.519271 400.931012 72.990241 L 400.931012 56.611068 C 400.931012 52.715052 404.220181 49.455119 408.15114 49.455119 L 435.587627 49.455119 C 440.240599 49.455119 444.091334 53.033094 444.572676 57.644705 L 447.701398 92.708857 C 448.583858 102.727186 452.274146 112.347962 458.371143 120.378528 C 481.716224 151.387641 496.236704 188.201025 500.247887 226.843151 C 502.895267 277.173328 487.492327 326.78791 456.846894 366.861226 L 439.999928 420.928399 C 439.438362 422.677631 437.833889 423.949799 435.988746 424.10882 L 396.117593 426.176095 L 396.117593 403.913141 L 365.231489 403.913141 L 365.231489 426.176095 L 334.345385 426.176095 L 334.345385 403.913141 L 303.539505 403.913141 L 303.539505 426.176095 L 272.6534 426.176095 L 272.6534 403.913141 L 241.767296 403.913141 L 241.767296 426.176095 L 210.961416 426.176095 L 210.961416 403.913141 L 180.075312 403.913141 L 180.075312 426.176095 L 140.204159 424.10882 C 138.359016 423.949799 136.674319 422.677631 136.192977 420.928399 L 119.346011 366.861226 C 88.700578 326.78791 73.297638 277.173328 75.945018 226.843151 C 79.956201 188.201025 94.396457 151.387641 117.821762 120.378528 C 123.918759 112.347962 127.609047 102.727186 128.491507 92.708857 L 131.620229 57.644705 C 132.021347 53.033094 135.952306 49.455119 140.605278 49.455119 L 168.041765 49.455119 C 171.972724 49.455119 175.181669 52.715052 175.181669 56.690579 L 175.181669 72.990241 C 175.181669 84.519271 171.491382 95.730258 164.672372 105.032992 L 119.666906 166.097093 C 116.217289 170.867726 113.489685 176.194932 111.724765 181.760671 C 88.941249 253.479185 111.804988 331.717564 169.566014 379.900956 Z M 406.626891 379.900956 " transform="matrix(0.048692,0,0,0.0491287,-0.02604,-0.660135)"/>
</g>
</svg>
